<svg xmlns="http://www.w3.org/2000/svg" style="border: 0 !important; clip: rect(0 0 0 0) !important; height: 1px !important; margin: -1px !important; overflow: hidden !important; padding: 0 !important; position: absolute !important; width: 1px !important;" class="root-svg-symbols-element">
  <defs>
      <clipPath id="a"><path fill="#fff" d="M1155 58.5c0-1.93 3.13-3.5 7-3.5s7 1.57 7 3.5-3.13 3.5-7 3.5-7-1.57-7-3.5z"/></clipPath><clipPath id="b"><path fill="#fff" d="M1155 55.5c0-1.93 3.13-3.5 7-3.5s7 1.57 7 3.5-3.13 3.5-7 3.5-7-1.57-7-3.5z"/></clipPath><clipPath id="c"><path fill="#fff" d="M1155 52.5c0-1.93 3.13-3.5 7-3.5s7 1.57 7 3.5-3.13 3.5-7 3.5-7-1.57-7-3.5z"/></clipPath>
<clipPath id="a"><path fill="#fff" d="M240 164v-7h7v7z"/></clipPath><clipPath id="b"><path fill="#fff" d="M249 164v-7h7v7z"/></clipPath><clipPath id="c"><path fill="#fff" d="M240 173v-7h7v7z"/></clipPath><clipPath id="d"><path fill="#fff" d="M249 173v-7h7v7z"/></clipPath>
<clipPath id="a"><path fill="#fff" d="M274 169v-12h16v12z"/></clipPath><clipPath id="b"><path fill="#fff" d="M274 173v-2h16v2z"/></clipPath>
  </defs>
    <symbol id="arrow-boost" viewBox="0 0 17.41 31.06">
      <path fill="none" stroke="#fff" stroke-miterlimit="50" stroke-width="2" d="M8.7 1.06v22m0 4v4m-8-22l8-8 8 8"/>
    </symbol>
    <symbol id="arrow-sl" viewBox="0 0 8 8">
      <path fill="#d2a36f" d="M0 8V6h6V0h2v8z"/>
    </symbol>
    <symbol id="arrow-up" viewBox="0 0 16 9">
      <path fill="none" stroke="#1a1b1c" stroke-linecap="round" stroke-linejoin="round" stroke-miterlimit="50" stroke-width="2" d="M1 8l7-7 7 7"/>
    </symbol>
    <symbol id="close" viewBox="0 0 15 15">
      <title>Combined Shape</title><path d="M6.314 7.728L.657 13.385l1.414 1.414 5.657-5.657 5.657 5.657 1.414-1.414-5.657-5.657L14.8 2.07 13.385.657 7.728 6.314 2.07.657.657 2.07l5.657 5.657z" fill-rule="evenodd"/>
    </symbol>
    <symbol id="currency" viewBox="0 0 14 13">
      <path fill="#f7f7f7" d="M0 9.5C0 7.57 3.13 6 7 6s7 1.57 7 3.5S10.87 13 7 13s-7-1.57-7-3.5z"/><path fill="none" stroke="#d2a36f" stroke-miterlimit="50" stroke-width="2" d="M1155 58.5c0-1.93 3.13-3.5 7-3.5s7 1.57 7 3.5-3.13 3.5-7 3.5-7-1.57-7-3.5z" clip-path="url(&quot;#a&quot;)" transform="translate(-1155 -49)"/><path fill="#f7f7f7" d="M0 6.5C0 4.57 3.13 3 7 3s7 1.57 7 3.5S10.87 10 7 10 0 8.43 0 6.5z"/><path fill="none" stroke="#d2a36f" stroke-miterlimit="50" stroke-width="2" d="M1155 55.5c0-1.93 3.13-3.5 7-3.5s7 1.57 7 3.5-3.13 3.5-7 3.5-7-1.57-7-3.5z" clip-path="url(&quot;#b&quot;)" transform="translate(-1155 -49)"/><path fill="#f7f7f7" d="M0 3.5C0 1.57 3.13 0 7 0s7 1.57 7 3.5S10.87 7 7 7 0 5.43 0 3.5z"/><path fill="none" stroke="#d2a36f" stroke-miterlimit="50" stroke-width="2" d="M1155 52.5c0-1.93 3.13-3.5 7-3.5s7 1.57 7 3.5-3.13 3.5-7 3.5-7-1.57-7-3.5z" clip-path="url(&quot;#c&quot;)" transform="translate(-1155 -49)"/>
    </symbol>
    <symbol id="filter-button" viewBox="0 0 23 16">
      <title>Group</title><path d="M17.17 14H1v-2h16.17a3.001 3.001 0 1 1 0 2zM5.83 2H22v2H5.83a3.001 3.001 0 1 1 0-2zM3 4a1 1 0 1 0 0-2 1 1 0 0 0 0 2zm17 10a1 1 0 1 0 0-2 1 1 0 0 0 0 2z" fill="#1A1B1C"/>
    </symbol>
    <symbol id="leg" viewBox="0 0 34 60">
      <path d="M21.46 2l.14.21 1.14 1.76 3.46 5.4.18.29c2.62 4.13 4.37 6.99 4.71 7.75a4.98 4.98 0 0 1-.61 4.74c-.43.58-.88 1.04-1.87 1.93l-.16.15a144.75 144.75 0 0 0-6.82 6.64l-.2.2-.15.15-1.66 1.67a115.85 115.85 0 0 0-4.15 4.29 43.8 43.8 0 0 0-5.3 7.18c-1.93 3.3-3.06 6-3.46 8.79-.23 1.64-.16 3.25.23 4.75-.22.06-.52.1-.94.1-1.08 0-2.38-3.92-2.02-5.81.52-2.68.62-5.48-.03-7.49-.42-1.32-.51-1.77-.43-2.06.07-.24.47-.48 1.63-.65 3.48-.52 7.32-5.35 9.78-11.62l.94-2.4c.32-.81.58-1.43.83-1.97 1.23-2.74 2.36-4 4.72-5.09 1.87-.86 1.96-2.51.84-4.18-.63-.93-1.54-1.8-2.65-2.7-.55-.44-1.01-.78-2.03-1.49-.88-.61-1.27-.88-1.72-1.23-1.28-1-2.27-1.88-4.45-3.92C8.42 4.6 6.81 3.21 4.95 2zM2 0a1 1 0 0 0-.66 1.75l.24.21.52.45c.52.45.76.65.91.73 2.14 1.29 3.68 2.58 7.02 5.7a63 63 0 0 0 4.61 4.05c.48.38.89.67 1.77 1.28 1.01.7 1.44 1.01 1.95 1.42.96.77 1.75 1.54 2.24 2.27.52.76.51.99-.02 1.23-2.83 1.31-4.29 2.93-5.71 6.09-.26.57-.52 1.21-.86 2.05l-.94 2.4c-2.22 5.67-5.67 10-8.21 10.38-1.85.28-2.93.91-3.26 2.08-.24.85-.12 1.43.45 3.21.52 1.62.43 4.13-.03 6.51C1.45 54.76 3.19 60 6 60c1.26 0 2.12-.27 2.62-.85.34-.4.44-.87.38-1.28a10.24 10.24 0 0 1-.31-4.43c.36-2.49 1.4-4.97 3.21-8.07a41.67 41.67 0 0 1 5.06-6.85c1.08-1.2 1.99-2.13 4.06-4.2l1.69-1.69.14-.15.21-.21c3.24-3.29 4.78-4.81 6.72-6.56l.17-.15c1.08-.97 1.61-1.5 2.14-2.22a6.95 6.95 0 0 0 .82-6.75c-.4-.9-2.12-3.72-4.84-8l-.19-.29c-1.1-1.74-2.28-3.58-3.46-5.41l-1.15-1.77-.43-.67A1 1 0 0 0 22 0z"/>
    </symbol>
    <symbol id="location" viewBox="0 0 18 21">
      <title>icon</title><g fill="none"><path d="M9 10a1 1 0 1 0 0-2 1 1 0 0 0 0 2zm0 2a3 3 0 1 1 0-6 3 3 0 0 1 0 6z" fill="#1A1B1C"/><path d="M9.266 18.22a99.05 99.05 0 0 0 1.77-1.464c.405-.345.784-.675 1.137-.99.948-.85 1.688-1.582 2.18-2.17A7.045 7.045 0 0 0 16 9.052C16 5.155 12.863 2 9 2S2 5.155 2 9.052c0 1.682.584 3.267 1.634 4.528.488.586 1.222 1.316 2.163 2.16.358.322.744.657 1.158 1.009A98.145 98.145 0 0 0 9 18.435l.266-.215zM9 21c-1.8-1.448-5.252-4.157-6.903-6.14A9.046 9.046 0 0 1 0 9.052C0 4.052 4.03 0 9 0s9 4.053 9 9.052a9.05 9.05 0 0 1-2.114 5.829C14.235 16.85 10.8 19.55 9 21z" fill="#000"/></g>
    </symbol>
    <symbol id="profile" viewBox="0 0 12 12">
      <path fill="#f7f7f7" d="M1 6a5 5 0 1 1 10 0A5 5 0 0 1 1 6z"/><path fill="none" stroke="#1a1b1c" stroke-miterlimit="50" stroke-width="2" d="M1 6a5 5 0 1 1 10 0A5 5 0 0 1 1 6z"/>
    </symbol>
    <symbol id="s-fb" viewBox="0 0 9 19">
      <path fill="#d2a36f" d="M5.79 6.13V4.52c0-.25.02-.43.04-.56.02-.14.07-.27.15-.4.08-.13.21-.21.39-.26.17-.05.41-.08.71-.08h1.61V0H6.11C4.62 0 3.55.35 2.9 1.06c-.65.71-.97 1.75-.97 3.13v1.94H0v3.22h1.93v9.35h3.86V9.35h2.58l.34-3.22z"/>
    </symbol>
    <symbol id="s-tw" viewBox="0 0 19 16">
      <path fill="#d2a36f" d="M5.86 15.14c7.03 0 10.88-5.82 10.88-10.88l-.01-.49a7.61 7.61 0 0 0 1.9-1.98 7.5 7.5 0 0 1-2.19.6A3.86 3.86 0 0 0 18.12.28a7.8 7.8 0 0 1-2.43.93 3.83 3.83 0 0 0-6.51 3.48A10.82 10.82 0 0 1 1.3.7a3.82 3.82 0 0 0 1.18 5.1 3.74 3.74 0 0 1-1.73-.48v.05a3.82 3.82 0 0 0 3.06 3.75 3.7 3.7 0 0 1-1.72.06 3.82 3.82 0 0 0 3.57 2.66A7.73 7.73 0 0 1 0 13.42a10.78 10.78 0 0 0 5.86 1.72"/>
    </symbol>
    <symbol id="search" viewBox="0 0 17.71 17.71">
      <path fill="none" d="M13 13l4 4M1 8a7 7 0 1 1 14 0A7 7 0 0 1 1 8z"/>
    </symbol>
    <symbol id="sort-1" viewBox="0 0 16 16">
      <path fill="none" stroke="#1a1b1c" stroke-miterlimit="50" stroke-width="4" d="M240 164v-7h7v7z" clip-path="url(&quot;#a&quot;)" transform="translate(-240 -157)"/><path fill="none" stroke="#1a1b1c" stroke-miterlimit="50" stroke-width="4" d="M249 164v-7h7v7z" clip-path="url(&quot;#b&quot;)" transform="translate(-240 -157)"/><path fill="none" stroke="#1a1b1c" stroke-miterlimit="50" stroke-width="4" d="M240 173v-7h7v7z" clip-path="url(&quot;#c&quot;)" transform="translate(-240 -157)"/><path fill="none" stroke="#1a1b1c" stroke-miterlimit="50" stroke-width="4" d="M249 173v-7h7v7z" clip-path="url(&quot;#d&quot;)" transform="translate(-240 -157)"/>
    </symbol>
    <symbol id="sort-2" viewBox="0 0 16 16">
      <path fill="none" stroke="#d2a36f" stroke-miterlimit="50" stroke-width="4" d="M274 169v-12h16v12z" clip-path="url(&quot;#a&quot;)" transform="translate(-274 -157)"/><path fill="none" stroke="#d2a36f" stroke-miterlimit="50" stroke-width="4" d="M274 173v-2h16v2z" clip-path="url(&quot;#b&quot;)" transform="translate(-274 -157)"/>
    </symbol>
    <symbol id="star" viewBox="0 0 16 15">
      <path d="M7.89 0l2.43 4.94 5.45.79-3.94 3.84.93 5.43-4.87-2.56L3.01 15l.93-5.43L0 5.73l5.45-.79z"/>
    </symbol></svg>