<svg width="18" height="21" viewBox="0 0 18 21" xmlns="http://www.w3.org/2000/svg"><title>icon</title><g fill="none"><path d="M9 10a1 1 0 1 0 0-2 1 1 0 0 0 0 2zm0 2a3 3 0 1 1 0-6 3 3 0 0 1 0 6z" fill="#1A1B1C"/><path d="M9.266 18.22a99.05 99.05 0 0 0 1.77-1.464c.405-.345.784-.675 1.137-.99.948-.85 1.688-1.582 2.18-2.17A7.045 7.045 0 0 0 16 9.052C16 5.155 12.863 2 9 2S2 5.155 2 9.052c0 1.682.584 3.267 1.634 4.528.488.586 1.222 1.316 2.163 2.16.358.322.744.657 1.158 1.009A98.145 98.145 0 0 0 9 18.435l.266-.215zM9 21c-1.8-1.448-5.252-4.157-6.903-6.14A9.046 9.046 0 0 1 0 9.052C0 4.052 4.03 0 9 0s9 4.053 9 9.052a9.05 9.05 0 0 1-2.114 5.829C14.235 16.85 10.8 19.55 9 21z" fill="#000"/></g></svg>