<?xml version="1.0" standalone="no"?>
<!DOCTYPE svg PUBLIC "-//W3C//DTD SVG 1.1//EN" "http://www.w3.org/Graphics/SVG/1.1/DTD/svg11.dtd" >
<svg xmlns="http://www.w3.org/2000/svg" xmlns:xlink="http://www.w3.org/1999/xlink" version="1.1">
<metadata>
Created by FontForge 20161003 at Sat Jul  8 09:44:17 2017
 By www-data
Copyright (c) 2009-2010 Parachute :, www.parachute.gr.  All rights reserved.
</metadata>
<defs>
<font id="PFRegalTextProRegularAItalic" horiz-adv-x="478" >
  <font-face 
    font-family="PFRegalTextProRegularAItalic"
    font-weight="300"
    font-style="italic"
    font-stretch="normal"
    units-per-em="1000"
    panose-1="2 0 5 3 0 0 0 9 0 3"
    ascent="750"
    descent="-250"
    x-height="449"
    cap-height="673"
    bbox="-206 -260 1023 907"
    underline-thickness="30"
    underline-position="-155"
    unicode-range="U+0020-FB06"
  />
<missing-glyph horiz-adv-x="440" 
d="M2 0v686h437v-686h-437zM221 383l146 273h-292zM247 350l144 -269l5 1v536l-5 1zM75 44h292l-146 273zM46 618v-536l5 -1l144 269l-144 269z" />
    <glyph glyph-name="f_t" unicode="ft" horiz-adv-x="515" 
d="M304 67l65 339h-175q-46 -274 -79.5 -387t-71.5 -164q-51 -67 -114 -67q-27 0 -45.5 14.5t-18.5 34.5q0 19 13 30.5t31 11.5q21 0 38.5 -16t21.5 -46q50 21 74 158q45 259 80 431h-91l5 19l92 10q30 138 90.5 223t128.5 85q25 0 41 -12t16 -30q0 -20 -14 -31t-34 -11
q-18 0 -36 12t-26 34q-52 -43 -84 -213l-11 -57h171q48 44 76 126h20l-25 -126h108l-6 -29h-108l-69 -357l101 66l13 -17q-39 -44 -83 -76.5t-62 -32.5q-26 0 -33 14t1 64z" />
    <glyph glyph-name="f_f_t" unicode="fft" horiz-adv-x="748" 
d="M15 -163l111 569h-91l5 19l91 10q15 76 45.5 133t70 87.5t79.5 45t81 14.5q65 0 76 -36q55 64 112 64q25 0 41 -12t16 -30q0 -20 -14 -31t-34 -11q-18 0 -36 12t-26 34q-52 -43 -84 -213l-11 -57h157q48 44 76 126h20l-25 -126h108l-6 -29h-108l-69 -357l101 66l13 -17
q-39 -44 -83 -76.5t-62 -32.5q-26 0 -34.5 15.5t0.5 62.5l65 339h-159q-46 -274 -79.5 -387t-71.5 -164q-51 -67 -114 -67q-27 0 -45.5 14.5t-18.5 34.5q0 19 13 30.5t31 11.5q21 0 38.5 -16t21.5 -46q52 22 76 158q45 259 80 431h-176l-84 -435q-28 -12 -43 -37.5
t-24 -71.5l-5 -25h-25zM201 435h177q25 117 69 192h-6q-55 0 -55 61q-40 -4 -69 -18t-47 -33.5t-32 -54.5t-21 -65.5t-16 -81.5z" />
    <glyph glyph-name="fj" unicode="fj" horiz-adv-x="484" 
d="M15 -163l108 569h-91l5 19l91 10q29 150 105.5 224.5t169.5 74.5q34 0 56 -12.5t22 -34.5q0 -19 -12.5 -30t-31.5 -11q-55 0 -55 61q-39 -3 -68.5 -20t-46.5 -38t-31 -61t-20 -69t-16 -84h76q101 0 160 14l3 -3l-76 -408q-8 -40 -21 -80.5t-34 -85.5t-54 -73.5t-71 -28.5
q-22 0 -41 11.5t-19 31.5t13 31.5t31 11.5q20 0 36 -14t19 -39q33 18 53 121l88 482h-169l-80 -435q-52 -26 -69 -109l-5 -25h-25z" />
    <glyph glyph-name="ffj" unicode="ffj" horiz-adv-x="733" 
d="M449 435h76q101 0 160 14l3 -3l-76 -408q-8 -40 -21 -80.5t-34 -85.5t-54 -73.5t-71 -28.5q-22 0 -41 11.5t-19 31.5t13 31.5t31 11.5q20 0 36 -14t19 -39q33 18 53 121l88 482h-169l-81 -435q-50 -21 -68 -109l-5 -25h-25l111 569h-181l-81 -435q-50 -21 -68 -109
l-5 -25h-25l111 569h-91l5 19l91 10q15 76 45.5 133t70 87.5t79.5 45t81 14.5q34 0 56 -12.5t22 -34.5q0 -5 -1 -7q73 73 168 73q34 0 56 -12.5t22 -34.5q0 -19 -12.5 -30t-31.5 -11q-55 0 -55 61q-39 -3 -68.5 -20t-46.5 -38t-31 -61t-20 -69t-16 -84zM441 627
q-55 0 -55 61q-40 -4 -69 -18t-47.5 -33.5t-32.5 -54.5t-21 -66t-16 -81h177q23 119 79 194q-5 -2 -15 -2z" />
    <glyph glyph-name="fb" unicode="fb" horiz-adv-x="763" 
d="M481 25q72 0 122.5 84t50.5 193q0 100 -69 100q-51 0 -108.5 -75t-85.5 -197l-14 -62q43 -43 104 -43zM505 730l-62 -321q-15 -77 -36 -138h4q44 97 97.5 137.5t98.5 40.5q55 0 88 -39.5t33 -114.5q0 -69 -26.5 -137.5t-82 -118.5t-126.5 -50q-75 0 -129 50l-55 -47h-14
l123 625q3 13 3 24q0 54 -58 54q-48 0 -87.5 -40t-53.5 -111q-11 -55 -20 -109h112l-7 -29h-111q-47 -275 -81.5 -393.5t-71.5 -168.5q-51 -67 -114 -67q-27 0 -45.5 14.5t-18.5 34.5q0 19 13 30.5t31 11.5q21 0 38.5 -16t21.5 -46q50 21 74 158q46 267 82 442h-91l5 19
l91 10q25 129 95 209.5t157 80.5q12 0 26 -2l93 11z" />
    <glyph glyph-name="ffb" unicode="ffb" horiz-adv-x="1000" 
d="M200 435h168q21 114 81 192h-8q-55 0 -55 61q-40 -4 -69 -18t-47.5 -33.5t-32.5 -54.5t-21 -66t-16 -81zM718 25q72 0 122.5 84t50.5 193q0 100 -69 100q-51 0 -108.5 -75t-85.5 -197l-14 -62q43 -43 104 -43zM743 730l-63 -321q-15 -77 -36 -138h4q44 97 97.5 137.5
t98.5 40.5q55 0 88 -39.5t33 -114.5q0 -69 -26.5 -137.5t-82 -118.5t-126.5 -50q-75 0 -129 50l-55 -47h-14l122 625q3 13 3 24q0 54 -56 54q-48 0 -87.5 -40t-53.5 -111q-11 -55 -20 -109h112l-7 -29h-111q-47 -275 -81.5 -393.5t-71.5 -168.5q-51 -67 -114 -67
q-27 0 -45.5 14.5t-18.5 34.5q0 19 13 30.5t31 11.5q21 0 38.5 -16t21.5 -46q50 21 74 158q46 267 82 442h-169l-81 -435q-50 -21 -68 -109l-5 -25h-25l111 569h-91l5 19l91 10q15 76 45.5 133t70 87.5t79.5 45t81 14.5q34 0 56 -12.5t22 -34.5v-1q63 58 135 58q12 0 26 -2
l93 11z" />
    <glyph glyph-name="fh" unicode="fh" horiz-adv-x="747" 
d="M505 730l-59 -301q-19 -96 -44 -181h4q34 92 91.5 146.5t110.5 54.5q104 0 104 -140q0 -70 -28 -144t-78 -125t-105 -51q-32 0 -49 15.5t-17 39.5q0 17 10.5 29t28.5 12q20 0 33 -16t13 -48v-8q59 26 89.5 128t30.5 184q0 75 -52 75q-59 0 -117.5 -83t-79.5 -198
l-22 -119h-70l117 617q3 13 3 24q0 54 -56 54q-48 0 -87.5 -40t-53.5 -111q-11 -55 -20 -109h112l-7 -29h-111q-47 -275 -81.5 -393.5t-71.5 -168.5q-51 -67 -114 -67q-27 0 -45.5 14.5t-18.5 34.5q0 19 13 30.5t31 11.5q21 0 38.5 -16t21.5 -46q50 21 74 158q46 267 82 442
h-91l5 19l91 10q25 129 95 209.5t157 80.5q12 0 26 -2l93 11z" />
    <glyph glyph-name="ffh" unicode="ffh" horiz-adv-x="988" 
d="M540 0l114 617q3 13 3 24q0 54 -56 54q-48 0 -87.5 -40t-53.5 -111q-11 -55 -20 -109h112l-7 -29h-111q-47 -275 -81.5 -393.5t-71.5 -168.5q-51 -67 -114 -67q-27 0 -45.5 14.5t-18.5 34.5q0 19 13 30.5t31 11.5q21 0 38.5 -16t21.5 -46q50 21 74 158q46 267 82 442
h-169l-81 -435q-50 -21 -68 -109l-5 -25h-25l111 569h-91l5 19l91 10q15 76 45.5 133t70 87.5t79.5 45t81 14.5q34 0 56 -12.5t22 -34.5v-1q63 58 135 58q12 0 26 -2l93 11l4 -4l-56 -301q-19 -96 -44 -181h4q34 92 91.5 146.5t110.5 54.5q104 0 104 -140q0 -70 -28 -144
t-78 -125t-105 -51q-32 0 -49 15.5t-17 39.5q0 17 10.5 29t28.5 12q20 0 33 -16t13 -48v-8q59 26 89.5 128t30.5 184q0 75 -52 75q-59 0 -117.5 -83t-79.5 -198l-22 -119h-70zM200 435h168q21 114 81 192h-8q-55 0 -55 61q-40 -4 -69 -18t-47.5 -33.5t-32.5 -54.5t-21 -66
t-16 -81z" />
    <glyph glyph-name="fk" unicode="fk" horiz-adv-x="719" 
d="M505 730l-64 -334q-22 -116 -40 -163h4q30 87 94.5 151.5t129.5 64.5q31 0 50.5 -20.5t19.5 -52.5q0 -23 -13 -45t-30 -37.5t-44.5 -32.5t-46 -26t-44.5 -20q5 -53 27 -99t48 -76l86 61l13 -16q-79 -96 -121 -96q-31 0 -58.5 40.5t-41.5 88.5t-18 90q99 51 135.5 80
t36.5 60q0 18 -11 29.5t-32 11.5q-38 0 -83 -54.5t-75.5 -121t-39.5 -115.5l-18 -98h-71l118 617q3 13 3 24q0 54 -56 54q-48 0 -87.5 -40t-53.5 -111q-11 -55 -20 -109h112l-7 -29h-111q-47 -275 -81.5 -393.5t-71.5 -168.5q-51 -67 -114 -67q-27 0 -45.5 14.5t-18.5 34.5
q0 19 13 30.5t31 11.5q21 0 38.5 -16t21.5 -46q50 21 74 158q46 267 82 442h-91l5 19l91 10q25 129 95 209.5t157 80.5q12 0 26 -2l93 11z" />
    <glyph glyph-name="ffk" unicode="ffk" horiz-adv-x="957" 
d="M200 435h168q21 114 81 192h-8q-55 0 -55 61q-40 -4 -69 -18t-47.5 -33.5t-32.5 -54.5t-21 -66t-16 -81zM536 0l118 617q3 13 3 24q0 54 -56 54q-48 0 -87.5 -40t-53.5 -111q-11 -55 -20 -109h112l-7 -29h-111q-47 -275 -81.5 -393.5t-71.5 -168.5q-51 -67 -114 -67
q-27 0 -45.5 14.5t-18.5 34.5q0 19 13 30.5t31 11.5q21 0 38.5 -16t21.5 -46q50 21 74 158q46 267 82 442h-169l-81 -435q-50 -21 -68 -109l-5 -25h-25l111 569h-91l5 19l91 10q15 76 45.5 133t70 87.5t79.5 45t81 14.5q34 0 56 -12.5t22 -34.5v-1q63 58 135 58q12 0 26 -2
l93 11l4 -4l-64 -334q-22 -116 -40 -163h4q30 87 94.5 151.5t129.5 64.5q31 0 50.5 -20.5t19.5 -52.5q0 -23 -13 -45t-30 -37.5t-44.5 -32.5t-46 -26t-44.5 -20q5 -53 27 -99t48 -76l86 61l13 -16q-79 -96 -121 -96q-31 0 -58.5 40.5t-41.5 88.5t-18 90q99 51 135.5 80
t36.5 60q0 18 -11 29.5t-32 11.5q-38 0 -83 -54.5t-75.5 -121t-39.5 -115.5l-18 -98h-71z" />
    <glyph glyph-name="longs_b" unicode="&#x17f;b" horiz-adv-x="763" 
d="M481 25q72 0 122.5 84t50.5 193q0 100 -69 100q-51 0 -108.5 -75t-85.5 -197l-14 -62q43 -43 104 -43zM505 730l-62 -321q-15 -77 -36 -138h4q44 97 97.5 137.5t98.5 40.5q55 0 88 -39.5t33 -114.5q0 -69 -26.5 -137.5t-82 -118.5t-126.5 -50q-75 0 -129 50l-55 -47h-14
l123 625q3 13 3 24q0 54 -58 54q-48 0 -87.5 -40t-53.5 -111q-1 -6 -9 -43.5t-13 -65.5q-50 -295 -85 -418t-72 -173q-51 -67 -114 -67q-27 0 -45.5 14.5t-18.5 34.5q0 19 13 30.5t31 11.5q21 0 38.5 -16t21.5 -46q50 21 74 158q46 267 82 442h-91l5 19l91 10
q25 129 95 209.5t157 80.5q12 0 26 -2l93 11z" />
    <glyph glyph-name="longs_h" unicode="&#x17f;h" horiz-adv-x="747" 
d="M505 730l-59 -301q-19 -96 -44 -181h4q34 92 91.5 146.5t110.5 54.5q104 0 104 -140q0 -70 -28 -144t-78 -125t-105 -51q-32 0 -49 15.5t-17 39.5q0 17 10.5 29t28.5 12q20 0 33 -16t13 -48v-8q59 26 89.5 128t30.5 184q0 75 -52 75q-59 0 -117.5 -83t-79.5 -198
l-22 -119h-70l117 617q3 13 3 24q0 54 -56 54q-48 0 -87.5 -40t-53.5 -111q-1 -6 -9 -43.5t-13 -65.5q-50 -295 -85 -418t-72 -173q-51 -67 -114 -67q-27 0 -45.5 14.5t-18.5 34.5q0 19 13 30.5t31 11.5q21 0 38.5 -16t21.5 -46q50 21 74 158q46 267 82 442h-91l5 19l91 10
q25 129 95 209.5t157 80.5q12 0 26 -2l93 11z" />
    <glyph glyph-name="longs_i" unicode="&#x17f;i" horiz-adv-x="503" 
d="M405 734q34 0 56 -12.5t22 -34.5q0 -19 -12.5 -30t-31.5 -11q-55 0 -55 61q-39 -3 -68.5 -20t-47 -38t-31.5 -61t-20.5 -69.5t-15.5 -83.5q-52 -297 -86.5 -419.5t-71.5 -171.5q-51 -67 -114 -67q-27 0 -45.5 14.5t-18.5 34.5q0 19 13 30.5t31 11.5q21 0 38.5 -16
t21.5 -46q50 21 74 158q46 267 82 442h-91l5 19l91 10q29 150 105.5 224.5t169.5 74.5zM338 -11q-26 0 -33 14t1 64l63 327l-89 -62l-15 17q87 102 128 102q35 0 42 -28.5t-5 -70.5l-61 -303l85 53l13 -17q-39 -41 -75.5 -68.5t-53.5 -27.5z" />
    <glyph glyph-name="longs_k" unicode="&#x17f;k" horiz-adv-x="699" 
d="M485 730l-64 -334q-22 -116 -40 -163h4q30 87 94.5 151.5t129.5 64.5q31 0 50.5 -20.5t19.5 -52.5q0 -23 -13 -45t-30 -37.5t-44.5 -32.5t-46 -26t-44.5 -20q5 -53 27 -99t48 -76l86 61l13 -16q-79 -96 -121 -96q-31 0 -58.5 40.5t-41.5 88.5t-18 90q99 51 135.5 80
t36.5 60q0 18 -11 29.5t-32 11.5q-38 0 -83 -54.5t-75.5 -121t-39.5 -115.5l-18 -98h-71l118 617q3 13 3 24q0 54 -56 54q-39 0 -73 -40t-48 -111q-1 -6 -9 -43.5t-13 -65.5q-50 -295 -85 -418t-72 -173q-51 -67 -114 -67q-27 0 -45.5 14.5t-18.5 34.5q0 19 13 30.5t31 11.5
q21 0 38.5 -16t21.5 -46q50 21 74 158q46 267 82 442h-91l5 19l91 10q25 128 90 209t142 81q12 0 26 -2l93 11z" />
    <glyph glyph-name="longs_l" unicode="&#x17f;l" horiz-adv-x="497" 
d="M311 67l105 550q3 13 3 24q0 54 -56 54q-48 0 -87.5 -40t-53.5 -111q-1 -6 -9 -43.5t-13 -65.5q-51 -297 -85.5 -419t-71.5 -172q-51 -67 -114 -67q-27 0 -45.5 14.5t-18.5 34.5q0 19 13 30.5t31 11.5q21 0 38.5 -16t21.5 -46q50 21 74 158q46 267 82 442h-91l5 19l91 10
q25 129 95 209.5t157 80.5q12 0 26 -2l93 11l4 -4l-131 -681l85 53l13 -17q-39 -41 -75.5 -68.5t-53.5 -27.5q-26 0 -33 14t1 64z" />
    <glyph glyph-name="longs_longs" unicode="&#x17f;&#x17f;" horiz-adv-x="492" 
d="M371 406h-91l5 19l91 10q24 112 71 192h-6q-55 0 -55 61q-40 -4 -69 -18.5t-47 -33.5t-32 -54.5t-21 -65t-17 -81.5l-86 -464q-29 -13 -44.5 -38.5t-24.5 -70.5l-5 -25h-25l111 569h-91l5 19l91 10q15 76 45.5 133t70 87.5t79.5 45t81 14.5q65 0 76 -36q55 64 112 64
q25 0 41 -12t16 -30q0 -20 -14 -31t-34 -11q-18 0 -36 12t-26 34q-15 -13 -26.5 -31t-30 -78.5t-37.5 -160.5q-59 -305 -91 -419t-67 -161q-51 -67 -114 -67q-27 0 -45.5 14.5t-18.5 34.5q0 19 13 30.5t31 11.5q21 0 38.5 -16t21.5 -46q50 21 74 158q46 267 81 431z" />
    <glyph glyph-name="longs_longs_i" unicode="&#x17f;&#x17f;i" horiz-adv-x="721" 
d="M371 406h-91l5 19l91 10q24 112 71 192h-6q-55 0 -55 61q-40 -4 -69 -18.5t-47 -33.5t-32 -54.5t-21 -65t-17 -81.5l-86 -464q-29 -13 -44.5 -38.5t-24.5 -70.5l-5 -25h-25l111 569h-91l5 19l91 10q15 76 45.5 133t70 87.5t79.5 45t81 14.5q65 0 76 -36q55 64 112 64
q25 0 41 -12t16 -30q0 -20 -14 -31t-34 -11q-18 0 -36 12t-26 34q-15 -13 -26.5 -31t-30 -78.5t-37.5 -160.5q-59 -305 -91 -419t-67 -161q-51 -67 -114 -67q-27 0 -45.5 14.5t-18.5 34.5q0 19 13 30.5t31 11.5q21 0 38.5 -16t21.5 -46q50 21 74 158q46 267 81 431zM572 -11
q-26 0 -33 14t1 64l63 327l-89 -62l-15 17q87 102 128 102q35 0 42 -28.5t-5 -70.5l-61 -303l85 53l13 -17q-39 -41 -75.5 -68.5t-53.5 -27.5z" />
    <glyph glyph-name="longs_longs_l" unicode="&#x17f;&#x17f;l" horiz-adv-x="735" 
d="M363 406h-91l5 19l91 10q21 114 81 192q-63 0 -63 61q-40 -4 -69 -18.5t-47 -33.5t-32 -54.5t-21 -65t-17 -81.5l-87 -464q-50 -21 -68 -109l-5 -25h-25l111 569h-91l5 19l91 10q15 76 45.5 133t70 87.5t79.5 45t81 14.5q34 0 56 -12.5t22 -34.5q63 57 135 57q12 0 26 -2
l93 11l4 -4l-131 -681l85 53l13 -17q-39 -41 -75.5 -68.5t-53.5 -27.5q-26 0 -33 14t1 64l105 550q3 13 3 24q0 54 -56 54q-48 0 -88 -40t-54 -111q-17 -85 -21 -109q-50 -295 -85 -418t-72 -173q-51 -67 -114 -67q-27 0 -45.5 14.5t-18.5 34.5q0 19 13 30.5t31 11.5
q21 0 38.5 -16t21.5 -46q50 21 74 158q46 267 82 442z" />
    <glyph glyph-name="longs_s" unicode="&#x17f;s" horiz-adv-x="596" 
d="M405 734q34 0 56 -12.5t22 -34.5q0 -19 -12.5 -30t-31.5 -11q-55 0 -55 61q-39 -3 -68.5 -20t-47 -38t-31.5 -61t-20.5 -69.5t-15.5 -83.5q-52 -297 -86.5 -419.5t-71.5 -171.5q-51 -67 -114 -67q-27 0 -45.5 14.5t-18.5 34.5q0 19 13 30.5t31 11.5q21 0 38.5 -16
t21.5 -46q50 21 74 158q46 267 82 442h-91l5 19l91 10q29 150 105.5 224.5t169.5 74.5zM369 -11q-58 0 -94.5 23t-36.5 60q0 23 12 34.5t27 11.5q40 0 40 -44q0 -28 -16 -46q28 -13 71 -13q50 0 79.5 26.5t29.5 63.5q0 24 -19 45t-46.5 37t-54.5 33t-46 41.5t-19 53.5
q0 61 45 97.5t112 36.5q50 0 86.5 -23t36.5 -62q0 -20 -12 -31.5t-27 -11.5q-19 0 -30.5 13t-11.5 29q0 26 17 48q-23 10 -53 10q-38 0 -65.5 -21.5t-27.5 -60.5q0 -22 19 -42t45.5 -36t53.5 -33.5t46 -42.5t19 -55q0 -57 -51.5 -99t-128.5 -42z" />
    <glyph glyph-name="ff" unicode="ff" horiz-adv-x="512" 
d="M201 435h175q24 112 71 192h-6q-55 0 -55 61q-40 -4 -69 -18t-47 -33.5t-32 -54.5t-21 -65.5t-16 -81.5zM15 -163l111 569h-91l5 19l91 10q15 76 45.5 133t70 87.5t79.5 45t81 14.5q65 0 76 -36q55 64 112 64q25 0 41 -12t16 -30q0 -20 -14 -31t-34 -11q-18 0 -36 12
t-26 34q-52 -43 -84 -213l-11 -57h108l-6 -29h-108q-46 -274 -79.5 -387t-71.5 -164q-51 -67 -114 -67q-27 0 -45.5 14.5t-18.5 34.5q0 19 13 30.5t31 11.5q21 0 38.5 -16t21.5 -46q50 21 74 158q45 259 80 431h-176l-80 -435q-29 -13 -44.5 -38.5t-24.5 -70.5l-5 -25h-25z
" />
    <glyph glyph-name="f_i" unicode="fi" horiz-adv-x="493" 
d="M291 67l66 339h-161q-47 -275 -81.5 -393.5t-71.5 -168.5q-51 -67 -114 -67q-27 0 -45.5 14.5t-18.5 34.5q0 19 13 30.5t31 11.5q21 0 38.5 -16t21.5 -46q50 21 74 158q46 267 82 442h-91l5 19l91 10q29 150 105.5 224.5t169.5 74.5q34 0 56 -12.5t22 -34.5
q0 -19 -12.5 -30t-31.5 -11q-55 0 -55 61q-39 -3 -68.5 -20t-46.5 -38t-31 -61t-20 -69t-16 -84h68q102 0 161 14l3 -3l-80 -397l85 53l13 -17q-39 -41 -75.5 -68.5t-53.5 -27.5q-26 0 -33 14t1 64z" />
    <glyph glyph-name="f_l" unicode="fl" horiz-adv-x="497" 
d="M311 67l105 550q3 13 3 24q0 54 -56 54q-48 0 -87.5 -40t-53.5 -111q-11 -55 -20 -109h112l-7 -29h-111q-47 -275 -81.5 -393.5t-71.5 -168.5q-51 -67 -114 -67q-27 0 -45.5 14.5t-18.5 34.5q0 19 13 30.5t31 11.5q21 0 38.5 -16t21.5 -46q50 21 74 158q46 267 82 442
h-91l5 19l91 10q25 129 95 209.5t157 80.5q12 0 26 -2l93 11l4 -4l-131 -681l85 53l13 -17q-39 -41 -75.5 -68.5t-53.5 -27.5q-26 0 -33 14t1 64z" />
    <glyph glyph-name="ffi" unicode="ffi" horiz-adv-x="734" 
d="M15 -163l111 569h-91l5 19l91 10q15 76 45.5 133t70 87.5t79.5 45t81 14.5q34 0 56 -12.5t22 -34.5q0 -5 -1 -7q73 73 168 73q34 0 56 -12.5t22 -34.5q0 -19 -12.5 -30t-31.5 -11q-55 0 -55 61q-39 -3 -68.5 -20t-46.5 -38t-31 -61t-20 -69t-16 -84h68q102 0 161 14l3 -3
l-80 -397l85 53l13 -17q-39 -41 -75.5 -68.5t-53.5 -27.5q-26 0 -33 14t1 64l66 339h-161q-47 -275 -81.5 -393.5t-71.5 -168.5q-51 -67 -114 -67q-27 0 -45.5 14.5t-18.5 34.5q0 19 13 30.5t31 11.5q21 0 38.5 -16t21.5 -46q50 21 74 158q46 267 82 442h-178l-81 -435
q-50 -21 -68 -109l-5 -25h-25zM200 435h177q23 119 79 194q-5 -2 -15 -2q-55 0 -55 61q-40 -4 -69 -18t-47.5 -33.5t-32.5 -54.5t-21 -66t-16 -81z" />
    <glyph glyph-name="ffl" unicode="ffl" horiz-adv-x="735" 
d="M15 -163l111 569h-91l5 19l91 10q15 76 45.5 133t70 87.5t79.5 45t81 14.5q34 0 56 -12.5t22 -34.5v-1q63 58 135 58q12 0 26 -2l93 11l4 -4l-131 -681l85 53l13 -17q-39 -41 -75.5 -68.5t-53.5 -27.5q-26 0 -33 14t1 64l105 550q3 13 3 24q0 54 -56 54q-48 0 -87.5 -40
t-53.5 -111q-11 -55 -20 -109h112l-7 -29h-111q-47 -275 -81.5 -393.5t-71.5 -168.5q-51 -67 -114 -67q-27 0 -45.5 14.5t-18.5 34.5q0 19 13 30.5t31 11.5q21 0 38.5 -16t21.5 -46q50 21 74 158q46 267 82 442h-169l-81 -435q-50 -21 -68 -109l-5 -25h-25zM200 435h168
q21 114 81 192h-8q-55 0 -55 61q-40 -4 -69 -18t-47.5 -33.5t-32.5 -54.5t-21 -66t-16 -81z" />
    <glyph glyph-name="longs_t" unicode="&#x17f;t" horiz-adv-x="506" 
d="M194 406q-49 -279 -82 -396.5t-69 -165.5q-51 -67 -114 -67q-27 0 -45.5 14.5t-18.5 34.5q0 19 13 30.5t31 11.5q21 0 38.5 -16t21.5 -46q50 21 74 158q46 267 82 442h-91l5 19l91 10q29 150 105.5 224.5t169.5 74.5q34 0 56 -12.5t22 -34.5q0 -19 -12.5 -30t-31.5 -11
q-55 0 -55 61q-33 -3 -58.5 -13.5t-44 -32t-31.5 -43.5t-23.5 -60.5t-17 -69t-15.5 -82.5zM292 67l65 338h-67l5 24q58 8 88 37t55 95h20l-25 -125h108l-6 -31h-108l-69 -356l101 66l13 -17q-39 -44 -83 -76.5t-62 -32.5q-26 0 -35 15.5t0 62.5z" />
    <glyph glyph-name=".notdef" horiz-adv-x="440" 
d="M2 0v686h437v-686h-437zM221 383l146 273h-292zM247 350l144 -269l5 1v536l-5 1zM75 44h292l-146 273zM46 618v-536l5 -1l144 269l-144 269z" />
    <glyph glyph-name=".null" horiz-adv-x="0" 
 />
    <glyph glyph-name="nonmarkingreturn" horiz-adv-x="333" 
 />
    <glyph glyph-name="space" unicode=" " horiz-adv-x="212" 
 />
    <glyph glyph-name="exclam" unicode="!" horiz-adv-x="245" 
d="M126 183h-22l47 455q2 23 15 43t38 20q36 0 36 -41q0 -14 -3 -24zM99 93q16 0 26.5 -11.5t10.5 -28.5q0 -24 -17 -42t-38 -18q-16 0 -26 11.5t-10 28.5q0 24 16.5 42t37.5 18z" />
    <glyph glyph-name="quotedbl" unicode="&#x22;" horiz-adv-x="272" 
d="M166 709q30 0 30 -29q0 -8 -3 -17l-59 -210h-26l16 214q1 15 11.5 28.5t30.5 13.5zM275 709q29 0 29 -29q0 -8 -3 -17l-59 -210h-25l15 214q1 15 12.5 28.5t30.5 13.5z" />
    <glyph glyph-name="numbersign" unicode="#" 
d="M494 406h-100l-49 -147h91l-7 -38h-97l-62 -191h-46l66 191h-139l-65 -191h-44l65 191h-99l7 38h103l51 147h-99l7 37h105l60 180h42l-58 -180h139l58 180h44l-60 -180h94zM213 406l-50 -147h137l51 147h-138z" />
    <glyph glyph-name="dollar" unicode="$" 
d="M298 734l-144 -812h-26l13 74q-55 5 -90.5 31.5t-35.5 65.5q0 32 13 46.5t31 14.5q21 0 32 -15.5t11 -37.5q0 -35 -20 -55q23 -16 64 -21l57 321q-50 32 -77.5 66.5t-27.5 84.5q0 67 45.5 112.5t115.5 55.5l13 69h26zM198 -78l144 812h26l-13 -71q48 -10 78 -34t30 -59
q0 -22 -11.5 -38.5t-30.5 -16.5q-22 0 -33.5 14.5t-11.5 35.5q0 30 20 53q-19 10 -46 14l-45 -253q59 -36 92 -74.5t33 -99.5q0 -84 -56.5 -136t-135.5 -68l-14 -79h-26zM366 181q0 62 -76 114l-47 -263q53 16 88 54t35 95zM166 509q0 -43 51 -80l36 199q-87 -28 -87 -119z
" />
    <glyph glyph-name="percent" unicode="%" horiz-adv-x="755" 
d="M266 682q108 0 108 -130q0 -56 -17 -112.5t-59 -100.5t-100 -44q-109 0 -109 130q0 58 17.5 114t59.5 99.5t100 43.5zM202 322q34 0 60.5 40.5t39 96.5t12.5 112q0 84 -54 84q-33 0 -59 -38.5t-39 -94.5t-13 -115q0 -85 53 -85zM647 720l-488 -759h-32l489 759h31z
M585 382q108 0 108 -130q0 -56 -17 -112.5t-59 -100.5t-100 -44q-109 0 -109 130q0 58 17.5 114t59.5 99.5t100 43.5zM521 22q34 0 60.5 40.5t39 96.5t12.5 112q0 84 -54 84q-33 0 -59 -38.5t-39 -94.5t-13 -115q0 -85 53 -85z" />
    <glyph glyph-name="ampersand" unicode="&#x26;" horiz-adv-x="648" 
d="M215 -20q-91 0 -137.5 37.5t-46.5 107.5q0 36 11 69.5t25 57t42 51t46.5 42.5t52.5 41q-40 57 -40 110q0 73 52 132t129 59q38 0 60.5 -22.5t22.5 -58.5q0 -57 -58 -117q-27 -28 -91 -76q24 -32 74 -78.5t92.5 -93t63.5 -93.5q71 76 71 146q0 44 -23 73.5t-71 29.5l-1 21
q35 21 66 21q43 0 64.5 -24.5t21.5 -65.5q0 -51 -32 -111t-86 -114q12 -39 12 -74q0 -59 -23.5 -109t-57.5 -80l-12 9q32 50 32 120q0 40 -13 81q-121 -91 -246 -91zM250 27q105 0 202 68q-21 49 -61.5 96t-92.5 96.5t-75 78.5q-52 -43 -80 -91.5t-28 -116.5q0 -59 32.5 -95
t102.5 -36zM241 524q0 -44 28 -90q92 80 92 164q0 52 -42 52q-36 0 -57 -41t-21 -85z" />
    <glyph glyph-name="quotesingle" unicode="'" horiz-adv-x="182" 
d="M175 709q30 0 30 -29q0 -8 -3 -17l-59 -210h-26l16 214q1 15 11.5 28.5t30.5 13.5z" />
    <glyph glyph-name="parenleft" unicode="(" horiz-adv-x="302" 
d="M348 737l11 -14q-112 -113 -174.5 -276t-62.5 -325q0 -181 77 -305l-15 -15q-129 128 -129 338q0 161 77 322.5t216 274.5z" />
    <glyph glyph-name="parenright" unicode=")" horiz-adv-x="302" 
d="M134 737q127 -140 127 -359q0 -163 -77 -319t-214 -257l-10 15q112 114 175 277t63 323q0 182 -79 306z" />
    <glyph glyph-name="asterisk" unicode="*" horiz-adv-x="371" 
d="M263 579h-19q-9 93 -8 96q2 14 14.5 22t25.5 8q14 0 22 -7.5t6 -21.5q-1 -3 -41 -97zM236 572l-10 -20q-22 0 -45 -0.5t-26 -0.5q-23 0 -29.5 7t-3.5 24q3 16 13 28t22 12q9 0 13 -3q20 -11 66 -47zM229 543l12 -11q-17 -33 -29.5 -55.5t-16 -29t-4.5 -9.5q-6 -9 -22 -9
q-14 0 -24 11.5t-7 26.5q2 14 13 21q5 5 78 55zM273 552l-3 20q55 33 83 47q8 3 12 3q14 0 20 -12t3 -28q-3 -17 -12 -24t-33 -7q-4 0 -26.5 0.5t-43.5 0.5zM251 532l17 11q57 -52 63 -60q4 -8 2 -16q-3 -15 -17.5 -26.5t-28.5 -11.5q-13 0 -16 7q-4 6 -20 96z" />
    <glyph glyph-name="plus" unicode="+" 
d="M439 270h-164l-32 -182h-45l32 182h-167l8 46h167l32 181h45l-32 -181h164z" />
    <glyph glyph-name="comma" unicode="," horiz-adv-x="200" 
d="M79 97q43 0 43 -46q0 -42 -41.5 -98t-99.5 -87l-12 17q66 61 79 114q-27 8 -27 39q0 24 18 42.5t40 18.5z" />
    <glyph glyph-name="hyphen" unicode="-" horiz-adv-x="292" 
d="M251 208h-218l10 55h218z" />
    <glyph glyph-name="period" unicode="." horiz-adv-x="189" 
d="M71 98q17 0 28.5 -12t11.5 -30q0 -25 -18 -44t-41 -19q-18 0 -29 12t-11 30q0 26 18.5 44.5t40.5 18.5z" />
    <glyph glyph-name="slash" unicode="/" horiz-adv-x="294" 
d="M380 721l-383 -763h-43l382 763h44z" />
    <glyph glyph-name="zero" unicode="0" 
d="M319 668q150 0 150 -215q0 -71 -15.5 -148t-45.5 -149.5t-84.5 -119.5t-123.5 -47q-81 0 -118 58t-37 156q0 70 16.5 147.5t48.5 150.5t87 120t122 47zM205 20q44 0 82.5 45t62.5 114.5t37.5 149.5t13.5 155q0 153 -88 153q-56 0 -102.5 -72.5t-70.5 -176.5t-24 -207
q0 -161 89 -161z" />
    <glyph glyph-name="one" unicode="1" 
d="M185 94l79 449q4 26 -7 37.5t-27.5 10.5t-30.5 1t-14 11v16l166 51l4 -4l-101 -572q-5 -27 3.5 -41t21 -16t23 -7t9.5 -15l-2 -15h-203l2 15q1 11 11.5 15.5t23 6t25 16t17.5 41.5z" />
    <glyph glyph-name="two" unicode="2" 
d="M292 668q75 0 111.5 -40t36.5 -103q0 -54 -32.5 -116.5t-88.5 -123.5t-116.5 -114t-131.5 -106v-4l321 25l5 -9l-29 -77h-392q0 1 -1 8.5t-2 11.5q73 58 120 98t103.5 96t89.5 102t55.5 101.5t22.5 109.5q0 52 -28 79.5t-73 27.5q-62 0 -103 -41q25 -22 25 -54
q0 -18 -12.5 -32t-34.5 -14q-16 0 -27.5 12t-11.5 32q0 46 56 88.5t137 42.5z" />
    <glyph glyph-name="three" unicode="3" 
d="M291 668q79 0 111.5 -36t32.5 -83q0 -59 -45.5 -112t-123.5 -72l-1 -4q62 -7 99.5 -45t37.5 -98q0 -98 -70 -163.5t-165 -65.5q-69 0 -114 32t-45 83q0 78 75 112l12 -12q-22 -44 -22 -84q0 -44 24.5 -72t71.5 -28q74 0 115 57.5t41 138.5q0 59 -30.5 89.5t-84.5 30.5
q-28 0 -63 -9l-3 28q108 28 163 69.5t55 125.5q0 41 -26.5 62.5t-66.5 21.5q-59 0 -103 -41q24 -19 24 -53q0 -20 -11.5 -33.5t-34.5 -13.5q-16 0 -27.5 12t-11.5 32q0 46 55.5 88.5t130.5 42.5z" />
    <glyph glyph-name="four" unicode="4" 
d="M384 417l4 -2l-37 -209h92l-5 -29h-92l-15 -85q-5 -27 3.5 -40.5t21.5 -15t23 -6.5t8 -17l-2 -13h-201l2 12q2 12 12.5 16.5t22.5 6t24 15t16 39.5l16 88h-262l4 27q270 361 336 457h81l4 -9q-95 -117 -214 -251t-178 -195h234l32 182z" />
    <glyph glyph-name="five" unicode="5" 
d="M485 670l4 -8l-29 -77h-253l-60 -209q66 26 114 26q70 0 113 -42t43 -120q0 -112 -73 -181.5t-167 -69.5q-70 0 -114.5 32t-44.5 83q0 78 75 112l12 -12q-22 -44 -22 -84q0 -44 24.5 -72t71.5 -28q75 0 117 71t42 151q0 61 -29.5 92t-80.5 31q-46 0 -96 -24l-20 9l86 298
z" />
    <glyph glyph-name="six" unicode="6" 
d="M303 407q57 0 92 -44.5t35 -117.5q0 -104 -70.5 -180t-165.5 -76q-76 0 -113.5 46.5t-37.5 124.5q0 87 35.5 169.5t94.5 147t129 113.5t145 79l7 -22q-158 -83 -249.5 -212.5t-91.5 -288.5q0 -129 93 -129q69 0 111 72t42 158q0 54 -23.5 88.5t-74.5 34.5q-25 0 -47 -6
l-3 21q48 22 92 22z" />
    <glyph glyph-name="seven" unicode="7" 
d="M54 -2l388 594l-323 -21l-6 8l30 81h344l9 -16l-367 -647l-71 -8z" />
    <glyph glyph-name="eight" unicode="8" 
d="M306 637q-53 0 -89 -43.5t-36 -87.5q0 -43 36.5 -78.5t82.5 -55.5q95 63 95 172q0 42 -21.5 67.5t-67.5 25.5zM205 19q65 1 106.5 52t41.5 108q0 50 -35.5 85.5t-105.5 74.5q-62 -50 -86.5 -106.5t-24.5 -101.5q0 -53 27.5 -82.5t76.5 -29.5zM315 668q68 0 107.5 -34
t39.5 -93q0 -58 -39 -109t-97 -74q100 -65 100 -157q0 -85 -65 -148.5t-165 -63.5q-75 0 -118 38.5t-43 102.5q0 60 40 122.5t114 100.5q-79 51 -79 129q0 81 59 133.5t146 52.5z" />
    <glyph glyph-name="nine" unicode="9" 
d="M316 668q76 0 113.5 -45.5t37.5 -121.5q0 -87 -35.5 -170t-94.5 -147.5t-129 -114t-146 -80.5l-9 22q156 81 250.5 211.5t94.5 287.5q0 130 -95 130q-69 0 -110.5 -72t-41.5 -157q0 -52 24 -85.5t75 -33.5q21 0 48 6q1 -7 1 -21q-49 -23 -93 -23q-54 0 -89.5 43
t-35.5 112q0 109 69.5 184t165.5 75z" />
    <glyph glyph-name="colon" unicode=":" horiz-adv-x="189" 
d="M71 98q17 0 28.5 -12t11.5 -30q0 -25 -18 -44t-41 -19q-18 0 -29 12t-11 30q0 26 18.5 44.5t40.5 18.5zM123 394q18 0 29.5 -12t11.5 -31q0 -25 -18.5 -43.5t-41.5 -18.5q-18 0 -28.5 12t-10.5 30q0 25 17.5 44t40.5 19z" />
    <glyph glyph-name="semicolon" unicode=";" horiz-adv-x="201" 
d="M136 394q18 0 29 -12t11 -31q0 -25 -18 -43.5t-41 -18.5q-18 0 -28.5 12t-10.5 30q0 25 17.5 44t40.5 19zM80 97q18 0 30 -12.5t12 -33.5q0 -42 -41.5 -98t-99.5 -87l-12 19q66 61 79 112q-27 8 -27 39q0 25 18 43t41 18z" />
    <glyph glyph-name="less" unicode="&#x3c;" 
d="M406 74l-351 195l5 31l420 195l-9 -50l-351 -159l295 -158z" />
    <glyph glyph-name="equal" unicode="=" 
d="M450 337h-373l8 47h373zM426 200h-373l8 46h373z" />
    <glyph glyph-name="greater" unicode="&#x3e;" 
d="M440 269l-419 -195l9 54l351 158l-295 159l9 50l350 -195z" />
    <glyph glyph-name="question" unicode="?" horiz-adv-x="460" 
d="M466 594q0 -39 -27.5 -76.5t-67 -67.5t-78.5 -58.5t-66.5 -60.5t-27.5 -63q0 -41 33 -82l-18 -20q-38 20 -62 50.5t-24 65.5q0 31 26 64t63.5 62l75 58t63.5 61t26 62q0 36 -24.5 52.5t-62.5 16.5q-32 0 -65 -10q5 -13 5 -31q0 -30 -17 -53t-47 -23q-16 0 -28 11.5
t-12 29.5q0 57 53.5 85.5t130.5 28.5q64 0 107.5 -24t43.5 -78zM186 93q17 0 27 -11t10 -29q0 -24 -16.5 -42t-38.5 -18q-16 0 -25.5 11t-9.5 28q0 24 16 42.5t37 18.5z" />
    <glyph glyph-name="at" unicode="@" horiz-adv-x="902" 
d="M473 508q64 0 111 -44l46 42h18q-37 -152 -75 -376q74 0 129 45t79.5 105t24.5 123q0 105 -67.5 177t-201.5 72q-119 0 -216 -66.5t-149.5 -174.5t-52.5 -232q0 -132 71 -208t195 -76q59 0 126 18l3 -27q-66 -27 -149 -27q-136 0 -218.5 91t-82.5 235q0 134 65 250
t175.5 183.5t237.5 67.5q136 0 222.5 -72.5t86.5 -203.5q0 -129 -80.5 -222.5t-199.5 -93.5q-60 0 -60 41q0 28 22 110h-4q-69 -146 -161 -146q-104 0 -104 137q0 63 23 123.5t72 104.5t114 44zM389 139q44 0 97.5 78.5t73.5 179.5l8 42q-41 38 -85 38q-65 0 -108.5 -71.5
t-43.5 -174.5q0 -92 58 -92z" />
    <glyph glyph-name="A" unicode="A" horiz-adv-x="627" 
d="M164 215l-50 -97q-20 -37 -14.5 -55.5t20 -23t29 -10t12.5 -15.5l-2 -14h-199l2 13q2 11 13.5 16.5t26.5 9.5t36.5 23.5t39.5 52.5l300 564h26l111 -568q6 -33 20 -51.5t26.5 -21.5t21.5 -9.5t8 -19.5l-1 -9h-215l1 12q1 11 13.5 16t26.5 7.5t22.5 19t2.5 47.5l-21 113
h-256zM357 574h-4l-173 -329h233l-27 136q-24 127 -29 193z" />
    <glyph glyph-name="B" unicode="B" horiz-adv-x="586" 
d="M255 642l-46 -258h89q18 0 38.5 2.5t48.5 12.5t49 26t36.5 45.5t15.5 68.5q0 54 -44 78.5t-100 24.5h-87zM284 0h-292l2 15q1 10 13.5 15t27.5 7t29.5 17.5t19.5 45.5l84 474q5 28 -5 43t-25.5 17.5t-27 8t-9.5 16.5l3 15h261q96 0 148.5 -41t52.5 -97q0 -74 -60 -117
t-127 -46v-4q80 -4 124 -51t44 -111q0 -74 -71 -140.5t-192 -66.5zM204 353l-40 -226q-5 -32 -5.5 -53t15 -31.5t52.5 -10.5h24q52 0 98.5 18t81 62.5t34.5 109.5q0 40 -17 68t-44 40.5t-51 17.5t-49 5h-99z" />
    <glyph glyph-name="C" unicode="C" horiz-adv-x="623" 
d="M426 683q94 0 168 -54l32 54h17l-38 -221h-9q-13 0 -18.5 19.5t-10.5 47t-16 55.5t-42.5 47.5t-82.5 19.5q-88 0 -153 -57t-97 -147t-32 -199q0 -103 42.5 -165t129.5 -62q53 0 94 16t62.5 40t38 52t25 52t19 40t23.5 16h9l-43 -243h-18l-17 59q-93 -63 -201 -63
q-118 0 -185.5 76.5t-67.5 196.5q0 177 106.5 298.5t264.5 121.5z" />
    <glyph glyph-name="D" unicode="D" horiz-adv-x="656" 
d="M235 0h-245l2 15q2 11 14.5 16t27 7t29 17t19.5 45l84 474q5 29 -5 44t-25 17t-27.5 7t-11.5 16l2 16h226q150 0 233 -67.5t83 -206.5q0 -40 -10 -87t-39 -104t-72 -102.5t-117.5 -76t-167.5 -30.5zM252 642l-97 -546q-1 -6 -1 -18q0 -46 62 -46h34q47 0 96.5 19.5t99 61
t81.5 120.5t32 184q0 109 -66 167t-186 58h-55z" />
    <glyph glyph-name="E" unicode="E" horiz-adv-x="586" 
d="M222 32h94q73 0 117 39t101 138q14 25 27 21l12 -3l-86 -224l-7 -7q-142 4 -485 4l2 15q2 11 14.5 16t27 7t29 17t19.5 45l84 474q5 29 -5 44t-25 17t-27 7t-11 16l2 16q329 0 473 8l3 -5l-13 -173l-9 -1q-17 -1 -21 16q-20 86 -41 104.5t-91 18.5h-149l-48 -272h104
q35 0 57 17.5t28.5 38t14.5 38t19 17.5h10l-46 -265h-7q-12 0 -16 19t-4 42t-14.5 42t-46.5 19h-105l-42 -241q-6 -33 7 -49t54 -16z" />
    <glyph glyph-name="F" unicode="F" horiz-adv-x="541" 
d="M205 325l-43 -237q-4 -25 7.5 -37.5t28 -14t30 -6.5t11.5 -18l-2 -12h-242l2 12q2 12 15 17.5t27.5 7.5t29 15t18.5 38l87 484q5 29 -5 44t-25 17t-27 7t-11 16l2 16q341 0 485 8l3 -5l-13 -173l-9 -1q-17 -1 -21 16q-20 86 -41 104.5t-91 18.5h-161l-49 -285h127
q35 0 57 17.5t28.5 38t14.5 38t19 17.5h10l-45 -266h-7q-12 0 -16 19t-4.5 42.5t-15 42.5t-46.5 19h-128z" />
    <glyph glyph-name="G" unicode="G" horiz-adv-x="682" 
d="M545 25l-33 28q-102 -63 -205 -63q-120 0 -186 74t-66 197q0 175 106 298.5t266 123.5q101 0 175 -55l36 55h17l-38 -216h-7q-10 0 -14 8t-9 32q-14 73 -48 108.5t-113 35.5q-131 0 -206.5 -116t-75.5 -289q0 -103 41.5 -164t129.5 -61q105 0 189 92l20 111q4 20 -8.5 32
t-29 15t-30 9.5t-11.5 17.5l3 14h231l-3 -15q-2 -10 -13.5 -15t-25.5 -7.5t-27.5 -16t-17.5 -37.5l-33 -190z" />
    <glyph glyph-name="H" unicode="H" horiz-adv-x="696" 
d="M650 585l-88 -497q-4 -25 7 -37t27 -13t28.5 -6.5t10.5 -19.5l-2 -12h-235l2 12q2 12 14.5 18t26.5 8t28 15t18 37l45 248h-329l-45 -250q-4 -25 7 -37.5t27 -14t28.5 -6.5t10.5 -18l-2 -12h-239l2 12q2 12 15 17.5t28 7.5t30 15t19 38l87 492q4 24 -6 37t-25 15.5
t-26.5 8.5t-9.5 18l2 12h241l-2 -12q-2 -12 -16.5 -18t-31 -8t-32.5 -14.5t-20 -36.5l-37 -214h329l37 213q4 24 -6 37t-24.5 15t-26 8t-9.5 18l2 12h241l-2 -12q-2 -12 -16.5 -18t-31 -8t-32 -14t-19.5 -36z" />
    <glyph glyph-name="I" unicode="I" horiz-adv-x="330" 
d="M263 584l-87 -496q-4 -25 7 -37.5t27 -14t28.5 -6.5t10.5 -18l-2 -12h-242l2 12q2 12 15.5 17.5t29 7.5t30.5 15t19 38l87 492q4 24 -6.5 37t-25.5 15.5t-27 8.5t-10 18l2 12h244l-2 -12q-2 -12 -16.5 -18t-31 -8t-32.5 -14.5t-20 -36.5z" />
    <glyph glyph-name="J" unicode="J" horiz-adv-x="320" 
d="M264 586l-87 -499q-15 -84 -68 -159q-100 -135 -187 -135q-32 0 -48 16.5t-16 36.5q0 21 13.5 36.5t40.5 15.5q25 0 44.5 -18.5t21.5 -44.5q56 40 82 100t49 192l80 457q4 24 -6.5 37.5t-25.5 16t-27.5 8.5t-10.5 17l2 12h246l-2 -12q-2 -12 -17 -18t-31.5 -8
t-32.5 -14.5t-20 -36.5z" />
    <glyph glyph-name="K" unicode="K" horiz-adv-x="628" 
d="M245 584l-38 -213h111l196 210q23 23 19.5 35t-18 14.5t-28.5 10t-12 20.5l2 13h221l-1 -9q-3 -15 -16.5 -22t-32.5 -10t-53 -23.5t-68 -56.5l-173 -182l136 -265q15 -30 36.5 -47t37.5 -20.5t27 -9t10 -16.5l-1 -13h-241l1 13q2 16 24 22.5t32 13t-6 46.5l-125 241h-84
l-43 -248q-4 -25 7 -37.5t27 -14t28.5 -6.5t10.5 -18l-2 -12h-234l2 12q2 14 14.5 19t26 6t27 13.5t18.5 39.5l87 492q4 24 -6 37t-24.5 15.5t-26 8.5t-9.5 18l2 12h236l-2 -12q-2 -14 -16 -20.5t-29.5 -7.5t-30.5 -13t-19 -36z" />
    <glyph glyph-name="L" unicode="L" horiz-adv-x="583" 
d="M224 32h103q38 0 65.5 9.5t53.5 36.5t45 56.5t52 86.5q11 20 26 17l9 -2l-88 -233l-7 -7q-142 4 -324 4h-164l2 15q2 11 15 16t27.5 7t29.5 17t20 45l85 482q4 24 -6.5 37t-25.5 15.5t-26.5 8.5t-9.5 18l2 12h243l-2 -12q-2 -12 -16.5 -18t-31 -8t-32 -14.5t-19.5 -36.5
l-86 -487q-6 -33 6.5 -49t53.5 -16z" />
    <glyph glyph-name="M" unicode="M" horiz-adv-x="837" 
d="M708 674h169l-3 -18q-2 -10 -16.5 -15t-32 -8.5t-34 -23t-20.5 -55.5l-56 -462q-3 -27 8 -40.5t26.5 -14.5t27 -6.5t9.5 -18.5l-2 -12h-234l2 12q2 13 16 19t29 8.5t29 15t17 37.5l62 504h-4l-310 -604h-34l-95 477q-22 107 -25 133h-4l-113 -509q-5 -25 6 -38t28 -15
t30 -8t11 -19l-2 -13h-203l2 13q2 12 15.5 19t29 9.5t31.5 16t21 37.5l102 457q8 35 -1.5 54.5t-25 23.5t-28 10t-10.5 17l3 17h174l88 -462q14 -69 15 -116h6z" />
    <glyph glyph-name="N" unicode="N" horiz-adv-x="696" 
d="M265 674l238 -459q17 -32 34 -84h4l79 449q4 24 -8.5 36.5t-29.5 15t-30.5 9t-11.5 19.5l2 13h209l-2 -13q-2 -14 -16 -20.5t-30.5 -8t-32 -15t-19.5 -38.5l-103 -585l-28 -7l-275 530q-18 35 -33 78h-5l-88 -500q-4 -26 8 -39t29.5 -15.5t31 -8t11.5 -18.5l-2 -13h-207
l2 13q2 12 16 19t30 10t31.5 16.5t19.5 37.5l82 463q6 32 -4 49.5t-25.5 21t-27.5 9.5t-10 18l3 17h158z" />
    <glyph glyph-name="O" unicode="O" horiz-adv-x="687" 
d="M423 682q118 0 183.5 -75t65.5 -194q0 -170 -110 -297t-261 -127q-120 0 -183 72t-63 191q0 112 48.5 211t134 159t185.5 60zM417 650q-70 0 -126 -41.5t-88.5 -106.5t-49 -134.5t-16.5 -134.5q0 -95 41 -154t132 -59q70 0 125.5 40t88 102.5t49 132t16.5 137.5
q0 97 -40.5 157.5t-131.5 60.5z" />
    <glyph glyph-name="P" unicode="P" horiz-adv-x="535" 
d="M260 643l-57 -324q33 -9 79 -9q81 0 140.5 53t59.5 143q0 73 -48.5 105t-115.5 32h-58zM107 674h236q103 0 162.5 -46t59.5 -123q0 -58 -27 -103.5t-70 -70t-89.5 -37t-93.5 -12.5q-43 0 -88 8l-36 -202q-4 -25 7.5 -37.5t28 -14t30 -6.5t11.5 -18l-2 -12h-246l2 12
q2 12 15.5 17.5t29 7t30.5 14.5t19 39l86 484q5 28 -5 43t-25.5 18t-27.5 8.5t-10 15.5z" />
    <glyph glyph-name="Q" unicode="Q" horiz-adv-x="687" 
d="M416 651q-70 0 -126.5 -42t-88 -107t-48 -134.5t-16.5 -134.5q0 -96 40 -154.5t132 -58.5q56 0 104 27t79.5 70t54 98t32.5 110.5t10 108.5q0 96 -41 156.5t-132 60.5zM422 683q117 0 183 -75t66 -193q0 -155 -95 -281t-239 -143v-4q53 -4 86 -21t85 -61q23 -20 52 -20
q20 0 37 3l4 -23q-55 -28 -111 -28q-26 0 -48 17q-39 29 -83.5 65.5t-65.5 52t-42 22.5q-96 14 -146.5 83.5t-50.5 174.5q0 172 108 301.5t260 129.5z" />
    <glyph glyph-name="R" unicode="R" horiz-adv-x="562" 
d="M256 643l-53 -300h74q88 0 143 45.5t55 132.5q0 64 -42 93t-105 29h-72zM108 674h236q102 0 155 -40t53 -113q0 -86 -70.5 -147t-201.5 -61h-20q21 -35 72 -37l83 -170q17 -36 38 -51q14 -10 30.5 -16t26.5 -7t16.5 -5t4.5 -14l-2 -13h-139l-163 313h-29l-40 -225
q-4 -24 7.5 -36t28 -13.5t29.5 -7.5t11 -19l-2 -12h-242l2 12q2 12 15.5 18.5t28.5 8.5t29.5 14.5t18.5 36.5l87 493q4 24 -5.5 37t-24 15.5t-26 8.5t-9.5 18z" />
    <glyph glyph-name="S" unicode="S" horiz-adv-x="497" 
d="M321 683q71 0 121.5 -29.5t50.5 -76.5q0 -23 -12 -40t-35 -17q-25 0 -38.5 17t-13.5 42q0 32 17 53q-41 18 -88 18q-58 0 -105.5 -31t-47.5 -94q0 -35 30.5 -64.5t73.5 -52t86 -47.5t73.5 -64.5t30.5 -88.5q0 -57 -25 -100.5t-66 -68t-87.5 -37t-94.5 -12.5
q-78 0 -132 30t-54 77q0 30 14.5 44t34.5 14q22 0 36 -16t14 -41q0 -32 -17 -55q39 -23 109 -23q75 0 134 40t59 115q0 43 -30.5 77t-73.5 57.5t-86 46.5t-73.5 57.5t-30.5 78.5q0 92 66.5 141.5t159.5 49.5z" />
    <glyph glyph-name="T" unicode="T" horiz-adv-x="583" 
d="M102 677l12 6q88 -9 252 -9q159 0 258 9l9 -6l-14 -185l-8 -1q-15 -1 -19 16q-9 42 -14 60t-13.5 37.5t-21.5 25t-31.5 9.5t-49.5 4h-62l-98 -555q-4 -24 7 -36t26.5 -13.5t28 -7.5t10.5 -19l-2 -12h-240l2 12q2 12 15.5 18.5t28.5 8.5t29.5 14.5t18.5 36.5l98 553h-62
q-74 0 -101.5 -21.5t-76.5 -114.5q-11 -21 -26 -17l-8 2z" />
    <glyph glyph-name="U" unicode="U" horiz-adv-x="692" 
d="M651 581l-56 -315q-24 -134 -98.5 -205.5t-184.5 -71.5q-114 0 -171 60t-34 191l61 342q4 24 -6 37t-24.5 15.5t-26 8.5t-9.5 18l2 12h242l-2 -12q-2 -12 -16.5 -18t-31 -8t-32.5 -14.5t-20 -36.5l-58 -324q-19 -111 12.5 -173t135.5 -62q89 0 150 64t82 187l54 303
q4 24 -7.5 37.5t-28 16.5t-29.5 9.5t-11 18.5l2 12h206l-2 -12q-2 -12 -16.5 -18t-31 -8t-32 -15t-19.5 -39z" />
    <glyph glyph-name="V" unicode="V" horiz-adv-x="605" 
d="M301 96h4l239 460q20 37 15 55t-19 22t-27.5 10t-11.5 19l2 12h192l-2 -12q-2 -11 -13 -16.5t-25.5 -9t-35.5 -23.5t-39 -54l-299 -566h-27l-108 572q-6 32 -21 50t-29 21t-23.5 10t-6.5 21l1 7h220l-1 -10q-1 -14 -13.5 -20.5t-25.5 -8t-21 -16t-3 -43.5l52 -285
q19 -100 26 -195z" />
    <glyph glyph-name="W" unicode="W" horiz-adv-x="871" 
d="M492 524h-5l-246 -533h-29l-65 565q-4 35 -18 54.5t-28.5 23t-25 10t-9.5 20.5l1 10h222l-2 -11q-2 -13 -14 -19t-24.5 -7.5t-20.5 -17t-5 -45.5l29 -249q13 -100 14 -206h4l247 537h27l51 -340q11 -70 24 -189h4l191 436q15 34 9.5 51t-19.5 21t-26.5 9.5t-10.5 16.5
l2 13h192l-2 -13q-2 -11 -14 -16t-27.5 -8.5t-36 -22.5t-36.5 -55l-249 -566h-29l-49 317q-21 130 -26 214z" />
    <glyph glyph-name="X" unicode="X" horiz-adv-x="586" 
d="M360 132l-69 174l-128 -162q-32 -40 -42.5 -64.5t-3.5 -33.5t19 -12.5t22.5 -8.5t9.5 -16l-1 -9h-202l1 9q2 13 11.5 18t25.5 9t52 34.5t81 85.5l144 176l-87 206q-17 41 -38.5 65t-36 29.5t-23.5 12.5t-6 19l2 10h222l-2 -12q-2 -13 -16.5 -19t-25 -9t-13.5 -25t17 -67
l60 -147l105 135q30 38 39 61t1.5 31.5t-19 12.5t-21.5 10t-8 18l2 11h214l-2 -10q-3 -15 -15 -21.5t-29.5 -9.5t-52.5 -29.5t-74 -75.5l-129 -161l88 -212q17 -42 37.5 -68.5t36 -36t29 -14.5t19.5 -9.5t4 -15.5l-2 -11h-247l1 11q1 12 16 18.5t28.5 11.5t18.5 26.5
t-13 64.5z" />
    <glyph glyph-name="Y" unicode="Y" horiz-adv-x="540" 
d="M303 340h6l128 190q30 46 33 69q3 17 -5 27t-18.5 13t-19.5 8.5t-7 13.5l2 13h198l-2 -12q-2 -12 -13.5 -18t-27.5 -10.5t-43 -27t-53 -61.5l-163 -242l-38 -215q-4 -25 7 -37t27 -13.5t28.5 -7t10.5 -18.5l-2 -12h-242l2 12q2 12 15.5 18t29 7.5t30.5 14.5t19 38l37 208
l-90 265q-10 29 -26 47t-28.5 23t-20.5 12t-6 20l1 9h218l-2 -12q-2 -14 -30.5 -24t-31.5 -29q-2 -13 6 -37l45 -137q16 -48 26 -95z" />
    <glyph glyph-name="Z" unicode="Z" horiz-adv-x="573" 
d="M503 642h-197q-71 0 -103 -23t-75 -112q-10 -21 -24 -17l-9 2l53 186l10 5q69 -9 189 -9h256l-5 -28l-501 -614h231q36 0 63.5 11t52.5 38.5t44 56.5t49 83q11 19 25 17l10 -2l-89 -233l-8 -7q-100 4 -260 4h-225l4 27z" />
    <glyph glyph-name="bracketleft" unicode="[" horiz-adv-x="247" 
d="M-5 -189l162 918h148l-6 -32h-82l-150 -855h82l-6 -31h-148z" />
    <glyph glyph-name="backslash" unicode="\" horiz-adv-x="294" 
d="M218 -71l-197 814h42l197 -814h-42z" />
    <glyph glyph-name="bracketright" unicode="]" horiz-adv-x="247" 
d="M268 729l-162 -918h-147l5 31h82l150 855h-82l6 32h148z" />
    <glyph glyph-name="asciicircum" unicode="^" horiz-adv-x="511" 
d="M470 365h-53l-92 268l-183 -268h-54l225 325h47z" />
    <glyph glyph-name="underscore" unicode="_" horiz-adv-x="460" 
d="M398 -120h-459l8 42h459z" />
    <glyph glyph-name="grave" unicode="`" horiz-adv-x="445" 
d="M351 539l-7 -21q-74 15 -123.5 50.5t-49.5 60.5q0 14 9.5 26t24.5 12q16 0 31.5 -17.5t45.5 -51t69 -59.5z" />
    <glyph glyph-name="a" unicode="a" horiz-adv-x="515" 
d="M176 34q50 0 110 88t82 202l9 47q-46 43 -96 43q-72 0 -121.5 -81t-49.5 -196q0 -103 66 -103zM152 -11q-117 0 -117 154q0 52 15.5 105t44 98.5t74.5 74t101 28.5q72 0 125 -49l52 47h20q-48 -162 -81 -399l86 53l13 -17q-89 -94 -126 -94q-42 0 -42 42q0 51 20 121h-4
q-77 -164 -181 -164z" />
    <glyph glyph-name="b" unicode="b" horiz-adv-x="486" 
d="M204 25q72 0 122.5 84t50.5 193q0 100 -69 100q-51 0 -108.5 -75t-85.5 -197l-14 -62q43 -43 104 -43zM18 -8l122 621q6 25 0.5 35.5t-29.5 17.5q-4 1 -9.5 2.5t-8.5 2t-7 1.5t-5.5 2t-4.5 2t-4 2l-2.5 2.5t-1.5 3t-0.5 4t0.5 4.5l2 10l154 22l3 -4l-61 -311
q-15 -77 -36 -138h4q44 97 97.5 137.5t98.5 40.5q55 0 88 -39.5t33 -114.5q0 -69 -26.5 -137.5t-82 -118.5t-126.5 -50q-75 0 -129 50l-55 -47h-14z" />
    <glyph glyph-name="c" unicode="c" horiz-adv-x="406" 
d="M292 450q53 0 79.5 -19.5t26.5 -48.5q0 -17 -12.5 -28t-27.5 -11q-28 0 -42.5 18.5t-14.5 43.5q0 9 1 14q-49 0 -88 -27.5t-61 -70t-33 -86.5t-11 -83q0 -118 99 -118q63 0 145 73l16 -15q-87 -103 -192 -103q-66 0 -104 43t-38 117q0 124 69.5 212.5t187.5 88.5z" />
    <glyph glyph-name="d" unicode="d" horiz-adv-x="514" 
d="M281 416q-72 0 -121.5 -81.5t-49.5 -197.5q0 -103 66 -103q50 0 109.5 87t82.5 205l11 54q-39 36 -98 36zM389 415l38 198q6 25 0.5 35.5t-29.5 17.5q-4 1 -9.5 2.5t-8.5 2t-7 1.5t-5.5 2t-4.5 2t-4 2l-2.5 2.5t-1.5 3t-0.5 4t0.5 4.5l2 10l154 22l3 -4l-53 -271
q-69 -353 -75 -400l86 53l13 -17q-89 -94 -126 -94q-42 0 -42 42q0 50 20 120h-4q-77 -164 -181 -164q-117 0 -117 154q0 52 15.5 105t44 98.5t74.5 74t101 28.5q75 0 119 -34z" />
    <glyph glyph-name="e" unicode="e" horiz-adv-x="414" 
d="M178 -11q-67 0 -105 40.5t-38 114.5q0 53 15 104.5t44 97.5t79 74.5t113 28.5q50 0 79 -24.5t29 -68.5q0 -62 -80.5 -107t-202.5 -66q-10 -69 17 -108t81 -39q65 0 145 71l16 -15q-87 -103 -192 -103zM114 214q79 8 141 49.5t62 95.5q0 28 -13.5 42.5t-35.5 14.5
q-47 0 -93 -57t-61 -145z" />
    <glyph glyph-name="f" unicode="f" horiz-adv-x="265" 
d="M-71 -212q-27 0 -45.5 14.5t-18.5 34.5q0 19 13 30.5t31 11.5q21 0 38.5 -16t21.5 -46q50 21 74 158q45 259 80 431h-91l5 19l92 10q30 138 90.5 223t128.5 85q25 0 41 -12t16 -30q0 -20 -14 -31t-34 -11q-18 0 -36 12t-26 34q-52 -43 -84 -213l-11 -57h108l-6 -29h-108
q-46 -274 -79.5 -387t-71.5 -164q-51 -67 -114 -67z" />
    <glyph glyph-name="g" unicode="g" horiz-adv-x="427" 
d="M54 244q0 91 55 148t134 57q43 0 83 -17q56 57 102 57q20 0 32 -9.5t12 -25.5q0 -17 -11.5 -26.5t-27.5 -9.5q-34 0 -43 32q-27 -8 -50 -27q46 -36 46 -106q0 -82 -56 -138t-142 -56q-37 0 -71 14q-41 -26 -41 -49q0 -14 30.5 -18.5t73.5 -6t86 -7t73.5 -28t30.5 -63.5
q0 -64 -66.5 -120.5t-177.5 -56.5q-50 0 -86.5 12t-53.5 31.5t-24 38t-7 36.5q0 39 20 57t40 18q33 0 33 -34q0 -20 -15 -38t-41 -24q27 -66 133 -66q61 0 115.5 37.5t54.5 93.5q0 37 -44.5 54.5t-98.5 19t-98.5 11t-44.5 32.5q0 18 24 40t67 39q-46 31 -46 98zM249 419
q-53 0 -88.5 -53t-35.5 -124q0 -41 18 -65.5t54 -24.5q51 0 85.5 56.5t34.5 123.5q0 87 -68 87z" />
    <glyph glyph-name="h" unicode="h" horiz-adv-x="466" 
d="M18 0l117 613q6 25 0.5 35.5t-29.5 17.5q-4 1 -9.5 2.5t-8.5 2t-7 1.5t-5.5 2t-4.5 2t-4 2l-2.5 2.5t-1.5 3t-0.5 4t0.5 4.5l2 10l154 22l3 -4l-57 -291q-19 -96 -44 -181h4q34 92 91.5 146.5t110.5 54.5q104 0 104 -140q0 -70 -28 -144t-78 -125t-105 -51
q-32 0 -49 15.5t-17 39.5q0 17 10.5 29t28.5 12q20 0 33 -16t13 -48v-8q59 26 89.5 128t30.5 184q0 75 -52 75q-59 0 -117.5 -83t-79.5 -198l-22 -119h-70z" />
    <glyph glyph-name="i" unicode="i" horiz-adv-x="266" 
d="M103 -11q17 0 53.5 27.5t75.5 68.5l-13 17l-85 -53l61 303q7 33 7 52q0 47 -44 47q-41 0 -128 -102l15 -17l89 62l-63 -327q-5 -28 -5 -42q0 -21 9 -28.5t28 -7.5zM152 620q0 20 14 33.5t33 13.5t33 -13.5t14 -33.5t-14 -33.5t-33 -13.5t-33 13.5t-14 33.5z" />
    <glyph glyph-name="j" unicode="j" horiz-adv-x="223" 
d="M187 352l-59 -296q-8 -41 -21 -80.5t-34 -85.5t-53.5 -74t-70.5 -28q-22 0 -41 11.5t-19 31.5t13 31.5t31 11.5q20 0 36 -14t19 -39q33 18 53 121l85 452l-89 -62l-15 17q87 102 128 102q35 0 42 -28.5t-5 -70.5zM144 620q0 20 14 33.5t33 13.5t33 -13.5t14 -33.5
t-14 -33.5t-33 -13.5t-33 13.5t-14 33.5z" />
    <glyph glyph-name="k" unicode="k" horiz-adv-x="437" 
d="M18 0l117 613q6 25 0.5 35.5t-29.5 17.5q-4 1 -9.5 2.5t-8.5 2t-7 1.5t-5.5 2t-4.5 2t-4 2l-2.5 2.5t-1.5 3t-0.5 4t0.5 4.5l2 10l154 22l3 -4l-63 -324q-22 -116 -40 -163h4q30 87 94.5 151.5t129.5 64.5q31 0 50.5 -20.5t19.5 -52.5q0 -23 -13 -45t-30 -37.5
t-44.5 -32.5t-46 -26t-44.5 -20q5 -53 27 -99t48 -76l86 61l13 -16q-79 -96 -121 -96q-31 0 -58.5 40.5t-41.5 88.5t-18 90q99 51 135.5 80t36.5 60q0 18 -11 29.5t-32 11.5q-38 0 -83 -54.5t-75.5 -121t-39.5 -115.5l-18 -98h-69z" />
    <glyph glyph-name="l" unicode="l" horiz-adv-x="214" 
d="M222 720l-129 -671l85 53l13 -17q-39 -41 -75.5 -68.5t-53.5 -27.5q-26 0 -33 14t1 64l105 546q6 25 0.5 35.5t-29.5 17.5q-4 1 -9.5 2.5t-8.5 2t-7 1.5t-5.5 2t-4.5 2t-4 2l-2.5 2.5t-1.5 3t-0.5 4t0.5 4.5l2 10l154 22z" />
    <glyph glyph-name="m" unicode="m" horiz-adv-x="726" 
d="M357 449q36 0 54.5 -19.5t18.5 -53.5q0 -41 -28 -130h4q42 105 93 154t89 49q36 0 54.5 -19.5t18.5 -53.5q0 -28 -7 -59l-58 -268l87 53l13 -17q-39 -41 -75.5 -68.5t-53.5 -27.5q-40 0 -40 35q0 14 4 30l48 218q11 46 11 73q0 49 -39 49q-46 0 -102 -110.5t-82 -235.5
l-10 -48h-67l58 272q11 46 11 73q0 49 -39 49q-46 0 -103.5 -109.5t-80.5 -231.5l-10 -53h-67l75 394l-89 -62l-15 17q87 102 128 102q44 0 44 -47q0 -50 -39 -176h4q48 123 98.5 172t91.5 49z" />
    <glyph glyph-name="n" unicode="n" horiz-adv-x="511" 
d="M202 404q0 -59 -39 -185h4q25 65 55.5 113t59 72t51 34.5t40.5 10.5q73 0 73 -73q0 -28 -7 -59l-58 -268l87 53l13 -17q-39 -41 -75.5 -68.5t-53.5 -27.5q-40 0 -40 35q0 14 4 30l48 218q11 46 11 73q0 49 -39 49q-31 0 -72.5 -52t-77 -132t-50.5 -157l-10 -53h-67
l75 394l-89 -62l-15 17q87 102 128 102q44 0 44 -47z" />
    <glyph glyph-name="o" unicode="o" horiz-adv-x="472" 
d="M274 449q77 0 120 -48t43 -125q0 -113 -76 -200t-177 -87q-149 0 -149 174q0 115 69.5 200.5t169.5 85.5zM268 418q-50 0 -88 -46.5t-55 -108t-17 -121.5q0 -123 84 -123q54 0 95.5 49t59 109.5t17.5 114.5q0 126 -96 126z" />
    <glyph glyph-name="p" unicode="p" horiz-adv-x="502" 
d="M188 405q0 -39 -23 -120h4q77 164 181 164q117 0 117 -154q0 -52 -15.5 -105t-44 -98.5t-74.5 -74t-101 -28.5q-75 0 -119 34l-26 -133q-4 -22 3.5 -35t22 -17t29 -6t24.5 -6.5t8 -14.5l-2 -13h-247l2 14q1 10 14.5 15t29.5 7.5t31.5 17t20.5 40.5l97 502l-89 -62l-15 17
q87 102 128 102q44 0 44 -46zM221 22q72 0 121.5 81.5t49.5 197.5q0 103 -66 103q-51 0 -109.5 -83t-82.5 -207l-11 -56q39 -36 98 -36z" />
    <glyph glyph-name="q" unicode="q" horiz-adv-x="488" 
d="M282 413q-72 0 -122.5 -84t-50.5 -193q0 -100 69 -100q51 0 108.5 75t85.5 197l14 62q-43 43 -104 43zM293 -108l27 137q9 48 41 151h-4q-43 -103 -99 -147t-102 -44q-55 0 -88 39.5t-33 114.5q0 69 26.5 137.5t82 118.5t126.5 50q75 0 129 -50l55 47h14l-111 -556
q-5 -26 7 -40t29.5 -16.5t32 -7t13.5 -14.5l-2 -14h-252l2 14q1 10 16 15t33 7.5t35 17t22 40.5z" />
    <glyph glyph-name="r" unicode="r" horiz-adv-x="368" 
d="M306 398q-36 -18 -93 -134.5t-80 -229.5l-7 -34h-67l75 394l-89 -62l-15 17q87 102 128 102q44 0 44 -47q0 -55 -49 -214h4q23 68 47.5 117.5t44 75.5t40.5 41t34.5 18.5t29.5 3.5q22 0 38.5 -12t16.5 -31q0 -20 -15 -32t-35 -12q-44 0 -52 39z" />
    <glyph glyph-name="s" unicode="s" horiz-adv-x="363" 
d="M136 -11q-58 0 -94.5 23t-36.5 60q0 23 12 34.5t27 11.5q40 0 40 -44q0 -28 -16 -46q28 -13 71 -13q50 0 79.5 26.5t29.5 63.5q0 24 -19 45t-46 37t-54.5 33t-46.5 41.5t-19 53.5q0 61 45 97.5t112 36.5q50 0 86.5 -23t36.5 -62q0 -20 -12 -31.5t-27 -11.5
q-19 0 -30.5 13t-11.5 29q0 26 17 48q-23 10 -53 10q-38 0 -65.5 -21.5t-27.5 -60.5q0 -22 19 -42t45.5 -36t53.5 -33.5t46 -42.5t19 -55q0 -57 -51.5 -99t-128.5 -42z" />
    <glyph glyph-name="t" unicode="t" horiz-adv-x="251" 
d="M40 67l65 338h-70l5 24q58 8 88 37t55 95h20l-25 -125h108l-6 -31h-108l-69 -356l101 66l13 -17q-39 -44 -83 -76.5t-62 -32.5q-26 0 -33 14t1 64z" />
    <glyph glyph-name="u" unicode="u" horiz-adv-x="505" 
d="M443 440l6 -6l-73 -385l86 53l13 -17q-89 -94 -126 -94q-42 0 -42 42q0 45 19 112l18 64h-4q-48 -123 -101 -172.5t-95 -49.5q-73 0 -73 73q0 28 7 59l56 275l-89 -62l-15 17q38 44 74 73t57 29q43 0 43 -38q0 -12 -8 -52l-43 -197q-11 -44 -11 -73q0 -49 39 -49
q44 0 105.5 114.5t85.5 226.5l11 53z" />
    <glyph glyph-name="v" unicode="v" horiz-adv-x="427" 
d="M122 449q21 0 33 -12t14.5 -23t4.5 -31q18 -197 21 -316h4q50 55 100.5 136.5t72.5 150.5q-23 4 -36.5 22.5t-13.5 38.5q0 18 10.5 31t29.5 13q22 0 36 -16.5t14 -43.5q0 -77 -79 -200.5t-168 -207.5h-32q-3 213 -29 403l-75 -83l-19 13q69 125 112 125z" />
    <glyph glyph-name="w" unicode="w" horiz-adv-x="653" 
d="M359 449q21 0 33 -11.5t15 -23t5 -31.5q17 -184 20 -311h4q48 52 93.5 131t68.5 151q-23 4 -36.5 22.5t-13.5 38.5q0 18 10.5 31t29.5 13q22 0 36 -16.5t14 -43.5q0 -78 -75 -202t-161 -206h-32q-1 104 -14 256q-78 -148 -191 -256h-32q-3 213 -29 403l-75 -83l-19 13
q69 125 112 125q21 0 33 -12t14.5 -23t4.5 -31q18 -197 21 -316h4q32 33 78 103.5t74 133.5q-2 25 -10 90l-75 -83l-19 13q69 125 112 125z" />
    <glyph glyph-name="x" unicode="x" horiz-adv-x="449" 
d="M159 446q23 0 34.5 -12.5t22.5 -47.5l34 -115q57 106 92 144t69 38q24 0 41 -12.5t17 -31.5t-12.5 -30.5t-31.5 -11.5q-20 0 -33.5 13t-16.5 32q-38 -30 -113 -179q50 -172 57 -189l79 70l18 -14q-22 -37 -56.5 -74t-61.5 -37q-22 0 -34 15t-22 45q-15 43 -41 133
q-63 -118 -99.5 -159.5t-72.5 -41.5q-25 0 -42 12.5t-17 32.5t13 31.5t32 11.5q20 0 34 -13.5t17 -32.5q41 32 123 199q-48 164 -49 168l-79 -72l-18 14q27 42 59.5 78t56.5 36z" />
    <glyph glyph-name="y" unicode="y" horiz-adv-x="423" 
d="M358 456q20 0 35 -15t15 -45q0 -71 -46 -176t-115 -201t-158.5 -164.5t-166.5 -68.5q-29 0 -55.5 15.5t-26.5 42.5q0 22 15 34.5t33 12.5q24 0 41 -22.5t17 -50.5q74 7 190 118q-7 112 -24 254.5t-30 203.5l-75 -83l-19 14q65 124 116 124q38 0 47 -39q20 -85 46 -405
q69 82 113 174.5t60 164.5q-25 5 -40 23.5t-15 44.5q0 14 10 29t33 15z" />
    <glyph glyph-name="z" unicode="z" horiz-adv-x="426" 
d="M128 448q41 0 118 -19t95 -19q31 0 67 48l23 -12q-28 -53 -82.5 -110t-105.5 -98.5t-104.5 -89.5t-77.5 -82l4 -4q44 16 104 16q59 0 151 -18l48 99l23 -6q-31 -167 -81 -167q-41 0 -125.5 24t-102.5 24q-31 0 -67 -48l-25 12q23 56 68.5 109.5t90 89.5t104 87.5
t97.5 95.5l-2 3q-50 -22 -111 -22q-44 0 -114 12l-43 -92l-23 6q5 33 10 55.5t13.5 49.5t20.5 41.5t27 14.5z" />
    <glyph glyph-name="braceleft" unicode="{" horiz-adv-x="313" 
d="M184 174l-40 -227q-3 -17 -3 -33q0 -62 74 -72l-5 -29q-70 1 -101.5 26t-31.5 77q0 22 4 43l35 197q5 27 7 58q0 60 -61 79l5 25q51 14 71.5 47.5t30.5 90.5l21 121q13 78 55.5 116.5t123.5 34.5l-3 -28q-25 0 -44 -7.5t-29.5 -17.5t-18.5 -28t-10.5 -29.5t-6.5 -31.5
l-26 -149q-10 -55 -34 -86t-76 -42l-1 -4q69 -19 69 -86q0 -18 -5 -45z" />
    <glyph glyph-name="bar" unicode="|" horiz-adv-x="348" 
d="M199 -141h-48v885h48v-885z" />
    <glyph glyph-name="braceright" unicode="}" horiz-adv-x="313" 
d="M159 438l28 158q3 16 3 33q0 62 -74 72l5 29q70 -1 101.5 -26t31.5 -77q0 -22 -4 -43l-23 -128q-5 -27 -7 -58q0 -60 61 -79l-5 -25q-51 -14 -71.5 -47.5t-30.5 -90.5l-33 -190q-13 -78 -55.5 -116.5t-123.5 -34.5l3 28q25 0 44 7.5t29.5 17.5t18.5 28t10.5 29.5
t6.5 31.5l38 218q10 55 34 86t76 42l1 4q-69 19 -69 86q0 18 5 45z" />
    <glyph glyph-name="asciitilde" unicode="~" 
d="M444 330l18 -11q-48 -97 -131 -97q-41 0 -92 23t-76 23q-68 0 -106 -49l-22 10q16 40 52 74t90 34q29 0 86.5 -24t84.5 -24q30 0 50.5 7.5t45.5 33.5z" />
    <glyph glyph-name="exclamdown" unicode="&#xa1;" horiz-adv-x="245" 
d="M35 -260q-34 0 -34 40q0 12 3 23l113 455h22l-49 -453q-3 -25 -16 -45t-39 -20zM161 448q16 0 27 -11.5t11 -28.5q0 -24 -17 -42t-38 -18q-16 0 -26 11.5t-10 28.5q0 24 16.5 42t36.5 18z" />
    <glyph glyph-name="cent" unicode="&#xa2;" 
d="M352 536q53 0 79.5 -19.5t26.5 -48.5q0 -17 -12.5 -28t-27.5 -11q-32 0 -46.5 23.5t-9.5 52.5q-13 0 -35 -4l-80 -380q6 -1 21 -1q63 0 145 73l16 -15q-87 -103 -192 -103l-19 -90l-26 4l18 88q-55 8 -87.5 50t-32.5 108q0 109 59.5 194t157.5 103l24 111l25 -4l-22 -104
q3 0 9 0.5t9 0.5zM164 238q0 -85 57 -110l78 364q-66 -28 -100.5 -105t-34.5 -149z" />
    <glyph glyph-name="sterling" unicode="&#xa3;" 
d="M114 62v-1l300 19l6 -9l-28 -71h-387l5 29q137 55 137 187q0 40 -10 100h-87l6 32h75q-5 27 -5 54q0 45 13.5 90t40.5 85t73.5 65.5t106.5 25.5q53 0 84 -23t31 -58q0 -22 -12 -37.5t-31 -15.5q-44 0 -44 46q0 26 17 51q-24 6 -46 6q-72 0 -114.5 -59t-42.5 -147
q0 -41 9 -83h199l-6 -32h-186q4 -28 4 -41q0 -55 -27 -119t-81 -94z" />
    <glyph glyph-name="currency" unicode="&#xa4;" horiz-adv-x="520" 
d="M261 110q-54 0 -107 34l-58 -58l-33 33l58 57q-36 49 -36 108q0 54 35 101l-57 56l36 36l56 -55q53 33 106 33q61 0 104 -29l55 51l35 -34l-53 -53q34 -53 34 -106q0 -54 -35 -106l55 -56l-35 -35l-57 58q-50 -35 -103 -35zM261 403q-50 0 -85.5 -34.5t-35.5 -84.5
t35.5 -86t85.5 -36t85.5 36t35.5 86q0 49 -35.5 84t-85.5 35z" />
    <glyph glyph-name="yen" unicode="&#xa5;" 
d="M42 257h417l-5 -28h-180l-25 -144q-4 -23 7 -35t26.5 -13.5t28 -7t10.5 -17.5l-2 -12h-241l2 12q2 12 15.5 17.5t29 8t30.5 14.5t19 35l25 142h-162zM470 318h-417l5 28h142l-58 207q-8 30 -23.5 47.5t-28 21.5t-21 10.5t-6.5 18.5l2 9h213l-2 -12q-2 -14 -31.5 -23.5
t-32.5 -27.5q-2 -11 5 -35l39 -131q10 -34 22 -88h5l108 178q28 49 31 67q3 16 -5 25.5t-18.5 12.5t-19 8t-7.5 13l2 13h199l-2 -12q-2 -11 -15 -16.5t-30.5 -9t-44 -25.5t-49.5 -61l-113 -190h156z" />
    <glyph glyph-name="brokenbar" unicode="&#xa6;" horiz-adv-x="348" 
d="M199 390h-48v354h48v-354zM151 254h48v-395h-48v395z" />
    <glyph glyph-name="section" unicode="&#xa7;" horiz-adv-x="469" 
d="M236 607l-3 2q-67 -76 -67 -185q0 -74 66 -183q55 -91 55 -162q0 -61 -38 -119l5 -2q95 70 95 193q0 73 -38 143q-6 10 -38.5 58.5t-48.5 86t-16 76.5q0 47 28 92zM356 692q48 0 79 -20.5t31 -57.5q0 -25 -14.5 -38.5t-29.5 -13.5q-24 0 -35.5 16t-11.5 39q0 24 9 41
q-15 3 -28 3q-44 0 -70 -27.5t-26 -77.5q0 -28 16.5 -59t40 -62t47 -64.5t40 -77.5t16.5 -91q0 -121 -76.5 -210.5t-211.5 -89.5q-40 0 -68.5 17.5t-28.5 54.5q0 29 14.5 46t33.5 17q24 0 36 -15.5t12 -38.5q0 -26 -12 -47q12 -3 24 -3q39 0 68 26.5t29 68.5q0 31 -23 74.5
t-50 82.5t-50 94.5t-23 107.5q0 71 31.5 140t93 117t137.5 48z" />
    <glyph glyph-name="dieresis" unicode="&#xa8;" horiz-adv-x="445" 
d="M207 632q16 0 26 -11t10 -28q0 -21 -16 -37t-36 -16q-16 0 -26.5 10.5t-10.5 26.5q0 22 16.5 38.5t36.5 16.5zM372 632q16 0 26 -11t10 -28q0 -21 -16 -37t-36 -16q-16 0 -26.5 10.5t-10.5 26.5q0 21 16 38t37 17z" />
    <glyph glyph-name="copyright" unicode="&#xa9;" horiz-adv-x="826" 
d="M413 8q-150 0 -241.5 93.5t-91.5 233.5q0 137 95.5 232t237.5 95t237.5 -95t95.5 -232t-95.5 -232t-237.5 -95zM413 34q133 0 217 86t84 215q0 127 -86 214t-215 87q-132 0 -216.5 -86.5t-84.5 -214.5q0 -129 84 -215t217 -86zM411 558q63 0 123 -33l15 33h15v-145h-7
q-2 0 -4 0.5t-3.5 1t-3 2.5t-2.5 3t-2 4t-2 5l-3 6t-3 7q-8 19 -14 30t-20 28.5t-37 26.5t-53 9q-54 0 -88 -31t-46.5 -76t-12.5 -106q0 -90 36.5 -145t111.5 -55q99 0 131 87l4.5 13.5t4 11.5t3.5 9.5t3 8t3 5.5l3 4.5t2.5 3t3.5 2t4 0.5h8v-164h-17l-19 36
q-64 -39 -136 -39q-102 0 -162.5 62.5t-60.5 161.5t61.5 166t163.5 67z" />
    <glyph glyph-name="ordfeminine" unicode="&#xaa;" horiz-adv-x="346" 
d="M151 326q33 0 72 56.5t55 129.5l7 30q-30 25 -61 25q-48 0 -80.5 -51.5t-32.5 -124.5q0 -65 40 -65zM249 368h-4q-52 -75 -109 -75q-84 0 -84 102q0 75 44 137.5t119 62.5q49 0 86 -30q1 1 13.5 12t18.5 17h22q-32 -98 -56 -252q49 29 55 32l13 -16q-65 -65 -91 -65
q-32 0 -32 32q0 15 5 43z" />
    <glyph glyph-name="guillemotleft" unicode="&#xab;" horiz-adv-x="424" 
d="M256 410l14 -13l-142 -190l71 -190l-20 -15l-120 166q-17 23 -17 33q0 16 29 42zM394 410l14 -13l-142 -190l71 -190l-20 -15l-120 166q-17 23 -17 33q0 16 29 42z" />
    <glyph glyph-name="logicalnot" unicode="&#xac;" 
d="M447 316l-40 -228h-45l32 182h-331l8 46h376z" />
    <glyph glyph-name="sfthyphen" unicode="&#xad;" horiz-adv-x="292" 
d="M251 208h-218l10 55h218z" />
    <glyph glyph-name="registered" unicode="&#xae;" horiz-adv-x="564" 
d="M249 580v-119h27q31 0 52 16.5t21 43.5q0 31 -21.5 45t-52.5 14h-26zM253 444h-4v-91q0 -15 23 -20q18 -4 18 -13v-6h-121v7q0 7 17 12q21 6 21 21v203q0 15 -22 21q-16 4 -16 13v6h113q55 0 83.5 -20t28.5 -55q0 -32 -27.5 -55t-85.5 -23h-6q12 -16 43 -16l52 -67
q18 -23 46 -29q15 -3 15 -11v-7h-75zM283 209q-109 0 -175.5 68t-66.5 169t69 170t173 69q105 0 174.5 -69t69.5 -170q0 -99 -69.5 -168t-174.5 -69zM283 232q97 0 157 61.5t60 152.5q0 92 -60 153.5t-157 61.5q-95 0 -156 -62t-61 -153t59.5 -152.5t157.5 -61.5z" />
    <glyph glyph-name="macron" unicode="&#xaf;" horiz-adv-x="450" 
d="M418 615l-19 -54q-96 9 -246 0l14 39q57 9 251 15z" />
    <glyph glyph-name="degree" unicode="&#xb0;" horiz-adv-x="397" 
d="M129 575q0 -38 26 -65t63 -27t63.5 27t26.5 65t-26.5 65t-63.5 27t-63 -27t-26 -65zM94 575q0 52 36 88.5t88 36.5t88.5 -36.5t36.5 -88.5t-36.5 -88t-88.5 -36t-88 36t-36 88z" />
    <glyph glyph-name="plusminus" unicode="&#xb1;" 
d="M392 1h-376l7 43h376zM439 270h-164l-32 -182h-45l32 182h-167l8 46h167l32 181h45l-32 -181h164z" />
    <glyph glyph-name="twosuperior" unicode="&#xb2;" horiz-adv-x="302" 
d="M238 686q53 0 79 -23t26 -60q0 -61 -65.5 -130.5t-165.5 -123.5q32 3 101 7t101 6l6 -8l-22 -54h-265l-1 19q118 83 182 149t64 131q0 29 -17 42.5t-43 13.5q-33 0 -59 -18q9 -13 9 -29t-9.5 -27.5t-24.5 -11.5q-14 0 -21.5 8.5t-7.5 21.5q0 32 36.5 59.5t96.5 27.5z" />
    <glyph glyph-name="threesuperior" unicode="&#xb3;" horiz-adv-x="318" 
d="M237 514l-1 -4q83 -11 83 -83q0 -58 -48 -95.5t-110 -37.5q-48 0 -78.5 19.5t-30.5 50.5q0 49 54 70l12 -11q-15 -19 -15 -45q0 -24 15.5 -40t45.5 -16q44 0 67.5 29.5t23.5 73.5q0 33 -19 50.5t-52 17.5q-20 0 -45 -7l-2 24q70 15 103.5 37t33.5 67q0 22 -16 34t-41 12
q-29 0 -54 -15q9 -12 9 -26q0 -15 -10 -26t-26 -11q-11 0 -18 8t-7 20q0 28 33 52t89 24q55 0 77.5 -22t22.5 -50q0 -31 -24.5 -58.5t-71.5 -41.5z" />
    <glyph glyph-name="acute" unicode="&#xb4;" horiz-adv-x="445" 
d="M221 514l-8 19q47 31 78.5 67.5t48 54t38.5 17.5q13 0 20.5 -9.5t7.5 -21.5q0 -24 -48 -62.5t-137 -64.5z" />
    <glyph glyph-name="mu" unicode="&#xb5;" horiz-adv-x="505" 
d="M443 440l6 -5l-73 -386l86 53l13 -17q-89 -94 -126 -94q-42 0 -42 42q0 45 19 112l18 64h-4q-48 -123 -101 -172.5t-95 -49.5q-14 0 -25 3l-20 -100q-4 -22 3.5 -35t22 -17t29 -6t24.5 -6.5t8 -14.5l-2 -13h-247l2 14q1 10 14.5 15t29.5 7.5t31.5 17t20.5 40.5l97 502
l-89 -62l-15 17q87 102 128 102q46 0 46 -39q0 -14 -3.5 -33.5t-11 -51.5t-9.5 -42l-35 -176q-5 -26 4 -46.5t34 -20.5q44 0 105.5 114.5t85.5 226.5l11 53z" />
    <glyph glyph-name="mu" unicode="&#x3bc;" horiz-adv-x="505" 
d="M443 440l6 -5l-73 -386l86 53l13 -17q-89 -94 -126 -94q-42 0 -42 42q0 45 19 112l18 64h-4q-48 -123 -101 -172.5t-95 -49.5q-14 0 -25 3l-20 -100q-4 -22 3.5 -35t22 -17t29 -6t24.5 -6.5t8 -14.5l-2 -13h-247l2 14q1 10 14.5 15t29.5 7.5t31.5 17t20.5 40.5l97 502
l-89 -62l-15 17q87 102 128 102q46 0 46 -39q0 -14 -3.5 -33.5t-11 -51.5t-9.5 -42l-35 -176q-5 -26 4 -46.5t34 -20.5q44 0 105.5 114.5t85.5 226.5l11 53z" />
    <glyph glyph-name="paragraph" unicode="&#xb6;" horiz-adv-x="551" 
d="M299 674h308l-3 -14q-2 -11 -17 -16.5t-31.5 -8t-32.5 -15.5t-20 -36l-88 -497q-22 -124 -103 -200.5t-210 -76.5q-44 0 -73 17.5t-29 54.5q0 29 15.5 47.5t36.5 18.5q23 0 36.5 -16t13.5 -40q0 -21 -11 -45q27 1 48 13.5t34.5 30t24 46.5t16 52t11.5 57l46 260h-37
q-68 0 -107.5 41.5t-39.5 108.5q0 90 61.5 154t150.5 64zM390 643l-106 -599q-23 -131 -74 -176l2 -3q114 46 137 181l105 597h-64z" />
    <glyph glyph-name="periodcentered" unicode="&#xb7;" horiz-adv-x="189" 
d="M106 298q18 0 29.5 -12t11.5 -31q0 -25 -18.5 -43.5t-41.5 -18.5q-18 0 -28.5 12t-10.5 30q0 25 17.5 44t40.5 19z" />
    <glyph glyph-name="cedilla" unicode="&#xb8;" horiz-adv-x="416" 
d="M205 7l-37 -66q55 -2 84 -24.5t29 -54.5q0 -42 -43.5 -73.5t-121.5 -31.5q-26 0 -39 2l4 27q65 0 99 19.5t34 45.5q0 21 -23.5 34t-58.5 14l-8 18l54 94z" />
    <glyph glyph-name="onesuperior" unicode="&#xb9;" horiz-adv-x="272" 
d="M136 361l44 249q3 16 -5 24.5t-19 9.5t-19.5 4.5t-7.5 10.5l2 11l117 17l3 -3l-57 -325q-2 -12 7 -18t20.5 -7t20 -6.5t6.5 -17.5l-2 -10h-173l3 13q3 13 29.5 20.5t30.5 27.5z" />
    <glyph glyph-name="ordmasculine" unicode="&#xba;" horiz-adv-x="356" 
d="M232 594q54 0 84 -31.5t30 -82.5q0 -74 -53 -130.5t-123 -56.5q-104 0 -104 115q0 74 48 130t118 56zM228 568q-49 0 -77.5 -56t-28.5 -118q0 -76 53 -76q36 0 63.5 31t39.5 69t12 72q0 78 -62 78z" />
    <glyph glyph-name="guillemotright" unicode="&#xbb;" horiz-adv-x="461" 
d="M50 397l18 13l168 -167q25 -25 25 -38q0 -9 -26 -37l-162 -166l-20 15l114 190zM200 397l18 13l168 -167q25 -25 25 -38q0 -9 -26 -37l-162 -166l-20 15l114 190z" />
    <glyph glyph-name="onequarter" unicode="&#xbc;" horiz-adv-x="755" 
d="M146 361l44 249q3 16 -5 24.5t-19 9.5t-19.5 4.5t-7.5 10.5l2 11l117 17l3 -3l-57 -325q-2 -12 7 -18t20.5 -7t20 -6.5t6.5 -17.5l-2 -10h-173l3 13q3 13 29.5 20.5t30.5 27.5zM651 720l-488 -759h-32l489 759h31zM648 249l3 -1l-21 -122h63l-5 -25h-63l-7 -42
q-2 -14 6 -20.5t19 -7.5t19.5 -5.5t6.5 -14.5l-2 -11h-171l2 12q2 11 16 15t28 10.5t17 23.5l7 40h-177l4 20q173 200 222 263h63l4 -9q-40 -42 -95.5 -95.5t-103 -98t-58.5 -55.5h146l18 103z" />
    <glyph glyph-name="onehalf" unicode="&#xbd;" horiz-adv-x="755" 
d="M147 361l44 249q3 16 -5 24.5t-19 9.5t-19.5 4.5t-7.5 10.5l2 11l117 17l3 -3l-57 -325q-2 -12 7 -18t20.5 -7t20 -6.5t6.5 -17.5l-2 -10h-173l3 13q3 13 29.5 20.5t30.5 27.5zM627 720l-488 -759h-32l489 759h31zM575 386q-60 0 -96.5 -27.5t-36.5 -59.5
q0 -13 7.5 -21.5t21.5 -8.5q15 0 24.5 11.5t9.5 27.5t-9 29q26 18 59 18q26 0 43 -13.5t17 -42.5q0 -65 -64 -131t-182 -149l1 -19h265l22 54l-6 8q-32 -2 -101 -6t-101 -7q100 54 165.5 123.5t65.5 130.5q0 37 -26 60t-79 23z" />
    <glyph glyph-name="threequarters" unicode="&#xbe;" horiz-adv-x="755" 
d="M256 514l-1 -4q83 -11 83 -83q0 -58 -48 -95.5t-110 -37.5q-48 0 -78.5 19.5t-30.5 50.5q0 49 54 70l12 -11q-15 -19 -15 -45q0 -24 15.5 -40t45.5 -16q44 0 67.5 29.5t23.5 73.5q0 33 -19 50.5t-52 17.5q-20 0 -45 -7l-2 24q70 15 103.5 37t33.5 67q0 22 -16 34t-41 12
q-29 0 -54 -15q9 -12 9 -26q0 -15 -10 -26t-26 -11q-11 0 -18 8t-7 20q0 28 33 52t89 24q55 0 77.5 -22t22.5 -50q0 -31 -24.5 -58.5t-71.5 -41.5zM674 720l-488 -759h-32l489 759h31zM654 249l3 -1l-21 -122h63l-5 -25h-63l-7 -42q-2 -14 6 -20.5t19 -7.5t19.5 -5.5
t6.5 -14.5l-2 -11h-171l2 12q2 11 16 15t28 10.5t17 23.5l7 40h-177l4 20q173 200 222 263h63l4 -9q-40 -42 -95.5 -95.5t-103 -98t-58.5 -55.5h146l18 103z" />
    <glyph glyph-name="questiondown" unicode="&#xbf;" horiz-adv-x="415" 
d="M-30 -153q0 39 27.5 76.5t67 67.5t78.5 58.5t66.5 60.5t27.5 63q0 41 -33 82l18 20q38 -20 62 -50.5t24 -65.5q0 -31 -26 -64t-63.5 -62l-75 -58t-63.5 -61t-26 -62q0 -36 24.5 -52.5t62.5 -16.5q32 0 65 10q-5 12 -5 31q0 30 17 53t47 23q16 0 28 -11.5t12 -29.5
q0 -57 -53.5 -85.5t-130.5 -28.5q-64 0 -107.5 24t-43.5 78zM250 348q-17 0 -27 11t-10 29q0 24 16.5 42t38.5 18q16 0 25.5 -11t9.5 -28q0 -24 -16 -42.5t-37 -18.5z" />
    <glyph glyph-name="Agrave" unicode="&#xc0;" horiz-adv-x="627" 
d="M164 215l-50 -97q-20 -37 -14.5 -55.5t20 -23t29 -10t12.5 -15.5l-2 -14h-199l2 13q2 11 13.5 16.5t26.5 9.5t36.5 23.5t39.5 52.5l300 564h26l111 -568q6 -33 20 -51.5t26.5 -21.5t21.5 -9.5t8 -19.5l-1 -9h-215l1 12q1 11 13.5 16t26.5 7.5t22.5 19t2.5 47.5l-21 113
h-256zM357 574h-4l-173 -329h233l-27 136q-24 127 -29 193zM461 759l-9 -22q-76 12 -125 45.5t-49 57.5q0 12 9 21t25 9q15 0 29 -14.5t44.5 -43.5t75.5 -53z" />
    <glyph glyph-name="Aacute" unicode="&#xc1;" horiz-adv-x="627" 
d="M164 215l-50 -97q-20 -37 -14.5 -55.5t20 -23t29 -10t12.5 -15.5l-2 -14h-199l2 13q2 11 13.5 16.5t26.5 9.5t36.5 23.5t39.5 52.5l300 564h26l111 -568q6 -33 20 -51.5t26.5 -21.5t21.5 -9.5t8 -19.5l-1 -9h-215l1 12q1 11 13.5 16t26.5 7.5t22.5 19t2.5 47.5l-21 113
h-256zM357 574h-4l-173 -329h233l-27 136q-24 127 -29 193zM348 737l-5 22q48 23 82 52t51.5 44.5t38.5 15.5q13 0 19.5 -9t6.5 -21q0 -10 -10 -23.5t-30.5 -29.5t-60.5 -30t-92 -21z" />
    <glyph glyph-name="Acircumflex" unicode="&#xc2;" horiz-adv-x="627" 
d="M164 215l-50 -97q-20 -37 -14.5 -55.5t20 -23t29 -10t12.5 -15.5l-2 -14h-199l2 13q2 11 13.5 16.5t26.5 9.5t36.5 23.5t39.5 52.5l300 564h26l111 -568q6 -33 20 -51.5t26.5 -21.5t21.5 -9.5t8 -19.5l-1 -9h-215l1 12q1 11 13.5 16t26.5 7.5t22.5 19t2.5 47.5l-21 113
h-256zM357 574h-4l-173 -329h233l-27 136q-24 127 -29 193zM529 715l-125 82l-152 -83l-12 22l125 100q41 34 52 34q3 0 5 -0.5t5 -2.5t5 -3.5t5.5 -5t5.5 -6t7 -7.5l8 -8l92 -100z" />
    <glyph glyph-name="Atilde" unicode="&#xc3;" horiz-adv-x="627" 
d="M164 215l-50 -97q-20 -37 -14.5 -55.5t20 -23t29 -10t12.5 -15.5l-2 -14h-199l2 13q2 11 13.5 16.5t26.5 9.5t36.5 23.5t39.5 52.5l300 564h26l111 -568q6 -33 20 -51.5t26.5 -21.5t21.5 -9.5t8 -19.5l-1 -9h-215l1 12q1 11 13.5 16t26.5 7.5t22.5 19t2.5 47.5l-21 113
h-256zM357 574h-4l-173 -329h233l-27 136q-24 127 -29 193zM538 829l13 -6q-14 -37 -39 -62t-57 -25q-21 0 -60.5 16.5t-58.5 16.5q-36 0 -66 -41l-16 8q14 34 39 62t58 28q19 0 60.5 -17.5t64.5 -17.5q32 0 62 38z" />
    <glyph glyph-name="Adieresis" unicode="&#xc4;" horiz-adv-x="627" 
d="M164 215l-50 -97q-20 -37 -14.5 -55.5t20 -23t29 -10t12.5 -15.5l-2 -14h-199l2 13q2 11 13.5 16.5t26.5 9.5t36.5 23.5t39.5 52.5l300 564h26l111 -568q6 -33 20 -51.5t26.5 -21.5t21.5 -9.5t8 -19.5l-1 -9h-215l1 12q1 11 13.5 16t26.5 7.5t22.5 19t2.5 47.5l-21 113
h-256zM357 574h-4l-173 -329h233l-27 136q-24 127 -29 193zM340 834q15 0 25 -10.5t10 -26.5q0 -21 -16 -38t-36 -17q-16 0 -26.5 11t-10.5 27q0 21 17 37.5t37 16.5zM505 834q16 0 26 -10.5t10 -26.5q0 -22 -16.5 -38.5t-36.5 -16.5q-16 0 -26.5 11t-10.5 27q0 21 17 37.5
t37 16.5z" />
    <glyph glyph-name="Aring" unicode="&#xc5;" horiz-adv-x="627" 
d="M164 215l-50 -97q-20 -37 -14.5 -55.5t20 -23t29 -10t12.5 -15.5l-2 -14h-199l2 13q2 11 13.5 16.5t26.5 9.5t36.5 23.5t39.5 52.5l300 564h26l111 -568q6 -33 20 -51.5t26.5 -21.5t21.5 -9.5t8 -19.5l-1 -9h-215l1 12q1 11 13.5 16t26.5 7.5t22.5 19t2.5 47.5l-21 113
h-256zM357 574h-4l-173 -329h233l-27 136q-24 127 -29 193zM420 853q35 0 56.5 -22.5t21.5 -57.5q0 -47 -33 -81t-79 -34q-36 0 -58.5 22.5t-22.5 57.5q0 45 33.5 80t81.5 35zM415 827q-33 0 -56 -25.5t-23 -58.5q0 -25 14.5 -41.5t40.5 -16.5q31 0 54 23.5t23 56.5
q0 27 -14 44.5t-39 17.5z" />
    <glyph glyph-name="AE" unicode="&#xc6;" horiz-adv-x="957" 
d="M606 32h89q73 0 117 39t101 138q14 25 27 21l12 -3l-86 -224l-7 -7q-142 4 -480 4l2 15q2 11 14.5 16t27 7t29 17t19.5 45l26 148h-245l-98 -130q-21 -28 -22.5 -45.5t10.5 -24.5t26.5 -11t25 -9t7.5 -14l-5 -14h-226l5 13q4 11 17 16.5t29 9.5t41.5 23.5t51.5 52.5
l401 523q-1 0 -4 1q-14 3 -19.5 6.5t-4.5 12.5l2 16q310 0 454 8l3 -5l-13 -173l-9 -1q-17 -1 -21 16q-20 86 -41 104.5t-91 18.5h-130l-48 -272h91q35 0 57 17.5t28.5 38t14.5 38t19 17.5h10l-46 -265h-7q-12 0 -16 19t-4 42t-14.5 42t-46.5 19h-92l-42 -241q-6 -33 7 -49
t54 -16zM502 278l53 296q6 35 -12 52l-268 -348h227z" />
    <glyph glyph-name="Ccedilla" unicode="&#xc7;" horiz-adv-x="623" 
d="M426 683q94 0 168 -54l32 54h17l-38 -221h-9q-13 0 -18.5 19.5t-10.5 47t-16 55.5t-42.5 47.5t-82.5 19.5q-88 0 -153 -57t-97 -147t-32 -199q0 -103 42.5 -165t129.5 -62q53 0 94 16t62.5 40t38 52t25 52t19 40t23.5 16h9l-43 -243h-18l-17 59q-93 -63 -201 -63
q-118 0 -185.5 76.5t-67.5 196.5q0 177 106.5 298.5t264.5 121.5zM316 7l-37 -66q55 -2 84 -24.5t29 -54.5q0 -42 -43.5 -73.5t-121.5 -31.5q-26 0 -39 2l4 27q65 0 99 19.5t34 45.5q0 21 -23.5 34t-58.5 14l-8 18l54 94z" />
    <glyph glyph-name="Egrave" unicode="&#xc8;" horiz-adv-x="586" 
d="M222 32h94q73 0 117 39t101 138q14 25 27 21l12 -3l-86 -224l-7 -7q-142 4 -485 4l2 15q2 11 14.5 16t27 7t29 17t19.5 45l84 474q5 29 -5 44t-25 17t-27 7t-11 16l2 16q329 0 473 8l3 -5l-13 -173l-9 -1q-17 -1 -21 16q-20 86 -41 104.5t-91 18.5h-149l-48 -272h104
q35 0 57 17.5t28.5 38t14.5 38t19 17.5h10l-46 -265h-7q-12 0 -16 19t-4 42t-14.5 42t-46.5 19h-105l-42 -241q-6 -33 7 -49t54 -16zM444 759l-9 -22q-76 12 -125 45.5t-49 57.5q0 12 9 21t25 9q15 0 29 -14.5t44.5 -43.5t75.5 -53z" />
    <glyph glyph-name="Eacute" unicode="&#xc9;" horiz-adv-x="586" 
d="M222 32h94q73 0 117 39t101 138q14 25 27 21l12 -3l-86 -224l-7 -7q-142 4 -485 4l2 15q2 11 14.5 16t27 7t29 17t19.5 45l84 474q5 29 -5 44t-25 17t-27 7t-11 16l2 16q329 0 473 8l3 -5l-13 -173l-9 -1q-17 -1 -21 16q-20 86 -41 104.5t-91 18.5h-149l-48 -272h104
q35 0 57 17.5t28.5 38t14.5 38t19 17.5h10l-46 -265h-7q-12 0 -16 19t-4 42t-14.5 42t-46.5 19h-105l-42 -241q-6 -33 7 -49t54 -16zM288 737l-5 22q48 23 82 52t51.5 44.5t38.5 15.5q13 0 19.5 -9t6.5 -21q0 -10 -10 -23.5t-30.5 -29.5t-60.5 -30t-92 -21z" />
    <glyph glyph-name="Ecircumflex" unicode="&#xca;" horiz-adv-x="586" 
d="M222 32h94q73 0 117 39t101 138q14 25 27 21l12 -3l-86 -224l-7 -7q-142 4 -485 4l2 15q2 11 14.5 16t27 7t29 17t19.5 45l84 474q5 29 -5 44t-25 17t-27 7t-11 16l2 16q329 0 473 8l3 -5l-13 -173l-9 -1q-17 -1 -21 16q-20 86 -41 104.5t-91 18.5h-149l-48 -272h104
q35 0 57 17.5t28.5 38t14.5 38t19 17.5h10l-46 -265h-7q-12 0 -16 19t-4 42t-14.5 42t-46.5 19h-105l-42 -241q-6 -33 7 -49t54 -16zM508 725l-125 82l-152 -83l-12 22l125 100q41 34 52 34q3 0 5 -0.5t5 -2.5t5 -3.5t5.5 -5t5.5 -6t7 -7.5l8 -8l92 -100z" />
    <glyph glyph-name="Edieresis" unicode="&#xcb;" horiz-adv-x="586" 
d="M222 32h94q73 0 117 39t101 138q14 25 27 21l12 -3l-86 -224l-7 -7q-142 4 -485 4l2 15q2 11 14.5 16t27 7t29 17t19.5 45l84 474q5 29 -5 44t-25 17t-27 7t-11 16l2 16q329 0 473 8l3 -5l-13 -173l-9 -1q-17 -1 -21 16q-20 86 -41 104.5t-91 18.5h-149l-48 -272h104
q35 0 57 17.5t28.5 38t14.5 38t19 17.5h10l-46 -265h-7q-12 0 -16 19t-4 42t-14.5 42t-46.5 19h-105l-42 -241q-6 -33 7 -49t54 -16zM308 834q15 0 25 -10.5t10 -26.5q0 -21 -16 -38t-36 -17q-16 0 -26.5 11t-10.5 27q0 21 17 37.5t37 16.5zM473 834q16 0 26 -10.5t10 -26.5
q0 -22 -16.5 -38.5t-36.5 -16.5q-16 0 -26.5 11t-10.5 27q0 21 17 37.5t37 16.5z" />
    <glyph glyph-name="Igrave" unicode="&#xcc;" horiz-adv-x="330" 
d="M263 584l-87 -496q-4 -25 7 -37.5t27 -14t28.5 -6.5t10.5 -18l-2 -12h-242l2 12q2 12 15.5 17.5t29 7.5t30.5 15t19 38l87 492q4 24 -6.5 37t-25.5 15.5t-27 8.5t-10 18l2 12h244l-2 -12q-2 -12 -16.5 -18t-31 -8t-32.5 -14.5t-20 -36.5zM338 759l-9 -22
q-76 12 -125 45.5t-49 57.5q0 12 9 21t25 9q15 0 29 -14.5t44.5 -43.5t75.5 -53z" />
    <glyph glyph-name="Iacute" unicode="&#xcd;" horiz-adv-x="330" 
d="M263 584l-87 -496q-4 -25 7 -37.5t27 -14t28.5 -6.5t10.5 -18l-2 -12h-242l2 12q2 12 15.5 17.5t29 7.5t30.5 15t19 38l87 492q4 24 -6.5 37t-25.5 15.5t-27 8.5t-10 18l2 12h244l-2 -12q-2 -12 -16.5 -18t-31 -8t-32.5 -14.5t-20 -36.5zM167 737l-5 22q48 23 82 52
t51.5 44.5t38.5 15.5q13 0 19.5 -9t6.5 -21q0 -10 -10 -23.5t-30.5 -29.5t-60.5 -30t-92 -21z" />
    <glyph glyph-name="Icircumflex" unicode="&#xce;" horiz-adv-x="330" 
d="M263 584l-87 -496q-4 -25 7 -37.5t27 -14t28.5 -6.5t10.5 -18l-2 -12h-242l2 12q2 12 15.5 17.5t29 7.5t30.5 15t19 38l87 492q4 24 -6.5 37t-25.5 15.5t-27 8.5t-10 18l2 12h244l-2 -12q-2 -12 -16.5 -18t-31 -8t-32.5 -14.5t-20 -36.5zM382 725l-125 82l-152 -83
l-12 22l125 100q41 34 52 34q3 0 5 -0.5t5 -2.5t5 -3.5t5.5 -5t5.5 -6t7 -7.5l8 -8l92 -100z" />
    <glyph glyph-name="Idieresis" unicode="&#xcf;" horiz-adv-x="330" 
d="M263 584l-87 -496q-4 -25 7 -37.5t27 -14t28.5 -6.5t10.5 -18l-2 -12h-242l2 12q2 12 15.5 17.5t29 7.5t30.5 15t19 38l87 492q4 24 -6.5 37t-25.5 15.5t-27 8.5t-10 18l2 12h244l-2 -12q-2 -12 -16.5 -18t-31 -8t-32.5 -14.5t-20 -36.5zM183 834q15 0 25 -10.5t10 -26.5
q0 -21 -16 -38t-36 -17q-16 0 -26.5 11t-10.5 27q0 21 17 37.5t37 16.5zM348 834q16 0 26 -10.5t10 -26.5q0 -22 -16.5 -38.5t-36.5 -16.5q-16 0 -26.5 11t-10.5 27q0 21 17 37.5t37 16.5z" />
    <glyph glyph-name="Eth" unicode="&#xd0;" horiz-adv-x="656" 
d="M235 0h-245l2 15q2 11 14.5 16t27 7t29 17t19.5 45l41 235h-62l5 33h63l37 206q5 29 -5 44t-25 17t-27.5 7t-11.5 16l2 16h226q150 0 233 -67.5t83 -206.5q0 -40 -10 -87t-39 -104t-72 -102.5t-117.5 -76t-167.5 -30.5zM252 642l-49 -274h169l-5 -33h-170l-42 -239
q-1 -6 -1 -18q0 -46 62 -46h34q47 0 96.5 19.5t99 61t81.5 120.5t32 184q0 109 -66 167t-186 58h-55z" />
    <glyph glyph-name="Ntilde" unicode="&#xd1;" horiz-adv-x="696" 
d="M265 674l238 -459q17 -32 34 -84h4l79 449q4 24 -8.5 36.5t-29.5 15t-30.5 9t-11.5 19.5l2 13h209l-2 -13q-2 -14 -16 -20.5t-30.5 -8t-32 -15t-19.5 -38.5l-103 -585l-28 -7l-275 530q-18 35 -33 78h-5l-88 -500q-4 -26 8 -39t29.5 -15.5t31 -8t11.5 -18.5l-2 -13h-207
l2 13q2 12 16 19t30 10t31.5 16.5t19.5 37.5l82 463q6 32 -4 49.5t-25.5 21t-27.5 9.5t-10 18l3 17h158zM591 845l13 -6q-14 -37 -39 -62t-57 -25q-21 0 -60.5 16.5t-58.5 16.5q-36 0 -66 -41l-16 8q14 34 39 62t58 28q19 0 60.5 -17.5t64.5 -17.5q32 0 62 38z" />
    <glyph glyph-name="Ograve" unicode="&#xd2;" horiz-adv-x="687" 
d="M423 682q118 0 183.5 -75t65.5 -194q0 -170 -110 -297t-261 -127q-120 0 -183 72t-63 191q0 112 48.5 211t134 159t185.5 60zM417 650q-70 0 -126 -41.5t-88.5 -106.5t-49 -134.5t-16.5 -134.5q0 -95 41 -154t132 -59q70 0 125.5 40t88 102.5t49 132t16.5 137.5
q0 97 -40.5 157.5t-131.5 60.5zM534 762l-9 -22q-76 12 -125 45.5t-49 57.5q0 12 9 21t25 9q15 0 29 -14.5t44.5 -43.5t75.5 -53z" />
    <glyph glyph-name="Oacute" unicode="&#xd3;" horiz-adv-x="687" 
d="M423 682q118 0 183.5 -75t65.5 -194q0 -170 -110 -297t-261 -127q-120 0 -183 72t-63 191q0 112 48.5 211t134 159t185.5 60zM417 650q-70 0 -126 -41.5t-88.5 -106.5t-49 -134.5t-16.5 -134.5q0 -95 41 -154t132 -59q70 0 125.5 40t88 102.5t49 132t16.5 137.5
q0 97 -40.5 157.5t-131.5 60.5zM389 741l-5 22q48 23 82 52t51.5 44.5t38.5 15.5q13 0 19.5 -9t6.5 -21q0 -10 -10 -23.5t-30.5 -29.5t-60.5 -30t-92 -21z" />
    <glyph glyph-name="Ocircumflex" unicode="&#xd4;" horiz-adv-x="687" 
d="M423 682q118 0 183.5 -75t65.5 -194q0 -170 -110 -297t-261 -127q-120 0 -183 72t-63 191q0 112 48.5 211t134 159t185.5 60zM417 650q-70 0 -126 -41.5t-88.5 -106.5t-49 -134.5t-16.5 -134.5q0 -95 41 -154t132 -59q70 0 125.5 40t88 102.5t49 132t16.5 137.5
q0 97 -40.5 157.5t-131.5 60.5zM594 725l-125 82l-152 -83l-12 22l125 100q41 34 52 34q3 0 5 -0.5t5 -2.5t5 -3.5t5.5 -5t5.5 -6t7 -7.5l8 -8l92 -100z" />
    <glyph glyph-name="Otilde" unicode="&#xd5;" horiz-adv-x="687" 
d="M423 682q118 0 183.5 -75t65.5 -194q0 -170 -110 -297t-261 -127q-120 0 -183 72t-63 191q0 112 48.5 211t134 159t185.5 60zM417 650q-70 0 -126 -41.5t-88.5 -106.5t-49 -134.5t-16.5 -134.5q0 -95 41 -154t132 -59q70 0 125.5 40t88 102.5t49 132t16.5 137.5
q0 97 -40.5 157.5t-131.5 60.5zM606 856l13 -6q-14 -37 -39 -62t-57 -25q-21 0 -60.5 16.5t-58.5 16.5q-36 0 -66 -41l-16 8q14 34 39 62t58 28q19 0 60.5 -17.5t64.5 -17.5q32 0 62 38z" />
    <glyph glyph-name="Odieresis" unicode="&#xd6;" horiz-adv-x="687" 
d="M423 682q118 0 183.5 -75t65.5 -194q0 -170 -110 -297t-261 -127q-120 0 -183 72t-63 191q0 112 48.5 211t134 159t185.5 60zM417 650q-70 0 -126 -41.5t-88.5 -106.5t-49 -134.5t-16.5 -134.5q0 -95 41 -154t132 -59q70 0 125.5 40t88 102.5t49 132t16.5 137.5
q0 97 -40.5 157.5t-131.5 60.5zM388 834q15 0 25 -10.5t10 -26.5q0 -21 -16 -38t-36 -17q-16 0 -26.5 11t-10.5 27q0 21 17 37.5t37 16.5zM553 834q16 0 26 -10.5t10 -26.5q0 -22 -16.5 -38.5t-36.5 -16.5q-16 0 -26.5 11t-10.5 27q0 21 17 37.5t37 16.5z" />
    <glyph glyph-name="multiply" unicode="&#xd7;" 
d="M328 119l-93 127l-142 -129l-26 35l142 129l-95 128l35 32l96 -128l140 128l25 -34l-140 -128l94 -127z" />
    <glyph glyph-name="Oslash" unicode="&#xd8;" horiz-adv-x="687" 
d="M423 682q103 0 168 -60l60 73l18 -16l-61 -74q64 -73 64 -192q0 -170 -110 -297t-261 -127q-97 0 -160 50l-61 -74l-18 17l61 74q-68 69 -68 196q0 112 48.5 211t134 159t185.5 60zM417 650q-70 0 -126 -41.5t-88.5 -106.5t-49 -134.5t-16.5 -134.5q0 -79 25 -129
l393 475q-43 71 -138 71zM589 432q0 74 -22 124l-391 -475q43 -61 134 -61q70 0 125.5 40t88 102.5t49 132t16.5 137.5z" />
    <glyph glyph-name="Ugrave" unicode="&#xd9;" horiz-adv-x="692" 
d="M651 581l-56 -315q-24 -134 -98.5 -205.5t-184.5 -71.5q-114 0 -171 60t-34 191l61 342q4 24 -6 37t-24.5 15.5t-26 8.5t-9.5 18l2 12h242l-2 -12q-2 -12 -16.5 -18t-31 -8t-32.5 -14.5t-20 -36.5l-58 -324q-19 -111 12.5 -173t135.5 -62q89 0 150 64t82 187l54 303
q4 24 -7.5 37.5t-28 16.5t-29.5 9.5t-11 18.5l2 12h206l-2 -12q-2 -12 -16.5 -18t-31 -8t-32 -15t-19.5 -39zM518 759l-9 -22q-76 12 -125 45.5t-49 57.5q0 12 9 21t25 9q15 0 29 -14.5t44.5 -43.5t75.5 -53z" />
    <glyph glyph-name="Uacute" unicode="&#xda;" horiz-adv-x="692" 
d="M651 581l-56 -315q-24 -134 -98.5 -205.5t-184.5 -71.5q-114 0 -171 60t-34 191l61 342q4 24 -6 37t-24.5 15.5t-26 8.5t-9.5 18l2 12h242l-2 -12q-2 -12 -16.5 -18t-31 -8t-32.5 -14.5t-20 -36.5l-58 -324q-19 -111 12.5 -173t135.5 -62q89 0 150 64t82 187l54 303
q4 24 -7.5 37.5t-28 16.5t-29.5 9.5t-11 18.5l2 12h206l-2 -12q-2 -12 -16.5 -18t-31 -8t-32 -15t-19.5 -39zM375 737l-5 22q48 23 82 52t51.5 44.5t38.5 15.5q13 0 19.5 -9t6.5 -21q0 -10 -10 -23.5t-30.5 -29.5t-60.5 -30t-92 -21z" />
    <glyph glyph-name="Ucircumflex" unicode="&#xdb;" horiz-adv-x="692" 
d="M651 581l-56 -315q-24 -134 -98.5 -205.5t-184.5 -71.5q-114 0 -171 60t-34 191l61 342q4 24 -6 37t-24.5 15.5t-26 8.5t-9.5 18l2 12h242l-2 -12q-2 -12 -16.5 -18t-31 -8t-32.5 -14.5t-20 -36.5l-58 -324q-19 -111 12.5 -173t135.5 -62q89 0 150 64t82 187l54 303
q4 24 -7.5 37.5t-28 16.5t-29.5 9.5t-11 18.5l2 12h206l-2 -12q-2 -12 -16.5 -18t-31 -8t-32 -15t-19.5 -39zM573 725l-125 82l-152 -83l-12 22l125 100q41 34 52 34q3 0 5 -0.5t5 -2.5t5 -3.5t5.5 -5t5.5 -6t7 -7.5l8 -8l92 -100z" />
    <glyph glyph-name="Udieresis" unicode="&#xdc;" horiz-adv-x="692" 
d="M651 581l-56 -315q-24 -134 -98.5 -205.5t-184.5 -71.5q-114 0 -171 60t-34 191l61 342q4 24 -6 37t-24.5 15.5t-26 8.5t-9.5 18l2 12h242l-2 -12q-2 -12 -16.5 -18t-31 -8t-32.5 -14.5t-20 -36.5l-58 -324q-19 -111 12.5 -173t135.5 -62q89 0 150 64t82 187l54 303
q4 24 -7.5 37.5t-28 16.5t-29.5 9.5t-11 18.5l2 12h206l-2 -12q-2 -12 -16.5 -18t-31 -8t-32 -15t-19.5 -39zM370 834q15 0 25 -10.5t10 -26.5q0 -21 -16 -38t-36 -17q-16 0 -26.5 11t-10.5 27q0 21 17 37.5t37 16.5zM535 834q16 0 26 -10.5t10 -26.5q0 -22 -16.5 -38.5
t-36.5 -16.5q-16 0 -26.5 11t-10.5 27q0 21 17 37.5t37 16.5z" />
    <glyph glyph-name="Yacute" unicode="&#xdd;" horiz-adv-x="540" 
d="M303 340h6l128 190q30 46 33 69q3 17 -5 27t-18.5 13t-19.5 8.5t-7 13.5l2 13h198l-2 -12q-2 -12 -13.5 -18t-27.5 -10.5t-43 -27t-53 -61.5l-163 -242l-38 -215q-4 -25 7 -37t27 -13.5t28.5 -7t10.5 -18.5l-2 -12h-242l2 12q2 12 15.5 18t29 7.5t30.5 14.5t19 38l37 208
l-90 265q-10 29 -26 47t-28.5 23t-20.5 12t-6 20l1 9h218l-2 -12q-2 -14 -30.5 -24t-31.5 -29q-2 -13 6 -37l45 -137q16 -48 26 -95zM292 737l-5 22q48 23 82 52t51.5 44.5t38.5 15.5q13 0 19.5 -9t6.5 -21q0 -10 -10 -23.5t-30.5 -29.5t-60.5 -30t-92 -21z" />
    <glyph glyph-name="Thorn" unicode="&#xde;" horiz-adv-x="535" 
d="M177 177l-16 -89q-4 -25 7.5 -37.5t28 -14t30 -6.5t11.5 -18l-2 -12h-246l2 12q2 12 15.5 17.5t29 7t30.5 14.5t19 39l87 487q5 26 -5.5 40.5t-25.5 17.5t-27 9t-10 18l2 12h244l-2 -12q-2 -12 -16.5 -18t-31 -7.5t-32 -14.5t-19.5 -37l-4 -24q29 4 60 4q117 0 179 -50
t62 -123q0 -58 -27 -103.5t-70 -70t-89.5 -37t-93.5 -12.5q-45 0 -90 8zM240 530l-58 -324q33 -9 82 -9q81 0 140.5 53t59.5 143q0 68 -44 104.5t-125 36.5q-30 0 -55 -4z" />
    <glyph glyph-name="germandbls" unicode="&#xdf;" horiz-adv-x="508" 
d="M387 697q-23 0 -49 -9.5t-56 -32t-54.5 -68.5t-35.5 -109q-60 -341 -92.5 -456t-71.5 -167q-51 -67 -114 -67q-27 0 -45.5 14.5t-18.5 34.5q0 19 13 30.5t31 11.5q21 0 38.5 -16t21.5 -46q50 21 74 158q45 271 82 451q26 131 121.5 219t188.5 88q62 0 97.5 -30t35.5 -71
q0 -53 -32.5 -95t-71 -64t-71 -48t-32.5 -50q0 -33 29 -78.5t58.5 -91.5t29.5 -79q0 -60 -46.5 -102.5t-115.5 -42.5q-55 0 -93 22t-38 57q0 21 12.5 33t28.5 12q20 0 31 -14t11 -34t-8 -36q25 -13 54 -13q45 0 72.5 22t27.5 56q0 30 -17 63.5t-37.5 58t-37.5 55t-17 55.5
q0 41 16 68t46 51q72 57 100 97t28 82q0 81 -93 81z" />
    <glyph glyph-name="agrave" unicode="&#xe0;" horiz-adv-x="515" 
d="M176 34q-66 0 -66 103q0 115 49.5 196t121.5 81q50 0 96 -43l-9 -47q-22 -114 -82 -202t-110 -88zM152 -11q104 0 181 164h4q-20 -70 -20 -121q0 -42 42 -42q37 0 126 94l-13 17l-86 -53q33 237 81 399h-20l-52 -47q-53 49 -125 49q-55 0 -101 -28.5t-74.5 -74t-44 -98.5
t-15.5 -105q0 -154 117 -154zM391 539l-7 -21q-74 15 -123.5 50.5t-49.5 60.5q0 14 9.5 26t24.5 12q16 0 31.5 -17.5t45.5 -51t69 -59.5z" />
    <glyph glyph-name="aacute" unicode="&#xe1;" horiz-adv-x="515" 
d="M176 34q-66 0 -66 103q0 115 49.5 196t121.5 81q50 0 96 -43l-9 -47q-22 -114 -82 -202t-110 -88zM152 -11q104 0 181 164h4q-20 -70 -20 -121q0 -42 42 -42q37 0 126 94l-13 17l-86 -53q33 237 81 399h-20l-52 -47q-53 49 -125 49q-55 0 -101 -28.5t-74.5 -74t-44 -98.5
t-15.5 -105q0 -154 117 -154zM239 514l-8 19q47 31 78.5 67.5t48 54t38.5 17.5q13 0 20.5 -9.5t7.5 -21.5q0 -24 -48 -62.5t-137 -64.5z" />
    <glyph glyph-name="acircumflex" unicode="&#xe2;" horiz-adv-x="515" 
d="M176 34q-66 0 -66 103q0 115 49.5 196t121.5 81q50 0 96 -43l-9 -47q-22 -114 -82 -202t-110 -88zM152 -11q104 0 181 164h4q-20 -70 -20 -121q0 -42 42 -42q37 0 126 94l-13 17l-86 -53q33 237 81 399h-20l-52 -47q-53 49 -125 49q-55 0 -101 -28.5t-74.5 -74t-44 -98.5
t-15.5 -105q0 -154 117 -154zM430 498l-113 101l-149 -102l-14 21l124 117q36 35 52 35q14 0 38 -34l84 -119z" />
    <glyph glyph-name="atilde" unicode="&#xe3;" horiz-adv-x="515" 
d="M176 34q-66 0 -66 103q0 115 49.5 196t121.5 81q50 0 96 -43l-9 -47q-22 -114 -82 -202t-110 -88zM152 -11q104 0 181 164h4q-20 -70 -20 -121q0 -42 42 -42q37 0 126 94l-13 17l-86 -53q33 237 81 399h-20l-52 -47q-53 49 -125 49q-55 0 -101 -28.5t-74.5 -74t-44 -98.5
t-15.5 -105q0 -154 117 -154zM448 632l13 -6q-14 -37 -39 -62t-57 -25q-21 0 -60.5 16.5t-58.5 16.5q-36 0 -66 -41l-16 8q14 34 39 62t58 28q19 0 60.5 -17.5t64.5 -17.5q32 0 62 38z" />
    <glyph glyph-name="adieresis" unicode="&#xe4;" horiz-adv-x="515" 
d="M176 34q-66 0 -66 103q0 115 49.5 196t121.5 81q50 0 96 -43l-9 -47q-22 -114 -82 -202t-110 -88zM152 -11q104 0 181 164h4q-20 -70 -20 -121q0 -42 42 -42q37 0 126 94l-13 17l-86 -53q33 237 81 399h-20l-52 -47q-53 49 -125 49q-55 0 -101 -28.5t-74.5 -74t-44 -98.5
t-15.5 -105q0 -154 117 -154zM250 632q16 0 26 -11t10 -28q0 -21 -16 -37t-36 -16q-16 0 -26.5 10.5t-10.5 26.5q0 22 16.5 38.5t36.5 16.5zM415 632q16 0 26 -11t10 -28q0 -21 -16 -37t-36 -16q-16 0 -26.5 10.5t-10.5 26.5q0 21 16 38t37 17z" />
    <glyph glyph-name="aring" unicode="&#xe5;" horiz-adv-x="515" 
d="M176 34q-66 0 -66 103q0 115 49.5 196t121.5 81q50 0 96 -43l-9 -47q-22 -114 -82 -202t-110 -88zM152 -11q104 0 181 164h4q-20 -70 -20 -121q0 -42 42 -42q37 0 126 94l-13 17l-86 -53q33 237 81 399h-20l-52 -47q-53 49 -125 49q-55 0 -101 -28.5t-74.5 -74t-44 -98.5
t-15.5 -105q0 -154 117 -154zM328 692q35 0 56.5 -22.5t21.5 -57.5q0 -47 -33 -81t-79 -34q-36 0 -58.5 22.5t-22.5 57.5q0 45 33.5 80t81.5 35zM323 666q-33 0 -56 -25.5t-23 -58.5q0 -25 14.5 -41.5t40.5 -16.5q31 0 54 23.5t23 56.5q0 27 -14 44.5t-39 17.5z" />
    <glyph glyph-name="ae" unicode="&#xe6;" horiz-adv-x="673" 
d="M437 -11q-97 0 -129 78q-98 -79 -195 -79q-51 0 -77.5 24.5t-26.5 66.5q0 50 23 85t61.5 52.5t76.5 24.5t79 7q30 0 57 -4l14 72q3 15 3 30q0 38 -23.5 55t-58.5 17q-45 0 -77 -20q16 -17 16 -41q0 -23 -13 -39.5t-38 -16.5q-14 0 -25 12t-11 28q0 36 42 71.5t125 35.5
q97 0 121 -67q66 68 164 68q50 0 79 -24.5t29 -68.5q0 -65 -66.5 -107.5t-181.5 -42.5q-20 0 -30 1q-3 -19 -3 -38q0 -59 25.5 -96t70.5 -37q65 0 145 71l16 -15q-87 -103 -192 -103zM144 31q35 0 83 19t72 45q-5 19 -5 49q0 35 6 71q-16 2 -39 2q-86 0 -132 -36t-46 -99
q0 -51 61 -51zM378 236q8 -1 25 -1q84 0 128.5 34.5t44.5 89.5q0 28 -14.5 42t-38.5 14q-48 0 -89 -46t-56 -133z" />
    <glyph glyph-name="ccedilla" unicode="&#xe7;" horiz-adv-x="406" 
d="M292 450q53 0 79.5 -19.5t26.5 -48.5q0 -17 -12.5 -28t-27.5 -11q-28 0 -42.5 18.5t-14.5 43.5q0 9 1 14q-49 0 -88 -27.5t-61 -70t-33 -86.5t-11 -83q0 -118 99 -118q63 0 145 73l16 -15q-79 -94 -178 -102l-27 -49q55 -2 84 -24.5t29 -54.5q0 -42 -43.5 -73.5
t-121.5 -31.5q-26 0 -39 2l4 27q65 0 99 19.5t34 45.5q0 21 -23.5 34t-58.5 14l-8 18l42 73q-59 5 -93 47t-34 112q0 124 69.5 212.5t187.5 88.5z" />
    <glyph glyph-name="egrave" unicode="&#xe8;" horiz-adv-x="414" 
d="M178 -11q-67 0 -105 40.5t-38 114.5q0 53 15 104.5t44 97.5t79 74.5t113 28.5q50 0 79 -24.5t29 -68.5q0 -62 -80.5 -107t-202.5 -66q-10 -69 17 -108t81 -39q65 0 145 71l16 -15q-87 -103 -192 -103zM114 214q79 8 141 49.5t62 95.5q0 28 -13.5 42.5t-35.5 14.5
q-47 0 -93 -57t-61 -145zM355 539l-7 -21q-74 15 -123.5 50.5t-49.5 60.5q0 14 9.5 26t24.5 12q16 0 31.5 -17.5t45.5 -51t69 -59.5z" />
    <glyph glyph-name="eacute" unicode="&#xe9;" horiz-adv-x="414" 
d="M178 -11q-67 0 -105 40.5t-38 114.5q0 53 15 104.5t44 97.5t79 74.5t113 28.5q50 0 79 -24.5t29 -68.5q0 -62 -80.5 -107t-202.5 -66q-10 -69 17 -108t81 -39q65 0 145 71l16 -15q-87 -103 -192 -103zM114 214q79 8 141 49.5t62 95.5q0 28 -13.5 42.5t-35.5 14.5
q-47 0 -93 -57t-61 -145zM221 514l-8 19q47 31 78.5 67.5t48 54t38.5 17.5q13 0 20.5 -9.5t7.5 -21.5q0 -24 -48 -62.5t-137 -64.5z" />
    <glyph glyph-name="ecircumflex" unicode="&#xea;" horiz-adv-x="414" 
d="M178 -11q-67 0 -105 40.5t-38 114.5q0 53 15 104.5t44 97.5t79 74.5t113 28.5q50 0 79 -24.5t29 -68.5q0 -62 -80.5 -107t-202.5 -66q-10 -69 17 -108t81 -39q65 0 145 71l16 -15q-87 -103 -192 -103zM114 214q79 8 141 49.5t62 95.5q0 28 -13.5 42.5t-35.5 14.5
q-47 0 -93 -57t-61 -145zM402 498l-113 101l-149 -102l-14 21l124 117q36 35 52 35q14 0 38 -34l84 -119z" />
    <glyph glyph-name="edieresis" unicode="&#xeb;" horiz-adv-x="414" 
d="M178 -11q-67 0 -105 40.5t-38 114.5q0 53 15 104.5t44 97.5t79 74.5t113 28.5q50 0 79 -24.5t29 -68.5q0 -62 -80.5 -107t-202.5 -66q-10 -69 17 -108t81 -39q65 0 145 71l16 -15q-87 -103 -192 -103zM114 214q79 8 141 49.5t62 95.5q0 28 -13.5 42.5t-35.5 14.5
q-47 0 -93 -57t-61 -145zM221 632q16 0 26 -11t10 -28q0 -21 -16 -37t-36 -16q-16 0 -26.5 10.5t-10.5 26.5q0 22 16.5 38.5t36.5 16.5zM386 632q16 0 26 -11t10 -28q0 -21 -16 -37t-36 -16q-16 0 -26.5 10.5t-10.5 26.5q0 21 16 38t37 17z" />
    <glyph glyph-name="igrave" unicode="&#xec;" horiz-adv-x="266" 
d="M103 -11q17 0 53.5 27.5t75.5 68.5l-13 17l-85 -53l61 303q7 33 7 52q0 47 -44 47q-41 0 -128 -102l15 -17l89 62l-63 -327q-5 -28 -5 -42q0 -21 9 -28.5t28 -7.5zM225 539l-7 -21q-74 15 -123.5 50.5t-49.5 60.5q0 14 9.5 26t24.5 12q16 0 31.5 -17.5t45.5 -51t69 -59.5
z" />
    <glyph glyph-name="iacute" unicode="&#xed;" horiz-adv-x="266" 
d="M103 -11q17 0 53.5 27.5t75.5 68.5l-13 17l-85 -53l61 303q7 33 7 52q0 47 -44 47q-41 0 -128 -102l15 -17l89 62l-63 -327q-5 -28 -5 -42q0 -21 9 -28.5t28 -7.5zM99 514l-8 19q47 31 78.5 67.5t48 54t38.5 17.5q13 0 20.5 -9.5t7.5 -21.5q0 -24 -48 -62.5t-137 -64.5z
" />
    <glyph glyph-name="icircumflex" unicode="&#xee;" horiz-adv-x="266" 
d="M103 -11q17 0 53.5 27.5t75.5 68.5l-13 17l-85 -53l61 303q7 33 7 52q0 47 -44 47q-41 0 -128 -102l15 -17l89 62l-63 -327q-5 -28 -5 -42q0 -21 9 -28.5t28 -7.5zM286 498l-113 101l-149 -102l-14 21l124 117q36 35 52 35q14 0 38 -34l84 -119z" />
    <glyph glyph-name="idieresis" unicode="&#xef;" horiz-adv-x="266" 
d="M103 -11q17 0 53.5 27.5t75.5 68.5l-13 17l-85 -53l61 303q7 33 7 52q0 47 -44 47q-41 0 -128 -102l15 -17l89 62l-63 -327q-5 -28 -5 -42q0 -21 9 -28.5t28 -7.5zM103 632q16 0 26 -11t10 -28q0 -21 -16 -37t-36 -16q-16 0 -26.5 10.5t-10.5 26.5q0 22 16.5 38.5
t36.5 16.5zM268 632q16 0 26 -11t10 -28q0 -21 -16 -37t-36 -16q-16 0 -26.5 10.5t-10.5 26.5q0 21 16 38t37 17z" />
    <glyph glyph-name="eth" unicode="&#xf0;" horiz-adv-x="472" 
d="M370 416l4 3q-14 86 -65 165l-96 -60l-16 26l94 59q-42 57 -99 98l18 26q71 -40 123 -98l109 69l15 -27l-103 -65q95 -118 95 -272q0 -142 -74.5 -246.5t-185.5 -104.5q-154 0 -154 173q0 116 68 201.5t170 85.5q28 0 56 -8.5t41 -24.5zM267 418q-37 0 -68.5 -27t-51 -69
t-30 -89t-10.5 -90q0 -124 91 -124q49 0 88.5 44.5t59 105t19.5 118.5q0 131 -98 131z" />
    <glyph glyph-name="ntilde" unicode="&#xf1;" horiz-adv-x="511" 
d="M202 404q0 47 -44 47q-41 0 -128 -102l15 -17l89 62l-75 -394h67l10 53q15 77 50.5 157t77 132t72.5 52q39 0 39 -49q0 -27 -11 -73l-48 -218q-4 -16 -4 -30q0 -35 40 -35q17 0 53.5 27.5t75.5 68.5l-13 17l-87 -53l58 268q7 31 7 59q0 73 -73 73q-18 0 -40.5 -10.5
t-51 -34.5t-59 -72t-55.5 -113h-4q39 126 39 185zM435 632l13 -6q-14 -37 -39 -62t-57 -25q-21 0 -60.5 16.5t-58.5 16.5q-36 0 -66 -41l-16 8q14 34 39 62t58 28q19 0 60.5 -17.5t64.5 -17.5q32 0 62 38z" />
    <glyph glyph-name="ograve" unicode="&#xf2;" horiz-adv-x="472" 
d="M274 449q77 0 120 -48t43 -125q0 -113 -76 -200t-177 -87q-149 0 -149 174q0 115 69.5 200.5t169.5 85.5zM268 418q-50 0 -88 -46.5t-55 -108t-17 -121.5q0 -123 84 -123q54 0 95.5 49t59 109.5t17.5 114.5q0 126 -96 126zM376 539l-7 -21q-74 15 -123.5 50.5t-49.5 60.5
q0 14 9.5 26t24.5 12q16 0 31.5 -17.5t45.5 -51t69 -59.5z" />
    <glyph glyph-name="oacute" unicode="&#xf3;" horiz-adv-x="472" 
d="M274 449q77 0 120 -48t43 -125q0 -113 -76 -200t-177 -87q-149 0 -149 174q0 115 69.5 200.5t169.5 85.5zM268 418q-50 0 -88 -46.5t-55 -108t-17 -121.5q0 -123 84 -123q54 0 95.5 49t59 109.5t17.5 114.5q0 126 -96 126zM246 514l-8 19q47 31 78.5 67.5t48 54
t38.5 17.5q13 0 20.5 -9.5t7.5 -21.5q0 -24 -48 -62.5t-137 -64.5z" />
    <glyph glyph-name="ocircumflex" unicode="&#xf4;" horiz-adv-x="472" 
d="M274 449q77 0 120 -48t43 -125q0 -113 -76 -200t-177 -87q-149 0 -149 174q0 115 69.5 200.5t169.5 85.5zM268 418q-50 0 -88 -46.5t-55 -108t-17 -121.5q0 -123 84 -123q54 0 95.5 49t59 109.5t17.5 114.5q0 126 -96 126zM430 498l-113 101l-149 -102l-14 21l124 117
q36 35 52 35q14 0 38 -34l84 -119z" />
    <glyph glyph-name="otilde" unicode="&#xf5;" horiz-adv-x="472" 
d="M274 449q77 0 120 -48t43 -125q0 -113 -76 -200t-177 -87q-149 0 -149 174q0 115 69.5 200.5t169.5 85.5zM268 418q-50 0 -88 -46.5t-55 -108t-17 -121.5q0 -123 84 -123q54 0 95.5 49t59 109.5t17.5 114.5q0 126 -96 126zM455 632l13 -6q-14 -37 -39 -62t-57 -25
q-21 0 -60.5 16.5t-58.5 16.5q-36 0 -66 -41l-16 8q14 34 39 62t58 28q19 0 60.5 -17.5t64.5 -17.5q32 0 62 38z" />
    <glyph glyph-name="odieresis" unicode="&#xf6;" horiz-adv-x="472" 
d="M274 449q77 0 120 -48t43 -125q0 -113 -76 -200t-177 -87q-149 0 -149 174q0 115 69.5 200.5t169.5 85.5zM268 418q-50 0 -88 -46.5t-55 -108t-17 -121.5q0 -123 84 -123q54 0 95.5 49t59 109.5t17.5 114.5q0 126 -96 126zM253 632q16 0 26 -11t10 -28q0 -21 -16 -37
t-36 -16q-16 0 -26.5 10.5t-10.5 26.5q0 22 16.5 38.5t36.5 16.5zM418 632q16 0 26 -11t10 -28q0 -21 -16 -37t-36 -16q-16 0 -26.5 10.5t-10.5 26.5q0 21 16 38t37 17z" />
    <glyph glyph-name="divide" unicode="&#xf7;" 
d="M290 491q17 0 28.5 -12t11.5 -31q0 -24 -18 -42t-40 -18q-17 0 -28 12t-11 29q0 25 17.5 43.5t39.5 18.5zM238 193q17 0 28 -12t11 -30q0 -25 -18 -43t-40 -18q-17 0 -28 11.5t-11 29.5q0 24 18 43t40 19zM437 269h-375l8 47h375z" />
    <glyph glyph-name="oslash" unicode="&#xf8;" horiz-adv-x="472" 
d="M274 449q68 0 113 -42l44 53l18 -16l-46 -55q34 -46 34 -113q0 -113 -76 -200t-177 -87q-57 0 -94 27l-43 -51l-18 17l43 51q-37 44 -37 130q0 115 69.5 200.5t169.5 85.5zM268 418q-50 0 -88 -46.5t-55 -108t-17 -121.5q0 -37 6 -60l237 283q-22 53 -83 53zM364 292
q0 26 -4 46l-237 -282q20 -37 69 -37q54 0 95.5 49t59 109.5t17.5 114.5z" />
    <glyph glyph-name="ugrave" unicode="&#xf9;" horiz-adv-x="505" 
d="M449 434l-6 6l-60 -4l-11 -53q-24 -112 -85.5 -226.5t-105.5 -114.5q-39 0 -39 49q0 29 11 73l43 197q8 40 8 52q0 38 -43 38q-21 0 -57 -29t-74 -73l15 -17l89 62l-56 -275q-7 -31 -7 -59q0 -73 73 -73q42 0 95 49.5t101 172.5h4l-18 -64q-19 -66 -19 -112q0 -42 42 -42
q37 0 126 94l-13 17l-86 -53zM365 539l-7 -21q-74 15 -123.5 50.5t-49.5 60.5q0 14 9.5 26t24.5 12q16 0 31.5 -17.5t45.5 -51t69 -59.5z" />
    <glyph glyph-name="uacute" unicode="&#xfa;" horiz-adv-x="505" 
d="M449 434l-6 6l-60 -4l-11 -53q-24 -112 -85.5 -226.5t-105.5 -114.5q-39 0 -39 49q0 29 11 73l43 197q8 40 8 52q0 38 -43 38q-21 0 -57 -29t-74 -73l15 -17l89 62l-56 -275q-7 -31 -7 -59q0 -73 73 -73q42 0 95 49.5t101 172.5h4l-18 -64q-19 -66 -19 -112q0 -42 42 -42
q37 0 126 94l-13 17l-86 -53zM245 514l-8 19q47 31 78.5 67.5t48 54t38.5 17.5q13 0 20.5 -9.5t7.5 -21.5q0 -24 -48 -62.5t-137 -64.5z" />
    <glyph glyph-name="ucircumflex" unicode="&#xfb;" horiz-adv-x="505" 
d="M449 434l-6 6l-60 -4l-11 -53q-24 -112 -85.5 -226.5t-105.5 -114.5q-39 0 -39 49q0 29 11 73l43 197q8 40 8 52q0 38 -43 38q-21 0 -57 -29t-74 -73l15 -17l89 62l-56 -275q-7 -31 -7 -59q0 -73 73 -73q42 0 95 49.5t101 172.5h4l-18 -64q-19 -66 -19 -112q0 -42 42 -42
q37 0 126 94l-13 17l-86 -53zM427 498l-113 101l-149 -102l-14 21l124 117q36 35 52 35q14 0 38 -34l84 -119z" />
    <glyph glyph-name="udieresis" unicode="&#xfc;" horiz-adv-x="505" 
d="M449 434l-6 6l-60 -4l-11 -53q-24 -112 -85.5 -226.5t-105.5 -114.5q-39 0 -39 49q0 29 11 73l43 197q8 40 8 52q0 38 -43 38q-21 0 -57 -29t-74 -73l15 -17l89 62l-56 -275q-7 -31 -7 -59q0 -73 73 -73q42 0 95 49.5t101 172.5h4l-18 -64q-19 -66 -19 -112q0 -42 42 -42
q37 0 126 94l-13 17l-86 -53zM244 632q16 0 26 -11t10 -28q0 -21 -16 -37t-36 -16q-16 0 -26.5 10.5t-10.5 26.5q0 22 16.5 38.5t36.5 16.5zM409 632q16 0 26 -11t10 -28q0 -21 -16 -37t-36 -16q-16 0 -26.5 10.5t-10.5 26.5q0 21 16 38t37 17z" />
    <glyph glyph-name="yacute" unicode="&#xfd;" horiz-adv-x="423" 
d="M358 456q20 0 35 -15t15 -45q0 -71 -46 -176t-115 -201t-158.5 -164.5t-166.5 -68.5q-29 0 -55.5 15.5t-26.5 42.5q0 22 15 34.5t33 12.5q24 0 41 -22.5t17 -50.5q74 7 190 118q-7 112 -24 254.5t-30 203.5l-75 -83l-19 14q65 124 116 124q38 0 47 -39q20 -85 46 -405
q69 82 113 174.5t60 164.5q-25 5 -40 23.5t-15 44.5q0 14 10 29t33 15zM197 514l-8 19q47 31 78.5 67.5t48 54t38.5 17.5q13 0 20.5 -9.5t7.5 -21.5q0 -24 -48 -62.5t-137 -64.5z" />
    <glyph glyph-name="thorn" unicode="&#xfe;" horiz-adv-x="502" 
d="M23 -108l135 721q5 25 0 35.5t-29 17.5q-4 1 -9.5 2.5t-8.5 2t-7 1.5t-5.5 2t-4.5 2t-4 2l-2.5 2.5t-1.5 3t-0.5 4t0.5 4.5l2 10l154 22l3 -4l-57 -291q-19 -96 -44 -181h4q34 92 91.5 146.5t110.5 54.5q117 0 117 -154q0 -52 -15.5 -105t-44 -98.5t-74.5 -74t-101 -28.5
q-75 0 -119 34l-26 -133q-4 -22 3.5 -35t22 -17t29 -6t24.5 -6.5t8 -14.5l-2 -13h-247l2 14q1 10 14.5 15t29.5 7.5t31.5 17t20.5 40.5zM221 22q72 0 121.5 81.5t49.5 197.5q0 103 -66 103q-51 0 -109.5 -83t-82.5 -207l-11 -56q39 -36 98 -36z" />
    <glyph glyph-name="ydieresis" unicode="&#xff;" horiz-adv-x="423" 
d="M358 456q20 0 35 -15t15 -45q0 -71 -46 -176t-115 -201t-158.5 -164.5t-166.5 -68.5q-29 0 -55.5 15.5t-26.5 42.5q0 22 15 34.5t33 12.5q24 0 41 -22.5t17 -50.5q74 7 190 118q-7 112 -24 254.5t-30 203.5l-75 -83l-19 14q65 124 116 124q38 0 47 -39q20 -85 46 -405
q69 82 113 174.5t60 164.5q-25 5 -40 23.5t-15 44.5q0 14 10 29t33 15zM188 632q16 0 26 -11t10 -28q0 -21 -16 -37t-36 -16q-16 0 -26.5 10.5t-10.5 26.5q0 22 16.5 38.5t36.5 16.5zM353 632q16 0 26 -11t10 -28q0 -21 -16 -37t-36 -16q-16 0 -26.5 10.5t-10.5 26.5
q0 21 16 38t37 17z" />
    <glyph glyph-name="Amacron" unicode="&#x100;" horiz-adv-x="627" 
d="M164 215l-50 -97q-20 -37 -14.5 -55.5t20 -23t29 -10t12.5 -15.5l-2 -14h-199l2 13q2 11 13.5 16.5t26.5 9.5t36.5 23.5t39.5 52.5l300 564h26l111 -568q6 -33 20 -51.5t26.5 -21.5t21.5 -9.5t8 -19.5l-1 -9h-215l1 12q1 11 13.5 16t26.5 7.5t22.5 19t2.5 47.5l-21 113
h-256zM357 574h-4l-173 -329h233l-27 136q-24 127 -29 193zM546 823l-20 -57q-100 10 -255 0l15 42q54 9 260 15z" />
    <glyph glyph-name="amacron" unicode="&#x101;" horiz-adv-x="515" 
d="M176 34q-66 0 -66 103q0 115 49.5 196t121.5 81q50 0 96 -43l-9 -47q-22 -114 -82 -202t-110 -88zM152 -11q104 0 181 164h4q-20 -70 -20 -121q0 -42 42 -42q37 0 126 94l-13 17l-86 -53q33 237 81 399h-20l-52 -47q-53 49 -125 49q-55 0 -101 -28.5t-74.5 -74t-44 -98.5
t-15.5 -105q0 -154 117 -154zM447 615l-19 -54q-96 9 -246 0l14 39q57 9 251 15z" />
    <glyph glyph-name="Abreve" unicode="&#x102;" horiz-adv-x="627" 
d="M164 215l-50 -97q-20 -37 -14.5 -55.5t20 -23t29 -10t12.5 -15.5l-2 -14h-199l2 13q2 11 13.5 16.5t26.5 9.5t36.5 23.5t39.5 52.5l300 564h26l111 -568q6 -33 20 -51.5t26.5 -21.5t21.5 -9.5t8 -19.5l-1 -9h-215l1 12q1 11 13.5 16t26.5 7.5t22.5 19t2.5 47.5l-21 113
h-256zM357 574h-4l-173 -329h233l-27 136q-24 127 -29 193zM542 863l22 -6q-58 -130 -163 -130q-57 0 -85 38t-21 106l24 7q15 -95 88 -95q79 0 135 80z" />
    <glyph glyph-name="abreve" unicode="&#x103;" horiz-adv-x="515" 
d="M176 34q-66 0 -66 103q0 115 49.5 196t121.5 81q50 0 96 -43l-9 -47q-22 -114 -82 -202t-110 -88zM152 -11q104 0 181 164h4q-20 -70 -20 -121q0 -42 42 -42q37 0 126 94l-13 17l-86 -53q33 237 81 399h-20l-52 -47q-53 49 -125 49q-55 0 -101 -28.5t-74.5 -74t-44 -98.5
t-15.5 -105q0 -154 117 -154zM441 652l22 -6q-64 -137 -167 -137q-57 0 -86 39.5t-20 111.5l24 7q8 -54 29 -78t59 -24q71 0 139 87z" />
    <glyph glyph-name="Aogonek" unicode="&#x104;" horiz-adv-x="627" 
d="M164 215l-50 -97q-20 -37 -14.5 -55.5t20 -23t29 -10t12.5 -15.5l-2 -14h-199l2 13q2 11 13.5 16.5t26.5 9.5t36.5 23.5t39.5 52.5l300 564h26l111 -568q6 -33 20 -51.5t26.5 -21.5t21.5 -9.5t8 -19.5l-1 -9h-215l1 12q1 11 13.5 16t26.5 7.5t22.5 19t2.5 47.5l-21 113
h-256zM357 574h-4l-173 -329h233l-27 136q-24 127 -29 193zM532 13l7 -10q-40 -34 -64.5 -72.5t-24.5 -66.5q0 -46 72 -46q22 0 62 7l2 -24q-59 -27 -114 -27q-87 0 -87 63q0 37 35.5 86t111.5 90z" />
    <glyph glyph-name="aogonek" unicode="&#x105;" horiz-adv-x="515" 
d="M152 -11q-117 0 -117 154q0 52 15.5 105t44 98.5t74.5 74t101 28.5q72 0 125 -49l52 47h20q-48 -162 -81 -399l86 53l13 -17q-89 -94 -126 -94q-19 0 -30 8q-66 -66 -66 -118q0 -46 72 -46q22 0 62 7l2 -24q-59 -27 -114 -27q-87 0 -87 63q0 34 29 78.5t92 82.5
q-2 5 -2 18q0 51 20 121h-4q-77 -164 -181 -164zM176 34q50 0 110 88t82 202l9 47q-46 43 -96 43q-72 0 -121.5 -81t-49.5 -196q0 -103 66 -103z" />
    <glyph glyph-name="Cacute" unicode="&#x106;" horiz-adv-x="623" 
d="M426 683q94 0 168 -54l32 54h17l-38 -221h-9q-13 0 -18.5 19.5t-10.5 47t-16 55.5t-42.5 47.5t-82.5 19.5q-88 0 -153 -57t-97 -147t-32 -199q0 -103 42.5 -165t129.5 -62q53 0 94 16t62.5 40t38 52t25 52t19 40t23.5 16h9l-43 -243h-18l-17 59q-93 -63 -201 -63
q-118 0 -185.5 76.5t-67.5 196.5q0 177 106.5 298.5t264.5 121.5zM368 743l-5 22q48 23 82 52t51.5 44.5t38.5 15.5q13 0 19.5 -9t6.5 -21q0 -10 -10 -23.5t-30.5 -29.5t-60.5 -30t-92 -21z" />
    <glyph glyph-name="cacute" unicode="&#x107;" horiz-adv-x="406" 
d="M292 450q-118 0 -187.5 -88.5t-69.5 -212.5q0 -74 38 -117t104 -43q105 0 192 103l-16 15q-82 -73 -145 -73q-99 0 -99 118q0 39 11 83t33 86.5t61 70t88 27.5q-1 -5 -1 -14q0 -25 14.5 -43.5t42.5 -18.5q15 0 27.5 11t12.5 28q0 29 -26.5 48.5t-79.5 19.5zM212 514
l-8 19q47 31 78.5 67.5t48 54t38.5 17.5q13 0 20.5 -9.5t7.5 -21.5q0 -24 -48 -62.5t-137 -64.5z" />
    <glyph glyph-name="Ccircumflex" unicode="&#x108;" horiz-adv-x="623" 
d="M426 683q94 0 168 -54l32 54h17l-38 -221h-9q-13 0 -18.5 19.5t-10.5 47t-16 55.5t-42.5 47.5t-82.5 19.5q-88 0 -153 -57t-97 -147t-32 -199q0 -103 42.5 -165t129.5 -62q53 0 94 16t62.5 40t38 52t25 52t19 40t23.5 16h9l-43 -243h-18l-17 59q-93 -63 -201 -63
q-118 0 -185.5 76.5t-67.5 196.5q0 177 106.5 298.5t264.5 121.5zM560 731l-125 82l-152 -83l-12 22l125 100q41 34 52 34q3 0 5 -0.5t5 -2.5t5 -3.5t5.5 -5t5.5 -6t7 -7.5l8 -8l92 -100z" />
    <glyph glyph-name="ccircumflex" unicode="&#x109;" horiz-adv-x="406" 
d="M292 450q-118 0 -187.5 -88.5t-69.5 -212.5q0 -74 38 -117t104 -43q105 0 192 103l-16 15q-82 -73 -145 -73q-99 0 -99 118q0 39 11 83t33 86.5t61 70t88 27.5q-1 -5 -1 -14q0 -25 14.5 -43.5t42.5 -18.5q15 0 27.5 11t12.5 28q0 29 -26.5 48.5t-79.5 19.5zM393 498
l-113 101l-149 -102l-14 21l124 117q36 35 52 35q14 0 38 -34l84 -119z" />
    <glyph glyph-name="Cdotaccent" unicode="&#x10a;" horiz-adv-x="623" 
d="M426 683q94 0 168 -54l32 54h17l-38 -221h-9q-13 0 -18.5 19.5t-10.5 47t-16 55.5t-42.5 47.5t-82.5 19.5q-88 0 -153 -57t-97 -147t-32 -199q0 -103 42.5 -165t129.5 -62q53 0 94 16t62.5 40t38 52t25 52t19 40t23.5 16h9l-43 -243h-18l-17 59q-93 -63 -201 -63
q-118 0 -185.5 76.5t-67.5 196.5q0 177 106.5 298.5t264.5 121.5zM447 849q18 0 29 -12.5t11 -30.5q0 -25 -18.5 -43.5t-40.5 -18.5q-17 0 -28 12t-11 30q0 24 17.5 43.5t40.5 19.5z" />
    <glyph glyph-name="cdotaccent" unicode="&#x10b;" horiz-adv-x="406" 
d="M292 450q-118 0 -187.5 -88.5t-69.5 -212.5q0 -74 38 -117t104 -43q105 0 192 103l-16 15q-82 -73 -145 -73q-99 0 -99 118q0 39 11 83t33 86.5t61 70t88 27.5q-1 -5 -1 -14q0 -25 14.5 -43.5t42.5 -18.5q15 0 27.5 11t12.5 28q0 29 -26.5 48.5t-79.5 19.5zM302 641
q18 0 29 -12.5t11 -30.5q0 -25 -18.5 -43.5t-40.5 -18.5q-17 0 -28 12t-11 30q0 24 17.5 43.5t40.5 19.5z" />
    <glyph glyph-name="Ccaron" unicode="&#x10c;" horiz-adv-x="623" 
d="M426 683q94 0 168 -54l32 54h17l-38 -221h-9q-13 0 -18.5 19.5t-10.5 47t-16 55.5t-42.5 47.5t-82.5 19.5q-88 0 -153 -57t-97 -147t-32 -199q0 -103 42.5 -165t129.5 -62q53 0 94 16t62.5 40t38 52t25 52t19 40t23.5 16h9l-43 -243h-18l-17 59q-93 -63 -201 -63
q-118 0 -185.5 76.5t-67.5 196.5q0 177 106.5 298.5t264.5 121.5zM438 798l156 87l13 -22l-129 -105q-40 -33 -53 -33q-8 0 -15 6.5t-25 27.5l-88 105l20 22z" />
    <glyph glyph-name="ccaron" unicode="&#x10d;" horiz-adv-x="406" 
d="M292 450q-118 0 -187.5 -88.5t-69.5 -212.5q0 -74 38 -117t104 -43q105 0 192 103l-16 15q-82 -73 -145 -73q-99 0 -99 118q0 39 11 83t33 86.5t61 70t88 27.5q-1 -5 -1 -14q0 -25 14.5 -43.5t42.5 -18.5q15 0 27.5 11t12.5 28q0 29 -26.5 48.5t-79.5 19.5zM285 568
l149 103l14 -21l-126 -117q-35 -34 -50 -34q-13 0 -38 35l-84 117l22 21z" />
    <glyph glyph-name="Dcaron" unicode="&#x10e;" horiz-adv-x="656" 
d="M235 0h-245l2 15q2 11 14.5 16t27 7t29 17t19.5 45l84 474q5 29 -5 44t-25 17t-27.5 7t-11.5 16l2 16h226q150 0 233 -67.5t83 -206.5q0 -40 -10 -87t-39 -104t-72 -102.5t-117.5 -76t-167.5 -30.5zM252 642l-97 -546q-1 -6 -1 -18q0 -46 62 -46h34q47 0 96.5 19.5t99 61
t81.5 120.5t32 184q0 109 -66 167t-186 58h-55zM387 798l156 87l13 -22l-129 -105q-41 -33 -53 -33q-8 0 -15 6.5t-25 27.5l-88 105l20 22z" />
    <glyph glyph-name="dcaron" unicode="&#x10f;" horiz-adv-x="514" 
d="M632 736q17 0 28 -11t11 -30q0 -33 -37 -78.5t-89 -70.5l-9 18q57 45 69 90q-25 7 -25 31q0 20 15 35.5t37 15.5zM281 416q-72 0 -121.5 -81.5t-49.5 -197.5q0 -103 66 -103q50 0 109.5 87t82.5 205l11 54q-39 36 -98 36zM389 415l38 198q6 25 0.5 35.5t-29.5 17.5
q-4 1 -9.5 2.5t-8.5 2t-7 1.5t-5.5 2t-4.5 2t-4 2l-2.5 2.5t-1.5 3t-0.5 4t0.5 4.5l2 10l154 22l3 -4l-53 -271q-69 -353 -75 -400l86 53l13 -17q-89 -94 -126 -94q-42 0 -42 42q0 50 20 120h-4q-77 -164 -181 -164q-117 0 -117 154q0 52 15.5 105t44 98.5t74.5 74t101 28.5
q75 0 119 -34z" />
    <glyph glyph-name="Dcroat" unicode="&#x110;" horiz-adv-x="656" 
d="M235 0h-245l2 15q2 11 14.5 16t27 7t29 17t19.5 45l41 235h-62l5 33h63l37 206q5 29 -5 44t-25 17t-27.5 7t-11.5 16l2 16h226q150 0 233 -67.5t83 -206.5q0 -40 -10 -87t-39 -104t-72 -102.5t-117.5 -76t-167.5 -30.5zM252 642l-49 -274h169l-5 -33h-170l-42 -239
q-1 -6 -1 -18q0 -46 62 -46h34q47 0 96.5 19.5t99 61t81.5 120.5t32 184q0 109 -66 167t-186 58h-55z" />
    <glyph glyph-name="dcroat" unicode="&#x111;" horiz-adv-x="514" 
d="M389 415l23 122h-173l6 33h174l8 43q6 25 0.5 35.5t-29.5 17.5q-4 1 -9.5 2.5t-8.5 2t-7 1.5t-5.5 2t-4.5 2t-4 2l-2.5 2.5t-1.5 3t-0.5 4t0.5 4.5l2 10l154 22l3 -4l-30 -150h71l-6 -33h-71l-17 -88q-69 -353 -75 -400l86 53l13 -17q-89 -94 -126 -94q-42 0 -42 42
q0 50 20 120h-4q-77 -164 -181 -164q-117 0 -117 154q0 52 15.5 105t44 98.5t74.5 74t101 28.5q75 0 119 -34zM281 416q-72 0 -121.5 -81.5t-49.5 -197.5q0 -103 66 -103q50 0 109.5 87t82.5 205l11 54q-39 36 -98 36z" />
    <glyph glyph-name="Emacron" unicode="&#x112;" horiz-adv-x="586" 
d="M222 32h94q73 0 117 39t101 138q14 25 27 21l12 -3l-86 -224l-7 -7q-142 4 -485 4l2 15q2 11 14.5 16t27 7t29 17t19.5 45l84 474q5 29 -5 44t-25 17t-27 7t-11 16l2 16q329 0 473 8l3 -5l-13 -173l-9 -1q-17 -1 -21 16q-20 86 -41 104.5t-91 18.5h-149l-48 -272h104
q35 0 57 17.5t28.5 38t14.5 38t19 17.5h10l-46 -265h-7q-12 0 -16 19t-4 42t-14.5 42t-46.5 19h-105l-42 -241q-6 -33 7 -49t54 -16zM527 823l-20 -57q-100 10 -255 0l15 42q54 9 260 15z" />
    <glyph glyph-name="emacron" unicode="&#x113;" horiz-adv-x="414" 
d="M178 -11q-67 0 -105 40.5t-38 114.5q0 53 15 104.5t44 97.5t79 74.5t113 28.5q50 0 79 -24.5t29 -68.5q0 -62 -80.5 -107t-202.5 -66q-10 -69 17 -108t81 -39q65 0 145 71l16 -15q-87 -103 -192 -103zM114 214q79 8 141 49.5t62 95.5q0 28 -13.5 42.5t-35.5 14.5
q-47 0 -93 -57t-61 -145zM418 615l-19 -54q-96 9 -246 0l14 39q57 9 251 15z" />
    <glyph glyph-name="Ebreve" unicode="&#x114;" horiz-adv-x="586" 
d="M222 32h94q73 0 117 39t101 138q14 25 27 21l12 -3l-86 -224l-7 -7q-142 4 -485 4l2 15q2 11 14.5 16t27 7t29 17t19.5 45l84 474q5 29 -5 44t-25 17t-27 7t-11 16l2 16q329 0 473 8l3 -5l-13 -173l-9 -1q-17 -1 -21 16q-20 86 -41 104.5t-91 18.5h-149l-48 -272h104
q35 0 57 17.5t28.5 38t14.5 38t19 17.5h10l-46 -265h-7q-12 0 -16 19t-4 42t-14.5 42t-46.5 19h-105l-42 -241q-6 -33 7 -49t54 -16zM500 863l22 -6q-58 -130 -163 -130q-57 0 -85 38t-21 106l24 7q15 -95 88 -95q79 0 135 80z" />
    <glyph glyph-name="ebreve" unicode="&#x115;" horiz-adv-x="414" 
d="M178 -11q-67 0 -105 40.5t-38 114.5q0 53 15 104.5t44 97.5t79 74.5t113 28.5q50 0 79 -24.5t29 -68.5q0 -62 -80.5 -107t-202.5 -66q-10 -69 17 -108t81 -39q65 0 145 71l16 -15q-87 -103 -192 -103zM114 214q79 8 141 49.5t62 95.5q0 28 -13.5 42.5t-35.5 14.5
q-47 0 -93 -57t-61 -145zM413 652l22 -6q-64 -137 -167 -137q-57 0 -86 39.5t-20 111.5l24 7q8 -54 29 -78t59 -24q71 0 139 87z" />
    <glyph glyph-name="Edotaccent" unicode="&#x116;" horiz-adv-x="586" 
d="M222 32h94q73 0 117 39t101 138q14 25 27 21l12 -3l-86 -224l-7 -7q-142 4 -485 4l2 15q2 11 14.5 16t27 7t29 17t19.5 45l84 474q5 29 -5 44t-25 17t-27 7t-11 16l2 16q329 0 473 8l3 -5l-13 -173l-9 -1q-17 -1 -21 16q-20 86 -41 104.5t-91 18.5h-149l-48 -272h104
q35 0 57 17.5t28.5 38t14.5 38t19 17.5h10l-46 -265h-7q-12 0 -16 19t-4 42t-14.5 42t-46.5 19h-105l-42 -241q-6 -33 7 -49t54 -16zM383 847q18 0 29 -12.5t11 -30.5q0 -25 -18.5 -43.5t-40.5 -18.5q-17 0 -28 12t-11 30q0 24 17.5 43.5t40.5 19.5z" />
    <glyph glyph-name="edotaccent" unicode="&#x117;" horiz-adv-x="414" 
d="M178 -11q-67 0 -105 40.5t-38 114.5q0 53 15 104.5t44 97.5t79 74.5t113 28.5q50 0 79 -24.5t29 -68.5q0 -62 -80.5 -107t-202.5 -66q-10 -69 17 -108t81 -39q65 0 145 71l16 -15q-87 -103 -192 -103zM114 214q79 8 141 49.5t62 95.5q0 28 -13.5 42.5t-35.5 14.5
q-47 0 -93 -57t-61 -145zM311 641q18 0 29 -12.5t11 -30.5q0 -25 -18.5 -43.5t-40.5 -18.5q-17 0 -28 12t-11 30q0 24 17.5 43.5t40.5 19.5z" />
    <glyph glyph-name="Eogonek" unicode="&#x118;" horiz-adv-x="586" 
d="M222 32h94q73 0 117 39t101 138q14 25 27 21l12 -3l-86 -224l-7 -7q-142 4 -485 4l2 15q2 11 14.5 16t27 7t29 17t19.5 45l84 474q5 29 -5 44t-25 17t-27 7t-11 16l2 16q329 0 473 8l3 -5l-13 -173l-9 -1q-17 -1 -21 16q-20 86 -41 104.5t-91 18.5h-149l-48 -272h104
q35 0 57 17.5t28.5 38t14.5 38t19 17.5h10l-46 -265h-7q-12 0 -16 19t-4 42t-14.5 42t-46.5 19h-105l-42 -241q-6 -33 7 -49t54 -16zM434 15l7 -10q-40 -34 -64.5 -72.5t-24.5 -66.5q0 -46 72 -46q22 0 62 7l2 -24q-59 -27 -114 -27q-87 0 -87 63q0 37 35.5 86t111.5 90z
" />
    <glyph glyph-name="eogonek" unicode="&#x119;" horiz-adv-x="414" 
d="M178 -11q-67 0 -105 40.5t-38 114.5q0 53 15 104.5t44 97.5t79 74.5t113 28.5q50 0 79 -24.5t29 -68.5q0 -62 -80.5 -107t-202.5 -66q-10 -69 17 -108t81 -39q65 0 145 71l16 -15q-87 -103 -192 -103zM114 214q79 8 141 49.5t62 95.5q0 28 -13.5 42.5t-35.5 14.5
q-47 0 -93 -57t-61 -145zM279 32l7 -10q-40 -34 -64.5 -72.5t-24.5 -66.5q0 -46 72 -46q22 0 62 7l2 -24q-59 -27 -114 -27q-87 0 -87 63q0 37 35.5 86t111.5 90z" />
    <glyph glyph-name="Ecaron" unicode="&#x11a;" horiz-adv-x="586" 
d="M222 32h94q73 0 117 39t101 138q14 25 27 21l12 -3l-86 -224l-7 -7q-142 4 -485 4l2 15q2 11 14.5 16t27 7t29 17t19.5 45l84 474q5 29 -5 44t-25 17t-27 7t-11 16l2 16q329 0 473 8l3 -5l-13 -173l-9 -1q-17 -1 -21 16q-20 86 -41 104.5t-91 18.5h-149l-48 -272h104
q35 0 57 17.5t28.5 38t14.5 38t19 17.5h10l-46 -265h-7q-12 0 -16 19t-4 42t-14.5 42t-46.5 19h-105l-42 -241q-6 -33 7 -49t54 -16zM372 798l156 87l13 -22l-129 -105q-40 -33 -53 -33q-8 0 -15 6.5t-25 27.5l-88 105l20 22z" />
    <glyph glyph-name="ecaron" unicode="&#x11b;" horiz-adv-x="414" 
d="M178 -11q-67 0 -105 40.5t-38 114.5q0 53 15 104.5t44 97.5t79 74.5t113 28.5q50 0 79 -24.5t29 -68.5q0 -62 -80.5 -107t-202.5 -66q-10 -69 17 -108t81 -39q65 0 145 71l16 -15q-87 -103 -192 -103zM114 214q79 8 141 49.5t62 95.5q0 28 -13.5 42.5t-35.5 14.5
q-47 0 -93 -57t-61 -145zM288 568l149 103l14 -21l-126 -117q-35 -34 -50 -34q-13 0 -38 35l-84 117l22 21z" />
    <glyph glyph-name="Gcircumflex" unicode="&#x11c;" horiz-adv-x="682" 
d="M545 25l-33 28q-102 -63 -205 -63q-120 0 -186 74t-66 197q0 175 106 298.5t266 123.5q101 0 175 -55l36 55h17l-38 -216h-7q-10 0 -14 8t-9 32q-14 73 -48 108.5t-113 35.5q-131 0 -206.5 -116t-75.5 -289q0 -103 41.5 -164t129.5 -61q105 0 189 92l20 111q4 20 -8.5 32
t-29 15t-30 9.5t-11.5 17.5l3 14h231l-3 -15q-2 -10 -13.5 -15t-25.5 -7.5t-27.5 -16t-17.5 -37.5l-33 -190zM579 728l-125 82l-152 -83l-12 22l125 100q41 34 52 34q3 0 5 -0.5t5 -2.5t5 -3.5t5.5 -5t5.5 -6t7 -7.5l8 -8l92 -100z" />
    <glyph glyph-name="gcircumflex" unicode="&#x11d;" horiz-adv-x="427" 
d="M54 244q0 91 55 148t134 57q43 0 83 -17q56 57 102 57q20 0 32 -9.5t12 -25.5q0 -17 -11.5 -26.5t-27.5 -9.5q-34 0 -43 32q-27 -8 -50 -27q46 -36 46 -106q0 -82 -56 -138t-142 -56q-37 0 -71 14q-41 -26 -41 -49q0 -14 30.5 -18.5t73.5 -6t86 -7t73.5 -28t30.5 -63.5
q0 -64 -66.5 -120.5t-177.5 -56.5q-50 0 -86.5 12t-53.5 31.5t-24 38t-7 36.5q0 39 20 57t40 18q33 0 33 -34q0 -20 -15 -38t-41 -24q27 -66 133 -66q61 0 115.5 37.5t54.5 93.5q0 37 -44.5 54.5t-98.5 19t-98.5 11t-44.5 32.5q0 18 24 40t67 39q-46 31 -46 98zM249 419
q-53 0 -88.5 -53t-35.5 -124q0 -41 18 -65.5t54 -24.5q51 0 85.5 56.5t34.5 123.5q0 87 -68 87zM386 514l-113 101l-149 -102l-14 21l124 117q36 35 52 35q14 0 38 -34l84 -119z" />
    <glyph glyph-name="Gbreve" unicode="&#x11e;" horiz-adv-x="682" 
d="M545 25l-33 28q-102 -63 -205 -63q-120 0 -186 74t-66 197q0 175 106 298.5t266 123.5q101 0 175 -55l36 55h17l-38 -216h-7q-10 0 -14 8t-9 32q-14 73 -48 108.5t-113 35.5q-131 0 -206.5 -116t-75.5 -289q0 -103 41.5 -164t129.5 -61q105 0 189 92l20 111q4 20 -8.5 32
t-29 15t-30 9.5t-11.5 17.5l3 14h231l-3 -15q-2 -10 -13.5 -15t-25.5 -7.5t-27.5 -16t-17.5 -37.5l-33 -190zM581 863l22 -6q-59 -130 -163 -130q-57 0 -85 38t-21 106l24 7q15 -95 88 -95q79 0 135 80z" />
    <glyph glyph-name="gbreve" unicode="&#x11f;" horiz-adv-x="427" 
d="M54 244q0 91 55 148t134 57q43 0 83 -17q56 57 102 57q20 0 32 -9.5t12 -25.5q0 -17 -11.5 -26.5t-27.5 -9.5q-34 0 -43 32q-27 -8 -50 -27q46 -36 46 -106q0 -82 -56 -138t-142 -56q-37 0 -71 14q-41 -26 -41 -49q0 -14 30.5 -18.5t73.5 -6t86 -7t73.5 -28t30.5 -63.5
q0 -64 -66.5 -120.5t-177.5 -56.5q-50 0 -86.5 12t-53.5 31.5t-24 38t-7 36.5q0 39 20 57t40 18q33 0 33 -34q0 -20 -15 -38t-41 -24q27 -66 133 -66q61 0 115.5 37.5t54.5 93.5q0 37 -44.5 54.5t-98.5 19t-98.5 11t-44.5 32.5q0 18 24 40t67 39q-46 31 -46 98zM249 419
q-53 0 -88.5 -53t-35.5 -124q0 -41 18 -65.5t54 -24.5q51 0 85.5 56.5t34.5 123.5q0 87 -68 87zM406 654l22 -6q-64 -137 -167 -137q-57 0 -86 39.5t-20 111.5l24 7q8 -54 29 -78t59 -24q71 0 139 87z" />
    <glyph glyph-name="Gdotaccent" unicode="&#x120;" horiz-adv-x="682" 
d="M545 25l-33 28q-102 -63 -205 -63q-120 0 -186 74t-66 197q0 175 106 298.5t266 123.5q101 0 175 -55l36 55h17l-38 -216h-7q-10 0 -14 8t-9 32q-14 73 -48 108.5t-113 35.5q-131 0 -206.5 -116t-75.5 -289q0 -103 41.5 -164t129.5 -61q105 0 189 92l20 111q4 20 -8.5 32
t-29 15t-30 9.5t-11.5 17.5l3 14h231l-3 -15q-2 -10 -13.5 -15t-25.5 -7.5t-27.5 -16t-17.5 -37.5l-33 -190zM453 846q18 0 29 -12.5t11 -30.5q0 -25 -18.5 -43.5t-40.5 -18.5q-17 0 -28 12t-11 30q0 24 17.5 43.5t40.5 19.5z" />
    <glyph glyph-name="gdotaccent" unicode="&#x121;" horiz-adv-x="427" 
d="M54 244q0 91 55 148t134 57q43 0 83 -17q56 57 102 57q20 0 32 -9.5t12 -25.5q0 -17 -11.5 -26.5t-27.5 -9.5q-34 0 -43 32q-27 -8 -50 -27q46 -36 46 -106q0 -82 -56 -138t-142 -56q-37 0 -71 14q-41 -26 -41 -49q0 -14 30.5 -18.5t73.5 -6t86 -7t73.5 -28t30.5 -63.5
q0 -64 -66.5 -120.5t-177.5 -56.5q-50 0 -86.5 12t-53.5 31.5t-24 38t-7 36.5q0 39 20 57t40 18q33 0 33 -34q0 -20 -15 -38t-41 -24q27 -66 133 -66q61 0 115.5 37.5t54.5 93.5q0 37 -44.5 54.5t-98.5 19t-98.5 11t-44.5 32.5q0 18 24 40t67 39q-46 31 -46 98zM249 419
q-53 0 -88.5 -53t-35.5 -124q0 -41 18 -65.5t54 -24.5q51 0 85.5 56.5t34.5 123.5q0 87 -68 87zM283 641q18 0 29 -12.5t11 -30.5q0 -25 -18.5 -43.5t-40.5 -18.5q-17 0 -28 12t-11 30q0 24 17.5 43.5t40.5 19.5z" />
    <glyph glyph-name="Gcommaaccent" unicode="&#x122;" horiz-adv-x="682" 
d="M545 25l-33 28q-102 -63 -205 -63q-120 0 -186 74t-66 197q0 175 106 298.5t266 123.5q101 0 175 -55l36 55h17l-38 -216h-7q-10 0 -14 8t-9 32q-14 73 -48 108.5t-113 35.5q-131 0 -206.5 -116t-75.5 -289q0 -103 41.5 -164t129.5 -61q105 0 189 92l20 111q4 20 -8.5 32
t-29 15t-30 9.5t-11.5 17.5l3 14h231l-3 -15q-2 -10 -13.5 -15t-25.5 -7.5t-27.5 -16t-17.5 -37.5l-33 -190zM321 -46q17 0 28 -11t11 -30q0 -33 -37 -78.5t-89 -70.5l-9 18q57 45 69 90q-25 7 -25 31q0 20 15 35.5t37 15.5z" />
    <glyph glyph-name="gcommaaccent" unicode="&#x123;" horiz-adv-x="427" 
d="M281 522q-16 0 -26.5 10.5t-10.5 28.5q0 33 38 79t93 72l11 -17q-23 -17 -45.5 -42.5t-29.5 -48.5q24 -7 24 -29q0 -21 -15.5 -37t-38.5 -16zM54 244q0 91 55 148t134 57q43 0 83 -17q56 57 102 57q20 0 32 -9.5t12 -25.5q0 -17 -11.5 -26.5t-27.5 -9.5q-34 0 -43 32
q-27 -8 -50 -27q46 -36 46 -106q0 -82 -56 -138t-142 -56q-37 0 -71 14q-41 -26 -41 -49q0 -14 30.5 -18.5t73.5 -6t86 -7t73.5 -28t30.5 -63.5q0 -64 -66.5 -120.5t-177.5 -56.5q-50 0 -86.5 12t-53.5 31.5t-24 38t-7 36.5q0 39 20 57t40 18q33 0 33 -34q0 -20 -15 -38
t-41 -24q27 -66 133 -66q61 0 115.5 37.5t54.5 93.5q0 37 -44.5 54.5t-98.5 19t-98.5 11t-44.5 32.5q0 18 24 40t67 39q-46 31 -46 98zM249 419q-53 0 -88.5 -53t-35.5 -124q0 -41 18 -65.5t54 -24.5q51 0 85.5 56.5t34.5 123.5q0 87 -68 87z" />
    <glyph glyph-name="Hcircumflex" unicode="&#x124;" horiz-adv-x="696" 
d="M650 585l-88 -497q-4 -25 7 -37t27 -13t28.5 -6.5t10.5 -19.5l-2 -12h-235l2 12q2 12 14.5 18t26.5 8t28 15t18 37l45 248h-329l-45 -250q-4 -25 7 -37.5t27 -14t28.5 -6.5t10.5 -18l-2 -12h-239l2 12q2 12 15 17.5t28 7.5t30 15t19 38l87 492q4 24 -6 37t-25 15.5
t-26.5 8.5t-9.5 18l2 12h241l-2 -12q-2 -12 -16.5 -18t-31 -8t-32.5 -14.5t-20 -36.5l-37 -214h329l37 213q4 24 -6 37t-24.5 15t-26 8t-9.5 18l2 12h241l-2 -12q-2 -12 -16.5 -18t-31 -8t-32 -14t-19.5 -36zM582 725l-125 82l-152 -83l-12 22l125 100q41 34 52 34
q3 0 5 -0.5t5 -2.5t5 -3.5t5.5 -5t5.5 -6t7 -7.5l8 -8l92 -100z" />
    <glyph glyph-name="hcircumflex" unicode="&#x125;" horiz-adv-x="466" 
d="M18 0l117 613q6 25 0.5 35.5t-29.5 17.5q-4 1 -9.5 2.5t-8.5 2t-7 1.5t-5.5 2t-4.5 2t-4 2l-2.5 2.5t-1.5 3t-0.5 4t0.5 4.5l2 10l154 22l3 -4l-57 -291q-19 -96 -44 -181h4q34 92 91.5 146.5t110.5 54.5q104 0 104 -140q0 -70 -28 -144t-78 -125t-105 -51
q-32 0 -49 15.5t-17 39.5q0 17 10.5 29t28.5 12q20 0 33 -16t13 -48v-8q59 26 89.5 128t30.5 184q0 75 -52 75q-59 0 -117.5 -83t-79.5 -198l-22 -119h-70zM319 746l-125 82l-152 -83l-12 22l125 100q41 34 52 34q3 0 5 -0.5t5 -2.5t5 -3.5t5.5 -5t5.5 -6t7 -7.5l8 -8
l92 -100z" />
    <glyph glyph-name="Hbar" unicode="&#x126;" horiz-adv-x="696" 
d="M650 585l-9 -50h59l-6 -33h-59l-73 -414q-4 -25 7 -37t27 -13t28.5 -6.5t10.5 -19.5l-2 -12h-235l2 12q2 12 14.5 18t26.5 8t28 15t18 37l45 248h-329l-45 -250q-4 -25 7 -37.5t27 -14t28.5 -6.5t10.5 -18l-2 -12h-239l2 12q2 12 15 17.5t28 7.5t30 15t19 38l73 412h-53
l6 33h53l8 47q4 24 -6 37t-25 15.5t-26.5 8.5t-9.5 18l2 12h241l-2 -12q-2 -12 -16.5 -18t-31 -8t-32.5 -14.5t-20 -36.5l-9 -49h329l9 48q4 24 -6 37t-24.5 15t-26 8t-9.5 18l2 12h241l-2 -12q-2 -12 -16.5 -18t-31 -8t-32 -14t-19.5 -36zM208 370h329l23 132h-329z" />
    <glyph glyph-name="hbar" unicode="&#x127;" horiz-adv-x="466" 
d="M18 0l102 538h-59l6 33h60l8 42q6 25 0.5 35.5t-29.5 17.5q-4 1 -9.5 2.5t-8.5 2t-7 1.5t-5.5 2t-4.5 2t-4 2l-2.5 2.5t-1.5 3t-0.5 4t0.5 4.5l2 10l154 22l3 -4l-30 -149h156l-6 -33h-156l-21 -109q-19 -96 -44 -181h4q34 92 91.5 146.5t110.5 54.5q104 0 104 -140
q0 -70 -28 -144t-78 -125t-105 -51q-32 0 -49 15.5t-17 39.5q0 17 10.5 29t28.5 12q20 0 33 -16t13 -48v-8q59 26 89.5 128t30.5 184q0 75 -52 75q-59 0 -117.5 -83t-79.5 -198l-22 -119h-70z" />
    <glyph glyph-name="Itilde" unicode="&#x128;" horiz-adv-x="330" 
d="M263 584l-87 -496q-4 -25 7 -37.5t27 -14t28.5 -6.5t10.5 -18l-2 -12h-242l2 12q2 12 15.5 17.5t29 7.5t30.5 15t19 38l87 492q4 24 -6.5 37t-25.5 15.5t-27 8.5t-10 18l2 12h244l-2 -12q-2 -12 -16.5 -18t-31 -8t-32.5 -14.5t-20 -36.5zM400 839l13 -6q-14 -37 -39 -62
t-57 -25q-21 0 -60.5 16.5t-58.5 16.5q-36 0 -66 -41l-16 8q14 34 39 62t58 28q19 0 60.5 -17.5t64.5 -17.5q32 0 62 38z" />
    <glyph glyph-name="itilde" unicode="&#x129;" horiz-adv-x="266" 
d="M103 -11q17 0 53.5 27.5t75.5 68.5l-13 17l-85 -53l61 303q7 33 7 52q0 47 -44 47q-41 0 -128 -102l15 -17l89 62l-63 -327q-5 -28 -5 -42q0 -21 9 -28.5t28 -7.5zM302 632l13 -6q-14 -37 -39 -62t-57 -25q-21 0 -60.5 16.5t-58.5 16.5q-36 0 -66 -41l-16 8q14 34 39 62
t58 28q19 0 60.5 -17.5t64.5 -17.5q32 0 62 38z" />
    <glyph glyph-name="Imacron" unicode="&#x12a;" horiz-adv-x="330" 
d="M263 584l-87 -496q-4 -25 7 -37.5t27 -14t28.5 -6.5t10.5 -18l-2 -12h-242l2 12q2 12 15.5 17.5t29 7.5t30.5 15t19 38l87 492q4 24 -6.5 37t-25.5 15.5t-27 8.5t-10 18l2 12h244l-2 -12q-2 -12 -16.5 -18t-31 -8t-32.5 -14.5t-20 -36.5zM397 823l-20 -57q-100 10 -255 0
l15 42q55 9 260 15z" />
    <glyph glyph-name="imacron" unicode="&#x12b;" horiz-adv-x="266" 
d="M103 -11q17 0 53.5 27.5t75.5 68.5l-13 17l-85 -53l61 303q7 33 7 52q0 47 -44 47q-41 0 -128 -102l15 -17l89 62l-63 -327q-5 -28 -5 -42q0 -21 9 -28.5t28 -7.5zM304 615l-19 -54q-96 9 -246 0l14 39q57 9 251 15z" />
    <glyph glyph-name="Ibreve" unicode="&#x12c;" horiz-adv-x="330" 
d="M263 584l-87 -496q-4 -25 7 -37.5t27 -14t28.5 -6.5t10.5 -18l-2 -12h-242l2 12q2 12 15.5 17.5t29 7.5t30.5 15t19 38l87 492q4 24 -6.5 37t-25.5 15.5t-27 8.5t-10 18l2 12h244l-2 -12q-2 -12 -16.5 -18t-31 -8t-32.5 -14.5t-20 -36.5zM388 863l22 -6
q-58 -130 -163 -130q-57 0 -85 38t-21 106l24 7q15 -95 88 -95q79 0 135 80z" />
    <glyph glyph-name="ibreve" unicode="&#x12d;" horiz-adv-x="266" 
d="M103 -11q17 0 53.5 27.5t75.5 68.5l-13 17l-85 -53l61 303q7 33 7 52q0 47 -44 47q-41 0 -128 -102l15 -17l89 62l-63 -327q-5 -28 -5 -42q0 -21 9 -28.5t28 -7.5zM307 658l22 -6q-64 -137 -167 -137q-57 0 -86 39.5t-20 111.5l24 7q8 -54 29 -78t59 -24q71 0 139 87z
" />
    <glyph glyph-name="Iogonek" unicode="&#x12e;" horiz-adv-x="330" 
d="M263 584l-87 -496q-4 -25 7 -37.5t27 -14t28.5 -6.5t10.5 -18l-2 -12h-242l2 12q2 12 15.5 17.5t29 7.5t30.5 15t19 38l87 492q4 24 -6.5 37t-25.5 15.5t-27 8.5t-10 18l2 12h244l-2 -12q-2 -12 -16.5 -18t-31 -8t-32.5 -14.5t-20 -36.5zM154 14l7 -10
q-40 -34 -64.5 -72.5t-24.5 -66.5q0 -46 72 -46q22 0 62 7l2 -24q-59 -27 -114 -27q-87 0 -87 63q0 37 35.5 86t111.5 90z" />
    <glyph glyph-name="iogonek" unicode="&#x12f;" horiz-adv-x="266" 
d="M47 -125q0 49 63 115q44 12 122 95l-13 17l-85 -53l61 303q12 42 5 70.5t-42 28.5q-41 0 -128 -102l15 -17l89 62l-63 -327q-12 -64 8 -74q-50 -36 -73.5 -75.5t-23.5 -69.5q0 -63 87 -63q55 0 114 27l-2 24q-40 -7 -62 -7q-72 0 -72 46zM152 620q0 20 14 33.5t33 13.5
t33 -13.5t14 -33.5t-14 -33.5t-33 -13.5t-33 13.5t-14 33.5z" />
    <glyph glyph-name="Idotaccent" unicode="&#x130;" horiz-adv-x="330" 
d="M263 584l-87 -496q-4 -25 7 -37.5t27 -14t28.5 -6.5t10.5 -18l-2 -12h-242l2 12q2 12 15.5 17.5t29 7.5t30.5 15t19 38l87 492q4 24 -6.5 37t-25.5 15.5t-27 8.5t-10 18l2 12h244l-2 -12q-2 -12 -16.5 -18t-31 -8t-32.5 -14.5t-20 -36.5zM268 840q18 0 29 -12.5t11 -30.5
q0 -25 -18.5 -43.5t-40.5 -18.5q-17 0 -28 12t-11 30q0 24 17.5 43.5t40.5 19.5z" />
    <glyph glyph-name="dotlessi" unicode="&#x131;" horiz-adv-x="266" 
d="M103 -11q-19 0 -28 7.5t-9 28.5q0 14 5 42l63 327l-89 -62l-15 17q87 102 128 102q44 0 44 -47q0 -19 -7 -52l-61 -303l85 53l13 -17q-39 -41 -75.5 -68.5t-53.5 -27.5z" />
    <glyph glyph-name="IJ" unicode="&#x132;" horiz-adv-x="656" 
d="M263 584l-87 -496q-4 -25 7 -37.5t27 -14t28.5 -6.5t10.5 -18l-2 -12h-242l2 12q2 12 15.5 17.5t29 7.5t30.5 15t19 38l87 492q4 24 -6.5 37t-25.5 15.5t-27 8.5t-10 18l2 12h244l-2 -12q-2 -12 -16.5 -18t-31 -8t-32.5 -14.5t-20 -36.5zM608 586l-87 -499
q-15 -84 -68 -159q-100 -135 -187 -135q-32 0 -48 16.5t-16 36.5q0 21 13.5 36.5t40.5 15.5q25 0 44.5 -18.5t21.5 -44.5q56 40 82 100t49 192l80 457q4 24 -6.5 37.5t-25.5 16t-27.5 8.5t-10.5 17l2 12h246l-2 -12q-2 -12 -17 -18t-31.5 -8t-32.5 -14.5t-20 -36.5z" />
    <glyph glyph-name="ij" unicode="&#x133;" horiz-adv-x="487" 
d="M103 -11q17 0 53.5 27.5t75.5 68.5l-13 17l-85 -53l61 303q7 33 7 52q0 47 -44 47q-41 0 -128 -102l15 -17l89 62l-63 -327q-5 -28 -5 -42q0 -21 9 -28.5t28 -7.5zM152 620q0 20 14 33.5t33 13.5t33 -13.5t14 -33.5t-14 -33.5t-33 -13.5t-33 13.5t-14 33.5zM451 352
l-59 -296q-8 -41 -21 -80.5t-34 -85.5t-53.5 -74t-70.5 -28q-22 0 -41 11.5t-19 31.5t13 31.5t31 11.5q20 0 36 -14t19 -39q33 18 53 121l85 452l-89 -62l-15 17q87 102 128 102q35 0 42 -28.5t-5 -70.5zM408 620q0 20 14 33.5t33 13.5t33 -13.5t14 -33.5t-14 -33.5
t-33 -13.5t-33 13.5t-14 33.5z" />
    <glyph glyph-name="Jcircumflex" unicode="&#x134;" horiz-adv-x="320" 
d="M264 587l-87 -499q-15 -84 -68 -159q-100 -135 -187 -135q-32 0 -48 16.5t-16 36.5q0 21 13.5 36.5t40.5 15.5q25 0 44.5 -18.5t21.5 -44.5q56 40 82 100t49 192l80 457q4 24 -6.5 37.5t-25.5 16t-27.5 8.5t-10.5 17l2 12h246l-2 -12q-2 -12 -17 -18t-31.5 -8
t-32.5 -14.5t-20 -36.5zM383 727l-125 82l-152 -83l-12 22l125 100q41 34 52 34q3 0 5 -0.5t5 -2.5t5 -3.5t5.5 -5t5.5 -6t7 -7.5l8 -8l92 -100z" />
    <glyph glyph-name="jcircumflex" unicode="&#x135;" horiz-adv-x="223" 
d="M187 352l-59 -296q-8 -41 -21 -80.5t-34 -85.5t-53.5 -74t-70.5 -28q-22 0 -41 11.5t-19 31.5t13 31.5t31 11.5q20 0 36 -14t19 -39q33 18 53 121l85 452l-89 -62l-15 17q87 102 128 102q35 0 42 -28.5t-5 -70.5zM287 498l-113 101l-149 -102l-14 21l124 117q36 35 52 35
q14 0 38 -34l84 -119z" />
    <glyph glyph-name="Kcommaaccent" unicode="&#x136;" horiz-adv-x="628" 
d="M245 584l-38 -213h111l196 210q23 23 19.5 35t-18 14.5t-28.5 10t-12 20.5l2 13h221l-1 -9q-3 -15 -16.5 -22t-32.5 -10t-53 -23.5t-68 -56.5l-173 -182l136 -265q15 -30 36.5 -47t37.5 -20.5t27 -9t10 -16.5l-1 -13h-241l1 13q2 16 24 22.5t32 13t-6 46.5l-125 241h-84
l-43 -248q-4 -25 7 -37.5t27 -14t28.5 -6.5t10.5 -18l-2 -12h-234l2 12q2 14 14.5 19t26 6t27 13.5t18.5 39.5l87 492q4 24 -6 37t-24.5 15.5t-26 8.5t-9.5 18l2 12h236l-2 -12q-2 -14 -16 -20.5t-29.5 -7.5t-30.5 -13t-19 -36zM282 -46q17 0 28 -11t11 -30q0 -33 -37 -78.5
t-89 -70.5l-9 18q57 45 69 90q-25 7 -25 31q0 20 15 35.5t37 15.5z" />
    <glyph glyph-name="kcommaaccent" unicode="&#x137;" horiz-adv-x="437" 
d="M18 0l117 613q6 25 0.5 35.5t-29.5 17.5q-4 1 -9.5 2.5t-8.5 2t-7 1.5t-5.5 2t-4.5 2t-4 2l-2.5 2.5t-1.5 3t-0.5 4t0.5 4.5l2 10l154 22l3 -4l-63 -324q-22 -116 -40 -163h4q30 87 94.5 151.5t129.5 64.5q31 0 50.5 -20.5t19.5 -52.5q0 -23 -13 -45t-30 -37.5
t-44.5 -32.5t-46 -26t-44.5 -20q5 -53 27 -99t48 -76l86 61l13 -16q-79 -96 -121 -96q-31 0 -58.5 40.5t-41.5 88.5t-18 90q99 51 135.5 80t36.5 60q0 18 -11 29.5t-32 11.5q-38 0 -83 -54.5t-75.5 -121t-39.5 -115.5l-18 -98h-69zM161 -46q17 0 28 -11t11 -30
q0 -33 -37 -78.5t-89 -70.5l-9 18q57 45 69 90q-25 7 -25 31q0 20 15 35.5t37 15.5z" />
    <glyph glyph-name="kgreenlandic" unicode="&#x138;" horiz-adv-x="469" 
d="M325 -11q-22 0 -44.5 27.5t-39.5 69t-28 79t-18 69.5q-40 -89 -62 -200l-7 -34h-67l75 394l-89 -62l-15 17q87 102 128 102q44 0 44 -47q0 -46 -52 -214h4q16 50 39 94t54 82.5t72 61t86 22.5q27 0 47.5 -12t20.5 -37q0 -20 -13 -31.5t-30 -11.5q-26 0 -39.5 17t-13.5 42
q-79 -16 -140 -106q43 -175 107 -273l89 63l13 -16q-79 -96 -121 -96z" />
    <glyph glyph-name="Lacute" unicode="&#x139;" horiz-adv-x="583" 
d="M224 32h103q38 0 65.5 9.5t53.5 36.5t45 56.5t52 86.5q11 20 26 17l9 -2l-88 -233l-7 -7q-142 4 -324 4h-164l2 15q2 11 15 16t27.5 7t29.5 17t20 45l85 482q4 24 -6.5 37t-25.5 15.5t-26.5 8.5t-9.5 18l2 12h243l-2 -12q-2 -12 -16.5 -18t-31 -8t-32 -14.5t-19.5 -36.5
l-86 -487q-6 -33 6.5 -49t53.5 -16zM188 737l-5 22q48 23 82 52t51.5 44.5t38.5 15.5q13 0 19.5 -9t6.5 -21q0 -10 -10 -23.5t-30.5 -29.5t-60.5 -30t-92 -21z" />
    <glyph glyph-name="lacute" unicode="&#x13a;" horiz-adv-x="214" 
d="M222 720l-129 -671l85 53l13 -17q-39 -41 -75.5 -68.5t-53.5 -27.5q-26 0 -33 14t1 64l105 546q6 25 0.5 35.5t-29.5 17.5q-4 1 -9.5 2.5t-8.5 2t-7 1.5t-5.5 2t-4.5 2t-4 2l-2.5 2.5t-1.5 3t-0.5 4t0.5 4.5l2 10l154 22zM101 773l-5 22q48 23 82 52t51.5 44.5t38.5 15.5
q13 0 19.5 -9t6.5 -21q0 -10 -10 -23.5t-30.5 -29.5t-60.5 -30t-92 -21z" />
    <glyph glyph-name="Lcommaaccent" unicode="&#x13b;" horiz-adv-x="583" 
d="M224 32h103q38 0 65.5 9.5t53.5 36.5t45 56.5t52 86.5q11 20 26 17l9 -2l-88 -233l-7 -7q-142 4 -324 4h-164l2 15q2 11 15 16t27.5 7t29.5 17t20 45l85 482q4 24 -6.5 37t-25.5 15.5t-26.5 8.5t-9.5 18l2 12h243l-2 -12q-2 -12 -16.5 -18t-31 -8t-32 -14.5t-19.5 -36.5
l-86 -487q-6 -33 6.5 -49t53.5 -16zM277 -46q17 0 28 -11t11 -30q0 -33 -37 -78.5t-89 -70.5l-9 18q57 45 69 90q-25 7 -25 31q0 20 15 35.5t37 15.5z" />
    <glyph glyph-name="lcommaaccent" unicode="&#x13c;" horiz-adv-x="214" 
d="M222 720l-129 -671l85 53l13 -17q-39 -41 -75.5 -68.5t-53.5 -27.5q-26 0 -33 14t1 64l105 546q6 25 0.5 35.5t-29.5 17.5q-4 1 -9.5 2.5t-8.5 2t-7 1.5t-5.5 2t-4.5 2t-4 2l-2.5 2.5t-1.5 3t-0.5 4t0.5 4.5l2 10l154 22zM49 -46q17 0 28 -11t11 -30q0 -33 -37 -78.5
t-89 -70.5l-9 18q57 45 69 90q-25 7 -25 31q0 20 15 35.5t37 15.5z" />
    <glyph glyph-name="Lcaron" unicode="&#x13d;" horiz-adv-x="583" 
d="M224 32h103q38 0 65.5 9.5t53.5 36.5t45 56.5t52 86.5q11 20 26 17l9 -2l-88 -233l-7 -7q-142 4 -324 4h-164l2 15q2 11 15 16t27.5 7t29.5 17t20 45l85 482q4 24 -6.5 37t-25.5 15.5t-26.5 8.5t-9.5 18l2 12h243l-2 -12q-2 -12 -16.5 -18t-31 -8t-32 -14.5t-19.5 -36.5
l-86 -487q-6 -33 6.5 -49t53.5 -16zM496 687q17 0 28 -11t11 -30q0 -33 -37 -78.5t-89 -70.5l-9 18q57 45 69 90q-25 7 -25 31q0 20 15 35.5t37 15.5z" />
    <glyph glyph-name="lcaron" unicode="&#x13e;" horiz-adv-x="214" 
d="M338 737q17 0 28 -11t11 -30q0 -33 -37 -78.5t-89 -70.5l-9 18q57 45 69 90q-25 7 -25 31q0 20 15 35.5t37 15.5zM222 720l-129 -671l85 53l13 -17q-39 -41 -75.5 -68.5t-53.5 -27.5q-26 0 -33 14t1 64l105 546q6 25 0.5 35.5t-29.5 17.5q-4 1 -9.5 2.5t-8.5 2t-7 1.5
t-5.5 2t-4.5 2t-4 2l-2.5 2.5t-1.5 3t-0.5 4t0.5 4.5l2 10l154 22z" />
    <glyph glyph-name="Ldot" unicode="&#x13f;" horiz-adv-x="583" 
d="M224 32h103q38 0 65.5 9.5t53.5 36.5t45 56.5t52 86.5q11 20 26 17l9 -2l-88 -233l-7 -7q-142 4 -324 4h-164l2 15q2 11 15 16t27.5 7t29.5 17t20 45l85 482q4 24 -6.5 37t-25.5 15.5t-26.5 8.5t-9.5 18l2 12h243l-2 -12q-2 -12 -16.5 -18t-31 -8t-32 -14.5t-19.5 -36.5
l-86 -487q-6 -33 6.5 -49t53.5 -16zM427 404q18 0 29 -12.5t11 -30.5q0 -25 -18.5 -43.5t-40.5 -18.5q-17 0 -28 12t-11 30q0 24 17.5 43.5t40.5 19.5z" />
    <glyph glyph-name="ldot" unicode="&#x140;" horiz-adv-x="287" 
d="M273 406q18 0 29 -12.5t11 -30.5q0 -25 -18.5 -43.5t-40.5 -18.5q-17 0 -28 12t-11 30q0 24 17.5 43.5t40.5 19.5zM222 720l-129 -671l85 53l13 -17q-39 -41 -75.5 -68.5t-53.5 -27.5q-26 0 -33 14t1 64l105 546q6 25 0.5 35.5t-29.5 17.5q-4 1 -9.5 2.5t-8.5 2t-7 1.5
t-5.5 2t-4.5 2t-4 2l-2.5 2.5t-1.5 3t-0.5 4t0.5 4.5l2 10l154 22z" />
    <glyph glyph-name="Lslash" unicode="&#x141;" horiz-adv-x="583" 
d="M224 32h103q38 0 65.5 9.5t53.5 36.5t45 56.5t52 86.5q11 20 26 17l9 -2l-88 -233l-7 -7q-142 4 -324 4h-164l2 15q2 11 15 16t27.5 7t29.5 17t20 45l31 177l-110 -65l-13 24l129 76l48 270q4 24 -6.5 37t-25.5 15.5t-26.5 8.5t-9.5 18l2 12h243l-2 -12q-2 -12 -16.5 -18
t-31 -8t-32 -14.5t-19.5 -36.5l-40 -223l134 79l11 -24l-151 -89l-40 -230q-6 -33 6.5 -49t53.5 -16z" />
    <glyph glyph-name="lslash" unicode="&#x142;" horiz-adv-x="214" 
d="M222 720l-70 -362l87 50l8 -26l-101 -58l-53 -275l85 53l13 -17q-39 -41 -75.5 -68.5t-53.5 -27.5q-26 0 -33 14t1 64l41 215l-84 -48l-7 26l98 56l57 297q6 25 0.5 35.5t-29.5 17.5q-4 1 -9.5 2.5t-8.5 2t-7 1.5t-5.5 2t-4.5 2t-4 2l-2.5 2.5t-1.5 3t-0.5 4t0.5 4.5
l2 10l154 22z" />
    <glyph glyph-name="Nacute" unicode="&#x143;" horiz-adv-x="696" 
d="M265 674l238 -459q17 -32 34 -84h4l79 449q4 24 -8.5 36.5t-29.5 15t-30.5 9t-11.5 19.5l2 13h209l-2 -13q-2 -14 -16 -20.5t-30.5 -8t-32 -15t-19.5 -38.5l-103 -585l-28 -7l-275 530q-18 35 -33 78h-5l-88 -500q-4 -26 8 -39t29.5 -15.5t31 -8t11.5 -18.5l-2 -13h-207
l2 13q2 12 16 19t30 10t31.5 16.5t19.5 37.5l82 463q6 32 -4 49.5t-25.5 21t-27.5 9.5t-10 18l3 17h158zM359 737l-5 22q48 23 82 52t51.5 44.5t38.5 15.5q13 0 19.5 -9t6.5 -21q0 -10 -10 -23.5t-30.5 -29.5t-60.5 -30t-92 -21z" />
    <glyph glyph-name="nacute" unicode="&#x144;" horiz-adv-x="511" 
d="M202 404q0 47 -44 47q-41 0 -128 -102l15 -17l89 62l-75 -394h67l10 53q15 77 50.5 157t77 132t72.5 52q39 0 39 -49q0 -27 -11 -73l-48 -218q-4 -16 -4 -30q0 -35 40 -35q17 0 53.5 27.5t75.5 68.5l-13 17l-87 -53l58 268q7 31 7 59q0 73 -73 73q-18 0 -40.5 -10.5
t-51 -34.5t-59 -72t-55.5 -113h-4q39 126 39 185zM217 514l-8 19q47 31 78.5 67.5t48 54t38.5 17.5q13 0 20.5 -9.5t7.5 -21.5q0 -24 -48 -62.5t-137 -64.5z" />
    <glyph glyph-name="Ncommaaccent" unicode="&#x145;" horiz-adv-x="696" 
d="M265 674l238 -459q17 -32 34 -84h4l79 449q4 24 -8.5 36.5t-29.5 15t-30.5 9t-11.5 19.5l2 13h209l-2 -13q-2 -14 -16 -20.5t-30.5 -8t-32 -15t-19.5 -38.5l-103 -585l-28 -7l-275 530q-18 35 -33 78h-5l-88 -500q-4 -26 8 -39t29.5 -15.5t31 -8t11.5 -18.5l-2 -13h-207
l2 13q2 12 16 19t30 10t31.5 16.5t19.5 37.5l82 463q6 32 -4 49.5t-25.5 21t-27.5 9.5t-10 18l3 17h158zM323 -26q17 0 28 -11t11 -30q0 -33 -37 -78.5t-89 -70.5l-9 18q57 45 69 90q-25 7 -25 31q0 20 15 35.5t37 15.5z" />
    <glyph glyph-name="ncommaaccent" unicode="&#x146;" horiz-adv-x="511" 
d="M202 404q0 -59 -39 -185h4q25 65 55.5 113t59 72t51 34.5t40.5 10.5q73 0 73 -73q0 -28 -7 -59l-58 -268l87 53l13 -17q-39 -41 -75.5 -68.5t-53.5 -27.5q-40 0 -40 35q0 14 4 30l48 218q11 46 11 73q0 49 -39 49q-31 0 -72.5 -52t-77 -132t-50.5 -157l-10 -53h-67
l75 394l-89 -62l-15 17q87 102 128 102q44 0 44 -47zM214 -46q17 0 28 -11t11 -30q0 -33 -37 -78.5t-89 -70.5l-9 18q57 45 69 90q-25 7 -25 31q0 20 15 35.5t37 15.5z" />
    <glyph glyph-name="Ncaron" unicode="&#x147;" horiz-adv-x="696" 
d="M265 674l238 -459q17 -32 34 -84h4l79 449q4 24 -8.5 36.5t-29.5 15t-30.5 9t-11.5 19.5l2 13h209l-2 -13q-2 -14 -16 -20.5t-30.5 -8t-32 -15t-19.5 -38.5l-103 -585l-28 -7l-275 530q-18 35 -33 78h-5l-88 -500q-4 -26 8 -39t29.5 -15.5t31 -8t11.5 -18.5l-2 -13h-207
l2 13q2 12 16 19t30 10t31.5 16.5t19.5 37.5l82 463q6 32 -4 49.5t-25.5 21t-27.5 9.5t-10 18l3 17h158zM443 798l156 87l13 -22l-129 -105q-41 -33 -53 -33q-8 0 -15 6.5t-25 27.5l-88 105l20 22z" />
    <glyph glyph-name="ncaron" unicode="&#x148;" horiz-adv-x="511" 
d="M202 404q0 47 -44 47q-41 0 -128 -102l15 -17l89 62l-75 -394h67l10 53q15 77 50.5 157t77 132t72.5 52q39 0 39 -49q0 -27 -11 -73l-48 -218q-4 -16 -4 -30q0 -35 40 -35q17 0 53.5 27.5t75.5 68.5l-13 17l-87 -53l58 268q7 31 7 59q0 73 -73 73q-18 0 -40.5 -10.5
t-51 -34.5t-59 -72t-55.5 -113h-4q39 126 39 185zM279 568l149 103l14 -21l-126 -117q-35 -34 -50 -34q-13 0 -38 35l-84 117l22 21z" />
    <glyph glyph-name="napostrophe" unicode="&#x149;" horiz-adv-x="511" 
d="M202 404q0 47 -44 47q-41 0 -128 -102l15 -17l89 62l-75 -394h67l10 53q15 77 50.5 157t77 132t72.5 52q39 0 39 -49q0 -27 -11 -73l-48 -218q-4 -16 -4 -30q0 -35 40 -35q17 0 53.5 27.5t75.5 68.5l-13 17l-87 -53l58 268q7 31 7 59q0 73 -73 73q-18 0 -40.5 -10.5
t-51 -34.5t-59 -72t-55.5 -113h-4q39 126 39 185zM96 658q17 0 28 -11t11 -30q0 -33 -37 -78.5t-89 -70.5l-9 18q57 45 69 90q-25 7 -25 31q0 20 15 35.5t37 15.5z" />
    <glyph glyph-name="Eng" unicode="&#x14a;" horiz-adv-x="696" 
d="M516 -6l-271 522q-18 35 -33 78h-5l-88 -500q-4 -26 8 -39t29.5 -15.5t31 -8t11.5 -18.5l-2 -13h-207l2 13q2 12 16 19t30 10t31.5 16.5t19.5 37.5l82 463q6 32 -4 49.5t-25.5 21t-27.5 9.5t-10 18l3 17h158l238 -459q17 -32 34 -84h4l79 449q4 24 -8.5 36.5t-29.5 15
t-30.5 9t-11.5 19.5l2 13h209l-2 -13q-2 -14 -16 -20.5t-30.5 -8t-32 -15t-19.5 -38.5l-99 -564q-44 -247 -181 -247q-26 0 -48 14t-22 42q0 22 15 36.5t39 14.5q28 0 45.5 -17.5t20.5 -43.5q65 26 95 181z" />
    <glyph glyph-name="eng" unicode="&#x14b;" horiz-adv-x="494" 
d="M382 449q71 0 71 -73q0 -20 -7 -59l-50 -270q-22 -122 -83.5 -189t-138.5 -67q-22 0 -39 12.5t-17 34.5q0 16 11.5 28t30.5 12q22 0 38 -15t20 -39q39 15 66.5 69t50.5 181l47 265q1 5 1 15q0 40 -38 40q-48 0 -118 -112t-92 -229l-10 -53h-67l75 394l-89 -62l-15 17
q87 102 128 102q44 0 44 -47q0 -59 -39 -185h4q48 122 110 176t106 54z" />
    <glyph glyph-name="Omacron" unicode="&#x14c;" horiz-adv-x="687" 
d="M423 682q118 0 183.5 -75t65.5 -194q0 -170 -110 -297t-261 -127q-120 0 -183 72t-63 191q0 112 48.5 211t134 159t185.5 60zM417 650q-70 0 -126 -41.5t-88.5 -106.5t-49 -134.5t-16.5 -134.5q0 -95 41 -154t132 -59q70 0 125.5 40t88 102.5t49 132t16.5 137.5
q0 97 -40.5 157.5t-131.5 60.5zM593 823l-20 -57q-100 10 -255 0l15 42q54 9 260 15z" />
    <glyph glyph-name="omacron" unicode="&#x14d;" horiz-adv-x="472" 
d="M274 449q77 0 120 -48t43 -125q0 -113 -76 -200t-177 -87q-149 0 -149 174q0 115 69.5 200.5t169.5 85.5zM268 418q-50 0 -88 -46.5t-55 -108t-17 -121.5q0 -123 84 -123q54 0 95.5 49t59 109.5t17.5 114.5q0 126 -96 126zM450 615l-19 -54q-96 9 -246 0l14 39
q57 9 251 15z" />
    <glyph glyph-name="Obreve" unicode="&#x14e;" horiz-adv-x="687" 
d="M423 682q118 0 183.5 -75t65.5 -194q0 -170 -110 -297t-261 -127q-120 0 -183 72t-63 191q0 112 48.5 211t134 159t185.5 60zM417 650q-70 0 -126 -41.5t-88.5 -106.5t-49 -134.5t-16.5 -134.5q0 -95 41 -154t132 -59q70 0 125.5 40t88 102.5t49 132t16.5 137.5
q0 97 -40.5 157.5t-131.5 60.5zM595 863l22 -6q-59 -130 -163 -130q-57 0 -85 38t-21 106l24 7q15 -95 88 -95q79 0 135 80z" />
    <glyph glyph-name="obreve" unicode="&#x14f;" horiz-adv-x="472" 
d="M274 449q77 0 120 -48t43 -125q0 -113 -76 -200t-177 -87q-149 0 -149 174q0 115 69.5 200.5t169.5 85.5zM268 418q-50 0 -88 -46.5t-55 -108t-17 -121.5q0 -123 84 -123q54 0 95.5 49t59 109.5t17.5 114.5q0 126 -96 126zM463 652l22 -6q-64 -137 -167 -137
q-57 0 -86 39.5t-20 111.5l24 7q8 -54 29 -78t59 -24q71 0 139 87z" />
    <glyph glyph-name="Ohungarumlaut" unicode="&#x150;" horiz-adv-x="687" 
d="M423 682q118 0 183.5 -75t65.5 -194q0 -170 -110 -297t-261 -127q-120 0 -183 72t-63 191q0 112 48.5 211t134 159t185.5 60zM417 650q-70 0 -126 -41.5t-88.5 -106.5t-49 -134.5t-16.5 -134.5q0 -95 41 -154t132 -59q70 0 125.5 40t88 102.5t49 132t16.5 137.5
q0 97 -40.5 157.5t-131.5 60.5zM315 737l-6 22q49 23 89 53t61 46.5t36 16.5q13 0 19.5 -9t6.5 -21q0 -14 -20.5 -34.5t-70 -42.5t-115.5 -31zM465 737l-6 22q49 23 89 53t61 46.5t36 16.5q13 0 19.5 -9t6.5 -21q0 -14 -20.5 -34.5t-70 -42.5t-115.5 -31z" />
    <glyph glyph-name="ohungarumlaut" unicode="&#x151;" horiz-adv-x="472" 
d="M274 449q77 0 120 -48t43 -125q0 -113 -76 -200t-177 -87q-149 0 -149 174q0 115 69.5 200.5t169.5 85.5zM268 418q-50 0 -88 -46.5t-55 -108t-17 -121.5q0 -123 84 -123q54 0 95.5 49t59 109.5t17.5 114.5q0 126 -96 126zM194 509l-7 20q47 31 83.5 68t54.5 55.5
t35 18.5q25 0 25 -26q0 -24 -51.5 -67t-139.5 -69zM323 509l-7 20q47 31 84 68t54.5 55.5t34.5 18.5q26 0 26 -27q0 -24 -52 -67t-140 -68z" />
    <glyph glyph-name="OE" unicode="&#x152;" horiz-adv-x="927" 
d="M583 32h74q73 0 117 39t101 138q14 25 27 21l12 -3l-86 -224l-7 -7q-138 4 -437 4q-42 -11 -83 -11q-120 0 -183 72t-63 191q0 112 48.5 211t134 159t185.5 60q35 0 69 -8q288 0 427 8l3 -5l-13 -173l-9 -1q-17 -1 -21 16q-20 86 -41 104.5t-91 18.5h-129l-48 -272h84
q35 0 57 17.5t28.5 38t14.5 38t19 17.5h10l-46 -265h-7q-12 0 -16 19t-4 42t-14.5 42t-46.5 19h-85l-42 -241q-6 -33 7 -49t54 -16zM448 100l82 467q8 44 -25.5 63.5t-87.5 19.5q-70 0 -126 -41.5t-88.5 -106.5t-49 -134.5t-16.5 -134.5q0 -95 41 -154t132 -59
q21 0 41.5 3.5t41.5 12t36 25t19 39.5z" />
    <glyph glyph-name="oe" unicode="&#x153;" horiz-adv-x="729" 
d="M493 -11q-49 0 -83.5 24.5t-47.5 69.5q-34 -43 -81 -68.5t-97 -25.5q-149 0 -149 174q0 115 69.5 200.5t169.5 85.5q107 0 144 -96q29 43 77 69.5t106 26.5q50 0 79 -24.5t29 -68.5q0 -62 -80.5 -107t-202.5 -66q-10 -69 17 -108t81 -39q65 0 145 71l16 -15
q-87 -103 -192 -103zM268 418q-50 0 -88 -46.5t-55 -108t-17 -121.5q0 -123 84 -123q54 0 95.5 49t59 109.5t17.5 114.5q0 126 -96 126zM431 217q79 8 140 48t61 94q0 27 -13.5 41.5t-35.5 14.5q-46 0 -92.5 -54t-59.5 -144z" />
    <glyph glyph-name="Racute" unicode="&#x154;" horiz-adv-x="562" 
d="M256 643l-53 -300h74q88 0 143 45.5t55 132.5q0 64 -42 93t-105 29h-72zM108 674h236q102 0 155 -40t53 -113q0 -86 -70.5 -147t-201.5 -61h-20q21 -35 72 -37l83 -170q17 -36 38 -51q14 -10 30.5 -16t26.5 -7t16.5 -5t4.5 -14l-2 -13h-139l-163 313h-29l-40 -225
q-4 -24 7.5 -36t28 -13.5t29.5 -7.5t11 -19l-2 -12h-242l2 12q2 12 15.5 18.5t28.5 8.5t29.5 14.5t18.5 36.5l87 493q4 24 -5.5 37t-24 15.5t-26 8.5t-9.5 18zM285 737l-5 22q48 23 82 52t51.5 44.5t38.5 15.5q13 0 19.5 -9t6.5 -21q0 -10 -10 -23.5t-30.5 -29.5t-60.5 -30
t-92 -21z" />
    <glyph glyph-name="racute" unicode="&#x155;" horiz-adv-x="368" 
d="M306 398q8 -39 52 -39q20 0 35 12t15 32q0 19 -16.5 31t-38.5 12q-16 0 -29.5 -3.5t-34.5 -18.5t-40.5 -41t-44 -75.5t-47.5 -117.5h-4q49 159 49 214q0 47 -44 47q-41 0 -128 -102l15 -17l89 62l-75 -394h67l7 34q23 113 80 229.5t93 134.5zM197 514l-8 19
q47 31 78.5 67.5t48 54t38.5 17.5q13 0 20.5 -9.5t7.5 -21.5q0 -24 -48 -62.5t-137 -64.5z" />
    <glyph glyph-name="Rcommaaccent" unicode="&#x156;" horiz-adv-x="562" 
d="M256 643l-53 -300h74q88 0 143 45.5t55 132.5q0 64 -42 93t-105 29h-72zM108 674h236q102 0 155 -40t53 -113q0 -86 -70.5 -147t-201.5 -61h-20q21 -35 72 -37l83 -170q17 -36 38 -51q14 -10 30.5 -16t26.5 -7t16.5 -5t4.5 -14l-2 -13h-139l-163 313h-29l-40 -225
q-4 -24 7.5 -36t28 -13.5t29.5 -7.5t11 -19l-2 -12h-242l2 12q2 12 15.5 18.5t28.5 8.5t29.5 14.5t18.5 36.5l87 493q4 24 -5.5 37t-24 15.5t-26 8.5t-9.5 18zM302 -40q17 0 28 -11t11 -30q0 -33 -37 -78.5t-89 -70.5l-9 18q57 45 69 90q-25 7 -25 31q0 20 15 35.5t37 15.5z
" />
    <glyph glyph-name="rcommaaccent" unicode="&#x157;" horiz-adv-x="368" 
d="M306 398q-36 -18 -93 -134.5t-80 -229.5l-7 -34h-67l75 394l-89 -62l-15 17q87 102 128 102q44 0 44 -47q0 -55 -49 -214h4q23 68 47.5 117.5t44 75.5t40.5 41t34.5 18.5t29.5 3.5q22 0 38.5 -12t16.5 -31q0 -20 -15 -32t-35 -12q-44 0 -52 39zM79 -46q17 0 28 -11
t11 -30q0 -33 -37 -78.5t-89 -70.5l-9 18q57 45 69 90q-25 7 -25 31q0 20 15 35.5t37 15.5z" />
    <glyph glyph-name="Rcaron" unicode="&#x158;" horiz-adv-x="562" 
d="M256 643l-53 -300h74q88 0 143 45.5t55 132.5q0 64 -42 93t-105 29h-72zM108 674h236q102 0 155 -40t53 -113q0 -86 -70.5 -147t-201.5 -61h-20q21 -35 72 -37l83 -170q17 -36 38 -51q14 -10 30.5 -16t26.5 -7t16.5 -5t4.5 -14l-2 -13h-139l-163 313h-29l-40 -225
q-4 -24 7.5 -36t28 -13.5t29.5 -7.5t11 -19l-2 -12h-242l2 12q2 12 15.5 18.5t28.5 8.5t29.5 14.5t18.5 36.5l87 493q4 24 -5.5 37t-24 15.5t-26 8.5t-9.5 18zM350 798l156 87l13 -22l-129 -105q-40 -33 -53 -33q-8 0 -15 6.5t-25 27.5l-88 105l20 22z" />
    <glyph glyph-name="rcaron" unicode="&#x159;" horiz-adv-x="368" 
d="M306 398q8 -39 52 -39q20 0 35 12t15 32q0 19 -16.5 31t-38.5 12q-16 0 -29.5 -3.5t-34.5 -18.5t-40.5 -41t-44 -75.5t-47.5 -117.5h-4q49 159 49 214q0 47 -44 47q-41 0 -128 -102l15 -17l89 62l-75 -394h67l7 34q23 113 80 229.5t93 134.5zM254 568l149 103l14 -21
l-126 -117q-35 -34 -50 -34q-13 0 -38 35l-84 117l22 21z" />
    <glyph glyph-name="Sacute" unicode="&#x15a;" horiz-adv-x="497" 
d="M321 683q71 0 121.5 -29.5t50.5 -76.5q0 -23 -12 -40t-35 -17q-25 0 -38.5 17t-13.5 42q0 32 17 53q-41 18 -88 18q-58 0 -105.5 -31t-47.5 -94q0 -35 30.5 -64.5t73.5 -52t86 -47.5t73.5 -64.5t30.5 -88.5q0 -57 -25 -100.5t-66 -68t-87.5 -37t-94.5 -12.5
q-78 0 -132 30t-54 77q0 30 14.5 44t34.5 14q22 0 36 -16t14 -41q0 -32 -17 -55q39 -23 109 -23q75 0 134 40t59 115q0 43 -30.5 77t-73.5 57.5t-86 46.5t-73.5 57.5t-30.5 78.5q0 92 66.5 141.5t159.5 49.5zM266 737l-5 22q48 23 82 52t51.5 44.5t38.5 15.5q13 0 19.5 -9
t6.5 -21q0 -10 -10 -23.5t-30.5 -29.5t-60.5 -30t-92 -21z" />
    <glyph glyph-name="sacute" unicode="&#x15b;" horiz-adv-x="363" 
d="M136 -11q-58 0 -94.5 23t-36.5 60q0 23 12 34.5t27 11.5q40 0 40 -44q0 -28 -16 -46q28 -13 71 -13q50 0 79.5 26.5t29.5 63.5q0 24 -19 45t-46 37t-54.5 33t-46.5 41.5t-19 53.5q0 61 45 97.5t112 36.5q50 0 86.5 -23t36.5 -62q0 -20 -12 -31.5t-27 -11.5
q-19 0 -30.5 13t-11.5 29q0 26 17 48q-23 10 -53 10q-38 0 -65.5 -21.5t-27.5 -60.5q0 -22 19 -42t45.5 -36t53.5 -33.5t46 -42.5t19 -55q0 -57 -51.5 -99t-128.5 -42zM171 514l-8 19q47 31 78.5 67.5t48 54t38.5 17.5q13 0 20.5 -9.5t7.5 -21.5q0 -24 -48 -62.5t-137 -64.5
z" />
    <glyph glyph-name="Scircumflex" unicode="&#x15c;" horiz-adv-x="497" 
d="M321 683q71 0 121.5 -29.5t50.5 -76.5q0 -23 -12 -40t-35 -17q-25 0 -38.5 17t-13.5 42q0 32 17 53q-41 18 -88 18q-58 0 -105.5 -31t-47.5 -94q0 -35 30.5 -64.5t73.5 -52t86 -47.5t73.5 -64.5t30.5 -88.5q0 -57 -25 -100.5t-66 -68t-87.5 -37t-94.5 -12.5
q-78 0 -132 30t-54 77q0 30 14.5 44t34.5 14q22 0 36 -16t14 -41q0 -32 -17 -55q39 -23 109 -23q75 0 134 40t59 115q0 43 -30.5 77t-73.5 57.5t-86 46.5t-73.5 57.5t-30.5 78.5q0 92 66.5 141.5t159.5 49.5zM474 725l-125 82l-152 -83l-12 22l125 100q41 34 52 34
q3 0 5 -0.5t5 -2.5t5 -3.5t5.5 -5t5.5 -6t7 -7.5l8 -8l92 -100z" />
    <glyph glyph-name="scircumflex" unicode="&#x15d;" horiz-adv-x="363" 
d="M136 -11q-58 0 -94.5 23t-36.5 60q0 23 12 34.5t27 11.5q40 0 40 -44q0 -28 -16 -46q28 -13 71 -13q50 0 79.5 26.5t29.5 63.5q0 24 -19 45t-46 37t-54.5 33t-46.5 41.5t-19 53.5q0 61 45 97.5t112 36.5q50 0 86.5 -23t36.5 -62q0 -20 -12 -31.5t-27 -11.5
q-19 0 -30.5 13t-11.5 29q0 26 17 48q-23 10 -53 10q-38 0 -65.5 -21.5t-27.5 -60.5q0 -22 19 -42t45.5 -36t53.5 -33.5t46 -42.5t19 -55q0 -57 -51.5 -99t-128.5 -42zM355 498l-113 101l-149 -102l-14 21l124 117q36 35 52 35q14 0 38 -34l84 -119z" />
    <glyph glyph-name="Scedilla" unicode="&#x15e;" horiz-adv-x="497" 
d="M321 683q71 0 121.5 -29.5t50.5 -76.5q0 -23 -12 -40t-35 -17q-25 0 -38.5 17t-13.5 42q0 32 17 53q-41 18 -88 18q-58 0 -105.5 -31t-47.5 -94q0 -35 30.5 -64.5t73.5 -52t86 -47.5t73.5 -64.5t30.5 -88.5q0 -68 -36.5 -116.5t-87.5 -71t-113 -28.5l-28 -51
q55 -2 84 -24.5t29 -54.5q0 -42 -43.5 -73.5t-121.5 -31.5q-26 0 -39 2l4 27q65 0 99 19.5t34 45.5q0 21 -23.5 34t-58.5 14l-8 18l42 73h-6q-78 0 -132 30t-54 77q0 30 14.5 44t34.5 14q22 0 36 -16t14 -41q0 -32 -17 -55q39 -23 109 -23q75 0 134 40t59 115q0 43 -30.5 77
t-73.5 57.5t-86 46.5t-73.5 57.5t-30.5 78.5q0 92 66.5 141.5t159.5 49.5z" />
    <glyph glyph-name="scedilla" unicode="&#x15f;" horiz-adv-x="363" 
d="M316 130q0 -52 -44 -92.5t-113 -47.5l-27 -49q55 -2 84 -24.5t29 -54.5q0 -42 -43.5 -73.5t-121.5 -31.5q-26 0 -39 2l4 27q65 0 99 19.5t34 45.5q0 21 -23.5 34t-58.5 14l-8 18l41 72q-55 2 -89.5 24.5t-34.5 58.5q0 23 12 34.5t27 11.5q40 0 40 -44q0 -28 -16 -46
q28 -13 71 -13q50 0 79.5 26.5t29.5 63.5q0 24 -19 45t-46 37t-54.5 33t-46.5 41.5t-19 53.5q0 61 45 97.5t112 36.5q50 0 86.5 -23t36.5 -62q0 -20 -12 -31.5t-27 -11.5q-19 0 -30.5 13t-11.5 29q0 26 17 48q-23 10 -53 10q-38 0 -65.5 -21.5t-27.5 -60.5q0 -22 19 -42
t45.5 -36t53.5 -33.5t46 -42.5t19 -55z" />
    <glyph glyph-name="Scaron" unicode="&#x160;" horiz-adv-x="497" 
d="M321 683q71 0 121.5 -29.5t50.5 -76.5q0 -23 -12 -40t-35 -17q-25 0 -38.5 17t-13.5 42q0 32 17 53q-41 18 -88 18q-58 0 -105.5 -31t-47.5 -94q0 -35 30.5 -64.5t73.5 -52t86 -47.5t73.5 -64.5t30.5 -88.5q0 -57 -25 -100.5t-66 -68t-87.5 -37t-94.5 -12.5
q-78 0 -132 30t-54 77q0 30 14.5 44t34.5 14q22 0 36 -16t14 -41q0 -32 -17 -55q39 -23 109 -23q75 0 134 40t59 115q0 43 -30.5 77t-73.5 57.5t-86 46.5t-73.5 57.5t-30.5 78.5q0 92 66.5 141.5t159.5 49.5zM343 798l156 87l13 -22l-129 -105q-41 -33 -53 -33q-8 0 -15 6.5
t-25 27.5l-88 105l20 22z" />
    <glyph glyph-name="scaron" unicode="&#x161;" horiz-adv-x="363" 
d="M136 -11q-58 0 -94.5 23t-36.5 60q0 23 12 34.5t27 11.5q40 0 40 -44q0 -28 -16 -46q28 -13 71 -13q50 0 79.5 26.5t29.5 63.5q0 24 -19 45t-46 37t-54.5 33t-46.5 41.5t-19 53.5q0 61 45 97.5t112 36.5q50 0 86.5 -23t36.5 -62q0 -20 -12 -31.5t-27 -11.5
q-19 0 -30.5 13t-11.5 29q0 26 17 48q-23 10 -53 10q-38 0 -65.5 -21.5t-27.5 -60.5q0 -22 19 -42t45.5 -36t53.5 -33.5t46 -42.5t19 -55q0 -57 -51.5 -99t-128.5 -42zM235 568l149 103l14 -21l-126 -117q-35 -34 -50 -34q-13 0 -38 35l-84 117l22 21z" />
    <glyph glyph-name="Tcommaaccent" unicode="&#x162;" horiz-adv-x="583" 
d="M102 677l12 6q88 -9 252 -9q159 0 258 9l9 -6l-14 -185l-8 -1q-15 -1 -19 16q-9 42 -14 60t-13.5 37.5t-21.5 25t-31.5 9.5t-49.5 4h-62l-98 -555q-4 -24 7 -36t26.5 -13.5t28 -7.5t10.5 -19l-2 -12h-240l2 12q2 12 15.5 18.5t28.5 8.5t29.5 14.5t18.5 36.5l98 553h-62
q-74 0 -101.5 -21.5t-76.5 -114.5q-11 -21 -26 -17l-8 2zM272 7l-37 -66q55 -2 84 -24.5t29 -54.5q0 -42 -43.5 -73.5t-121.5 -31.5q-26 0 -39 2l4 27q65 0 99 19.5t34 45.5q0 21 -23.5 34t-58.5 14l-8 18l54 94z" />
    <glyph glyph-name="tcommaaccent" unicode="&#x163;" horiz-adv-x="251" 
d="M83 7l-37 -66q55 -2 84 -24.5t29 -54.5q0 -42 -43.5 -73.5t-121.5 -31.5q-26 0 -39 2l4 27q65 0 99 19.5t34 45.5q0 21 -23.5 34t-58.5 14l-8 18l54 94zM40 67l65 338h-70l5 24q58 8 88 37t55 95h20l-25 -125h108l-6 -31h-108l-69 -356l101 66l13 -17q-39 -44 -83 -76.5
t-62 -32.5q-26 0 -33 14t1 64z" />
    <glyph glyph-name="Tcaron" unicode="&#x164;" horiz-adv-x="583" 
d="M102 677l12 6q88 -9 252 -9q159 0 258 9l9 -6l-14 -185l-8 -1q-15 -1 -19 16q-9 42 -14 60t-13.5 37.5t-21.5 25t-31.5 9.5t-49.5 4h-62l-98 -555q-4 -24 7 -36t26.5 -13.5t28 -7.5t10.5 -19l-2 -12h-240l2 12q2 12 15.5 18.5t28.5 8.5t29.5 14.5t18.5 36.5l98 553h-62
q-74 0 -101.5 -21.5t-76.5 -114.5q-11 -21 -26 -17l-8 2zM382 798l156 87l13 -22l-129 -105q-40 -33 -53 -33q-8 0 -15 6.5t-25 27.5l-88 105l20 22z" />
    <glyph glyph-name="tcaron" unicode="&#x165;" horiz-adv-x="251" 
d="M335 706q17 0 28 -11t11 -30q0 -33 -37 -78.5t-89 -70.5l-9 18q57 45 69 90q-25 7 -25 31q0 20 15 35.5t37 15.5zM105 405l-65 -338q-8 -50 -1 -64t33 -14q18 0 62 32.5t83 76.5l-13 17l-101 -66l69 356h108l6 31h-108l25 125h-20q-25 -66 -55 -95t-88 -37l-5 -24h70z
" />
    <glyph glyph-name="Tbar" unicode="&#x166;" horiz-adv-x="583" 
d="M102 677l12 6q88 -9 252 -9q159 0 258 9l9 -6l-14 -185l-8 -1q-15 -1 -19 16q-9 42 -14 60t-13.5 37.5t-21.5 25t-31.5 9.5t-49.5 4h-62l-47 -263h169l-6 -33h-169l-45 -259q-4 -24 7 -36t26.5 -13.5t28 -7.5t10.5 -19l-2 -12h-240l2 12q2 12 15.5 18.5t28.5 8.5
t29.5 14.5t18.5 36.5l45 257h-157l6 33h157l47 263h-62q-74 0 -101.5 -21.5t-76.5 -114.5q-11 -21 -26 -17l-8 2z" />
    <glyph glyph-name="tbar" unicode="&#x167;" horiz-adv-x="251" 
d="M84 294l21 111h-70l5 24q58 8 88 37t55 95h20l-25 -125h108l-6 -31h-108l-22 -111h117l-5 -33h-118l-41 -212l101 66l13 -17q-39 -44 -83 -76.5t-62 -32.5q-26 0 -33 14t1 64l37 194h-60l5 33h62z" />
    <glyph glyph-name="Utilde" unicode="&#x168;" horiz-adv-x="692" 
d="M651 581l-56 -315q-24 -134 -98.5 -205.5t-184.5 -71.5q-114 0 -171 60t-34 191l61 342q4 24 -6 37t-24.5 15.5t-26 8.5t-9.5 18l2 12h242l-2 -12q-2 -12 -16.5 -18t-31 -8t-32.5 -14.5t-20 -36.5l-58 -324q-19 -111 12.5 -173t135.5 -62q89 0 150 64t82 187l54 303
q4 24 -7.5 37.5t-28 16.5t-29.5 9.5t-11 18.5l2 12h206l-2 -12q-2 -12 -16.5 -18t-31 -8t-32 -15t-19.5 -39zM594 848l13 -6q-14 -37 -39 -62t-57 -25q-21 0 -60.5 16.5t-58.5 16.5q-36 0 -66 -41l-16 8q14 34 39 62t58 28q19 0 60.5 -17.5t64.5 -17.5q32 0 62 38z" />
    <glyph glyph-name="utilde" unicode="&#x169;" horiz-adv-x="505" 
d="M449 434l-6 6l-60 -4l-11 -53q-24 -112 -85.5 -226.5t-105.5 -114.5q-39 0 -39 49q0 29 11 73l43 197q8 40 8 52q0 38 -43 38q-21 0 -57 -29t-74 -73l15 -17l89 62l-56 -275q-7 -31 -7 -59q0 -73 73 -73q42 0 95 49.5t101 172.5h4l-18 -64q-19 -66 -19 -112q0 -42 42 -42
q37 0 126 94l-13 17l-86 -53zM445 632l13 -6q-14 -37 -39 -62t-57 -25q-21 0 -60.5 16.5t-58.5 16.5q-36 0 -66 -41l-16 8q14 34 39 62t58 28q19 0 60.5 -17.5t64.5 -17.5q32 0 62 38z" />
    <glyph glyph-name="Umacron" unicode="&#x16a;" horiz-adv-x="692" 
d="M651 581l-56 -315q-24 -134 -98.5 -205.5t-184.5 -71.5q-114 0 -171 60t-34 191l61 342q4 24 -6 37t-24.5 15.5t-26 8.5t-9.5 18l2 12h242l-2 -12q-2 -12 -16.5 -18t-31 -8t-32.5 -14.5t-20 -36.5l-58 -324q-19 -111 12.5 -173t135.5 -62q89 0 150 64t82 187l54 303
q4 24 -7.5 37.5t-28 16.5t-29.5 9.5t-11 18.5l2 12h206l-2 -12q-2 -12 -16.5 -18t-31 -8t-32 -15t-19.5 -39zM597 823l-20 -57q-100 10 -255 0l15 42q54 9 260 15z" />
    <glyph glyph-name="umacron" unicode="&#x16b;" horiz-adv-x="505" 
d="M449 434l-6 6l-60 -4l-11 -53q-24 -112 -85.5 -226.5t-105.5 -114.5q-39 0 -39 49q0 29 11 73l43 197q8 40 8 52q0 38 -43 38q-21 0 -57 -29t-74 -73l15 -17l89 62l-56 -275q-7 -31 -7 -59q0 -73 73 -73q42 0 95 49.5t101 172.5h4l-18 -64q-19 -66 -19 -112q0 -42 42 -42
q37 0 126 94l-13 17l-86 -53zM449 615l-19 -54q-96 9 -246 0l14 39q57 9 251 15z" />
    <glyph glyph-name="Ubreve" unicode="&#x16c;" horiz-adv-x="692" 
d="M651 581l-56 -315q-24 -134 -98.5 -205.5t-184.5 -71.5q-114 0 -171 60t-34 191l61 342q4 24 -6 37t-24.5 15.5t-26 8.5t-9.5 18l2 12h242l-2 -12q-2 -12 -16.5 -18t-31 -8t-32.5 -14.5t-20 -36.5l-58 -324q-19 -111 12.5 -173t135.5 -62q89 0 150 64t82 187l54 303
q4 24 -7.5 37.5t-28 16.5t-29.5 9.5t-11 18.5l2 12h206l-2 -12q-2 -12 -16.5 -18t-31 -8t-32 -15t-19.5 -39zM589 863l22 -6q-59 -130 -163 -130q-57 0 -85 38t-21 106l24 7q15 -95 88 -95q79 0 135 80z" />
    <glyph glyph-name="ubreve" unicode="&#x16d;" horiz-adv-x="505" 
d="M449 434l-6 6l-60 -4l-11 -53q-24 -112 -85.5 -226.5t-105.5 -114.5q-39 0 -39 49q0 29 11 73l43 197q8 40 8 52q0 38 -43 38q-21 0 -57 -29t-74 -73l15 -17l89 62l-56 -275q-7 -31 -7 -59q0 -73 73 -73q42 0 95 49.5t101 172.5h4l-18 -64q-19 -66 -19 -112q0 -42 42 -42
q37 0 126 94l-13 17l-86 -53zM441 652l22 -6q-64 -137 -167 -137q-57 0 -86 39.5t-20 111.5l24 7q8 -54 29 -78t59 -24q71 0 139 87z" />
    <glyph glyph-name="Uring" unicode="&#x16e;" horiz-adv-x="692" 
d="M651 581l-56 -315q-24 -134 -98.5 -205.5t-184.5 -71.5q-114 0 -171 60t-34 191l61 342q4 24 -6 37t-24.5 15.5t-26 8.5t-9.5 18l2 12h242l-2 -12q-2 -12 -16.5 -18t-31 -8t-32.5 -14.5t-20 -36.5l-58 -324q-19 -111 12.5 -173t135.5 -62q89 0 150 64t82 187l54 303
q4 24 -7.5 37.5t-28 16.5t-29.5 9.5t-11 18.5l2 12h206l-2 -12q-2 -12 -16.5 -18t-31 -8t-32 -15t-19.5 -39zM467 902q35 0 56.5 -22.5t21.5 -57.5q0 -47 -33 -81t-79 -34q-36 0 -58.5 22.5t-22.5 57.5q0 45 33.5 80t81.5 35zM462 876q-33 0 -56 -25.5t-23 -58.5
q0 -25 14.5 -41.5t40.5 -16.5q31 0 54 23.5t23 56.5q0 27 -14 44.5t-39 17.5z" />
    <glyph glyph-name="uring" unicode="&#x16f;" horiz-adv-x="505" 
d="M449 434l-6 6l-60 -4l-11 -53q-24 -112 -85.5 -226.5t-105.5 -114.5q-39 0 -39 49q0 29 11 73l43 197q8 40 8 52q0 38 -43 38q-21 0 -57 -29t-74 -73l15 -17l89 62l-56 -275q-7 -31 -7 -59q0 -73 73 -73q42 0 95 49.5t101 172.5h4l-18 -64q-19 -66 -19 -112q0 -42 42 -42
q37 0 126 94l-13 17l-86 -53zM327 692q35 0 56.5 -22.5t21.5 -57.5q0 -47 -33 -81t-79 -34q-36 0 -58.5 22.5t-22.5 57.5q0 45 33.5 80t81.5 35zM322 666q-33 0 -56 -25.5t-23 -58.5q0 -25 14.5 -41.5t40.5 -16.5q31 0 54 23.5t23 56.5q0 27 -14 44.5t-39 17.5z" />
    <glyph glyph-name="Uhungarumlaut" unicode="&#x170;" horiz-adv-x="692" 
d="M651 581l-56 -315q-24 -134 -98.5 -205.5t-184.5 -71.5q-114 0 -171 60t-34 191l61 342q4 24 -6 37t-24.5 15.5t-26 8.5t-9.5 18l2 12h242l-2 -12q-2 -12 -16.5 -18t-31 -8t-32.5 -14.5t-20 -36.5l-58 -324q-19 -111 12.5 -173t135.5 -62q89 0 150 64t82 187l54 303
q4 24 -7.5 37.5t-28 16.5t-29.5 9.5t-11 18.5l2 12h206l-2 -12q-2 -12 -16.5 -18t-31 -8t-32 -15t-19.5 -39zM312 737l-6 22q49 23 89 53t61 46.5t36 16.5q13 0 19.5 -9t6.5 -21q0 -14 -20.5 -34.5t-70 -42.5t-115.5 -31zM462 737l-6 22q49 23 89 53t61 46.5t36 16.5
q13 0 19.5 -9t6.5 -21q0 -14 -20.5 -34.5t-70 -42.5t-115.5 -31z" />
    <glyph glyph-name="uhungarumlaut" unicode="&#x171;" horiz-adv-x="505" 
d="M449 434l-6 6l-60 -4l-11 -53q-24 -112 -85.5 -226.5t-105.5 -114.5q-39 0 -39 49q0 29 11 73l43 197q8 40 8 52q0 38 -43 38q-21 0 -57 -29t-74 -73l15 -17l89 62l-56 -275q-7 -31 -7 -59q0 -73 73 -73q42 0 95 49.5t101 172.5h4l-18 -64q-19 -66 -19 -112q0 -42 42 -42
q37 0 126 94l-13 17l-86 -53zM174 509l-7 20q47 31 83.5 68t54.5 55.5t35 18.5q25 0 25 -26q0 -24 -51.5 -67t-139.5 -69zM303 509l-7 20q47 31 84 68t54.5 55.5t34.5 18.5q26 0 26 -27q0 -24 -52 -67t-140 -68z" />
    <glyph glyph-name="Uogonek" unicode="&#x172;" horiz-adv-x="692" 
d="M651 581l-56 -315q-24 -134 -98.5 -205.5t-184.5 -71.5q-114 0 -171 60t-34 191l61 342q4 24 -6 37t-24.5 15.5t-26 8.5t-9.5 18l2 12h242l-2 -12q-2 -12 -16.5 -18t-31 -8t-32.5 -14.5t-20 -36.5l-58 -324q-19 -111 12.5 -173t135.5 -62q89 0 150 64t82 187l54 303
q4 24 -7.5 37.5t-28 16.5t-29.5 9.5t-11 18.5l2 12h206l-2 -12q-2 -12 -16.5 -18t-31 -8t-32 -15t-19.5 -39zM321 4l7 -10q-40 -34 -64.5 -72.5t-24.5 -66.5q0 -46 72 -46q22 0 62 7l2 -24q-59 -27 -114 -27q-87 0 -87 63q0 37 35.5 86t111.5 90z" />
    <glyph glyph-name="uogonek" unicode="&#x173;" horiz-adv-x="505" 
d="M443 440l6 -6l-73 -385l86 53l13 -17q-89 -94 -126 -94q-17 0 -27 7q-66 -68 -66 -118q0 -46 72 -46q22 0 62 7l2 -24q-59 -27 -114 -27q-87 0 -87 63q0 34 28.5 77.5t90.5 82.5q-3 7 -3 20q0 45 19 112l18 64h-4q-48 -123 -101 -172.5t-95 -49.5q-73 0 -73 73q0 28 7 59
l56 275l-89 -62l-15 17q38 44 74 73t57 29q43 0 43 -38q0 -12 -8 -52l-43 -197q-11 -44 -11 -73q0 -49 39 -49q44 0 105.5 114.5t85.5 226.5l11 53z" />
    <glyph glyph-name="Wcircumflex" unicode="&#x174;" horiz-adv-x="871" 
d="M487 524h5q5 -84 26 -214l49 -317h29l249 566q16 36 36.5 55t36 22.5t27.5 8.5t14 16l2 13h-192l-2 -13q-2 -11 10.5 -16.5t26.5 -9.5t19.5 -21t-9.5 -51l-191 -436h-4q-13 119 -24 189l-51 340h-27l-247 -537h-4q-1 106 -14 206l-29 249q-3 30 5 45.5t20.5 17t24.5 7.5
t14 19l2 11h-222l-1 -10q-1 -14 9.5 -20.5t25 -10t28.5 -23t18 -54.5l65 -565h29zM678 719l-125 82l-152 -83l-12 22l125 100q41 34 52 34q3 0 5 -0.5t5 -2.5t5 -3.5t5.5 -5t5.5 -6t7 -7.5l8 -8l92 -100z" />
    <glyph glyph-name="wcircumflex" unicode="&#x175;" horiz-adv-x="653" 
d="M359 449q21 0 33 -11.5t15 -23t5 -31.5q17 -184 20 -311h4q48 52 93.5 131t68.5 151q-23 4 -36.5 22.5t-13.5 38.5q0 18 10.5 31t29.5 13q22 0 36 -16.5t14 -43.5q0 -78 -75 -202t-161 -206h-32q-1 104 -14 256q-78 -148 -191 -256h-32q-3 213 -29 403l-75 -83l-19 13
q69 125 112 125q21 0 33 -12t14.5 -23t4.5 -31q18 -197 21 -316h4q32 33 78 103.5t74 133.5q-2 25 -10 90l-75 -83l-19 13q69 125 112 125zM500 498l-113 101l-149 -102l-14 21l124 117q36 35 52 35q14 0 38 -34l84 -119z" />
    <glyph glyph-name="Ycircumflex" unicode="&#x176;" horiz-adv-x="540" 
d="M303 340h6l128 190q30 46 33 69q3 17 -5 27t-18.5 13t-19.5 8.5t-7 13.5l2 13h198l-2 -12q-2 -12 -13.5 -18t-27.5 -10.5t-43 -27t-53 -61.5l-163 -242l-38 -215q-4 -25 7 -37t27 -13.5t28.5 -7t10.5 -18.5l-2 -12h-242l2 12q2 12 15.5 18t29 7.5t30.5 14.5t19 38l37 208
l-90 265q-10 29 -26 47t-28.5 23t-20.5 12t-6 20l1 9h218l-2 -12q-2 -14 -30.5 -24t-31.5 -29q-2 -13 6 -37l45 -137q16 -48 26 -95zM493 725l-125 82l-152 -83l-12 22l125 100q41 34 52 34q3 0 5 -0.5t5 -2.5t5 -3.5t5.5 -5t5.5 -6t7 -7.5l8 -8l92 -100z" />
    <glyph glyph-name="ycircumflex" unicode="&#x177;" horiz-adv-x="423" 
d="M358 456q20 0 35 -15t15 -45q0 -71 -46 -176t-115 -201t-158.5 -164.5t-166.5 -68.5q-29 0 -55.5 15.5t-26.5 42.5q0 22 15 34.5t33 12.5q24 0 41 -22.5t17 -50.5q74 7 190 118q-7 112 -24 254.5t-30 203.5l-75 -83l-19 14q65 124 116 124q38 0 47 -39q20 -85 46 -405
q69 82 113 174.5t60 164.5q-25 5 -40 23.5t-15 44.5q0 14 10 29t33 15zM376 498l-113 101l-149 -102l-14 21l124 117q36 35 52 35q14 0 38 -34l84 -119z" />
    <glyph glyph-name="Ydieresis" unicode="&#x178;" horiz-adv-x="540" 
d="M303 340h6l128 190q30 46 33 69q3 17 -5 27t-18.5 13t-19.5 8.5t-7 13.5l2 13h198l-2 -12q-2 -12 -13.5 -18t-27.5 -10.5t-43 -27t-53 -61.5l-163 -242l-38 -215q-4 -25 7 -37t27 -13.5t28.5 -7t10.5 -18.5l-2 -12h-242l2 12q2 12 15.5 18t29 7.5t30.5 14.5t19 38l37 208
l-90 265q-10 29 -26 47t-28.5 23t-20.5 12t-6 20l1 9h218l-2 -12q-2 -14 -30.5 -24t-31.5 -29q-2 -13 6 -37l45 -137q16 -48 26 -95zM288 834q15 0 25 -10.5t10 -26.5q0 -21 -16 -38t-36 -17q-16 0 -26.5 11t-10.5 27q0 21 17 37.5t37 16.5zM453 834q16 0 26 -10.5t10 -26.5
q0 -22 -16.5 -38.5t-36.5 -16.5q-16 0 -26.5 11t-10.5 27q0 21 17 37.5t37 16.5z" />
    <glyph glyph-name="Zacute" unicode="&#x179;" horiz-adv-x="573" 
d="M503 642h-197q-71 0 -103 -23t-75 -112q-10 -21 -24 -17l-9 2l53 186l10 5q69 -9 189 -9h256l-5 -28l-501 -614h231q36 0 63.5 11t52.5 38.5t44 56.5t49 83q11 19 25 17l10 -2l-89 -233l-8 -7q-100 4 -260 4h-225l4 27zM314 737l-5 22q48 23 82 52t51.5 44.5t38.5 15.5
q13 0 19.5 -9t6.5 -21q0 -10 -10 -23.5t-30.5 -29.5t-60.5 -30t-92 -21z" />
    <glyph glyph-name="zacute" unicode="&#x17a;" horiz-adv-x="426" 
d="M128 448q41 0 118 -19t95 -19q31 0 67 48l23 -12q-28 -53 -82.5 -110t-105.5 -98.5t-104.5 -89.5t-77.5 -82l4 -4q44 16 104 16q59 0 151 -18l48 99l23 -6q-31 -167 -81 -167q-41 0 -125.5 24t-102.5 24q-31 0 -67 -48l-25 12q23 56 68.5 109.5t90 89.5t104 87.5
t97.5 95.5l-2 3q-50 -22 -111 -22q-44 0 -114 12l-43 -92l-23 6q5 33 10 55.5t13.5 49.5t20.5 41.5t27 14.5zM193 514l-8 19q47 31 78.5 67.5t48 54t38.5 17.5q13 0 20.5 -9.5t7.5 -21.5q0 -24 -48 -62.5t-137 -64.5z" />
    <glyph glyph-name="Zdotaccent" unicode="&#x17b;" horiz-adv-x="573" 
d="M503 642h-197q-71 0 -103 -23t-75 -112q-10 -21 -24 -17l-9 2l53 186l10 5q69 -9 189 -9h256l-5 -28l-501 -614h231q36 0 63.5 11t52.5 38.5t44 56.5t49 83q11 19 25 17l10 -2l-89 -233l-8 -7q-100 4 -260 4h-225l4 27zM397 847q18 0 29 -12.5t11 -30.5
q0 -25 -18.5 -43.5t-40.5 -18.5q-17 0 -28 12t-11 30q0 24 17.5 43.5t40.5 19.5z" />
    <glyph glyph-name="zdotaccent" unicode="&#x17c;" horiz-adv-x="426" 
d="M128 448q41 0 118 -19t95 -19q31 0 67 48l23 -12q-28 -53 -82.5 -110t-105.5 -98.5t-104.5 -89.5t-77.5 -82l4 -4q44 16 104 16q59 0 151 -18l48 99l23 -6q-31 -167 -81 -167q-41 0 -125.5 24t-102.5 24q-31 0 -67 -48l-25 12q23 56 68.5 109.5t90 89.5t104 87.5
t97.5 95.5l-2 3q-50 -22 -111 -22q-44 0 -114 12l-43 -92l-23 6q5 33 10 55.5t13.5 49.5t20.5 41.5t27 14.5zM288 641q18 0 29 -12.5t11 -30.5q0 -25 -18.5 -43.5t-40.5 -18.5q-17 0 -28 12t-11 30q0 24 17.5 43.5t40.5 19.5z" />
    <glyph glyph-name="Zcaron" unicode="&#x17d;" horiz-adv-x="573" 
d="M503 642h-197q-71 0 -103 -23t-75 -112q-10 -21 -24 -17l-9 2l53 186l10 5q69 -9 189 -9h256l-5 -28l-501 -614h231q36 0 63.5 11t52.5 38.5t44 56.5t49 83q11 19 25 17l10 -2l-89 -233l-8 -7q-100 4 -260 4h-225l4 27zM398 798l156 87l13 -22l-129 -105q-40 -33 -53 -33
q-8 0 -15 6.5t-25 27.5l-88 105l20 22z" />
    <glyph glyph-name="zcaron" unicode="&#x17e;" horiz-adv-x="426" 
d="M128 448q41 0 118 -19t95 -19q31 0 67 48l23 -12q-28 -53 -82.5 -110t-105.5 -98.5t-104.5 -89.5t-77.5 -82l4 -4q44 16 104 16q59 0 151 -18l48 99l23 -6q-31 -167 -81 -167q-41 0 -125.5 24t-102.5 24q-31 0 -67 -48l-25 12q23 56 68.5 109.5t90 89.5t104 87.5
t97.5 95.5l-2 3q-50 -22 -111 -22q-44 0 -114 12l-43 -92l-23 6q5 33 10 55.5t13.5 49.5t20.5 41.5t27 14.5zM273 568l149 103l14 -21l-126 -117q-35 -34 -50 -34q-13 0 -38 35l-84 117l22 21z" />
    <glyph glyph-name="longs" unicode="&#x17f;" horiz-adv-x="253" 
d="M405 734q34 0 56 -12.5t22 -34.5q0 -19 -12.5 -30t-31.5 -11q-55 0 -55 61q-39 -3 -68.5 -20t-47 -38t-31.5 -61t-20.5 -69.5t-15.5 -83.5q-52 -297 -86.5 -419.5t-71.5 -171.5q-51 -67 -114 -67q-27 0 -45.5 14.5t-18.5 34.5q0 19 13 30.5t31 11.5q21 0 38.5 -16
t21.5 -46q50 21 74 158q46 267 82 442h-91l5 19l91 10q29 150 105.5 224.5t169.5 74.5z" />
    <glyph glyph-name="florin" unicode="&#x192;" 
d="M141 345l3 29h87q79 294 207 294q28 0 48 -14t20 -40q0 -19 -12 -29.5t-29 -10.5q-26 0 -40 20.5t-11 47.5q-33 -17 -56 -71t-53 -197h100l-3 -29h-102q-48 -231 -105 -341t-146 -110q-22 0 -40.5 10.5t-18.5 30.5t13.5 31.5t30.5 11.5q43 0 64 -48q17 10 30 32.5
t24.5 64.5t20 81.5t23.5 111t28 125.5h-83z" />
    <glyph glyph-name="AEacute" unicode="&#x1fc;" horiz-adv-x="957" 
d="M606 32h89q73 0 117 39t101 138q14 25 27 21l12 -3l-86 -224l-7 -7q-142 4 -480 4l2 15q2 11 14.5 16t27 7t29 17t19.5 45l26 148h-245l-98 -130q-21 -28 -22.5 -45.5t10.5 -24.5t26.5 -11t25 -9t7.5 -14l-5 -14h-226l5 13q4 11 17 16.5t29 9.5t41.5 23.5t51.5 52.5
l401 523q-1 0 -4 1q-14 3 -19.5 6.5t-4.5 12.5l2 16q310 0 454 8l3 -5l-13 -173l-9 -1q-17 -1 -21 16q-20 86 -41 104.5t-91 18.5h-130l-48 -272h91q35 0 57 17.5t28.5 38t14.5 38t19 17.5h10l-46 -265h-7q-12 0 -16 19t-4 42t-14.5 42t-46.5 19h-92l-42 -241q-6 -33 7 -49
t54 -16zM502 278l53 296q6 35 -12 52l-268 -348h227zM624 737l-5 22q48 23 82 52t51.5 44.5t38.5 15.5q13 0 19.5 -9t6.5 -21q0 -10 -10 -23.5t-30.5 -29.5t-60.5 -30t-92 -21z" />
    <glyph glyph-name="aeacute" unicode="&#x1fd;" horiz-adv-x="673" 
d="M437 -11q-97 0 -129 78q-98 -79 -195 -79q-51 0 -77.5 24.5t-26.5 66.5q0 50 23 85t61.5 52.5t76.5 24.5t79 7q30 0 57 -4l14 72q3 15 3 30q0 38 -23.5 55t-58.5 17q-45 0 -77 -20q16 -17 16 -41q0 -23 -13 -39.5t-38 -16.5q-14 0 -25 12t-11 28q0 36 42 71.5t125 35.5
q97 0 121 -67q66 68 164 68q50 0 79 -24.5t29 -68.5q0 -65 -66.5 -107.5t-181.5 -42.5q-20 0 -30 1q-3 -19 -3 -38q0 -59 25.5 -96t70.5 -37q65 0 145 71l16 -15q-87 -103 -192 -103zM144 31q35 0 83 19t72 45q-5 19 -5 49q0 35 6 71q-16 2 -39 2q-86 0 -132 -36t-46 -99
q0 -51 61 -51zM378 236q8 -1 25 -1q84 0 128.5 34.5t44.5 89.5q0 28 -14.5 42t-38.5 14q-48 0 -89 -46t-56 -133zM345 514l-8 19q47 31 78.5 67.5t48 54t38.5 17.5q13 0 20.5 -9.5t7.5 -21.5q0 -24 -48 -62.5t-137 -64.5z" />
    <glyph glyph-name="Oslashacute" unicode="&#x1fe;" horiz-adv-x="687" 
d="M388 737l-5 22q48 23 82 52t51.5 44.5t38.5 15.5q13 0 19.5 -9t6.5 -21q0 -10 -10 -23.5t-30.5 -29.5t-60.5 -30t-92 -21zM423 682q103 0 168 -60l60 73l18 -16l-61 -74q64 -73 64 -192q0 -170 -110 -297t-261 -127q-97 0 -160 50l-61 -74l-18 17l61 74q-68 69 -68 196
q0 112 48.5 211t134 159t185.5 60zM417 650q-70 0 -126 -41.5t-88.5 -106.5t-49 -134.5t-16.5 -134.5q0 -79 25 -129l393 475q-43 71 -138 71zM589 432q0 74 -22 124l-391 -475q43 -61 134 -61q70 0 125.5 40t88 102.5t49 132t16.5 137.5z" />
    <glyph glyph-name="oslashacute" unicode="&#x1ff;" horiz-adv-x="472" 
d="M258 514l-8 19q47 31 78.5 67.5t48 54t38.5 17.5q13 0 20.5 -9.5t7.5 -21.5q0 -24 -48 -62.5t-137 -64.5zM274 449q68 0 113 -42l44 53l18 -16l-46 -55q34 -46 34 -113q0 -113 -76 -200t-177 -87q-57 0 -94 27l-43 -51l-18 17l43 51q-37 44 -37 130q0 115 69.5 200.5
t169.5 85.5zM268 418q-50 0 -88 -46.5t-55 -108t-17 -121.5q0 -37 6 -60l237 283q-22 53 -83 53zM364 292q0 26 -4 46l-237 -282q20 -37 69 -37q54 0 95.5 49t59 109.5t17.5 114.5z" />
    <glyph glyph-name="Scommaaccent" unicode="&#x218;" horiz-adv-x="497" 
d="M321 683q71 0 121.5 -29.5t50.5 -76.5q0 -23 -12 -40t-35 -17q-25 0 -38.5 17t-13.5 42q0 32 17 53q-41 18 -88 18q-58 0 -105.5 -31t-47.5 -94q0 -35 30.5 -64.5t73.5 -52t86 -47.5t73.5 -64.5t30.5 -88.5q0 -57 -25 -100.5t-66 -68t-87.5 -37t-94.5 -12.5
q-78 0 -132 30t-54 77q0 30 14.5 44t34.5 14q22 0 36 -16t14 -41q0 -32 -17 -55q39 -23 109 -23q75 0 134 40t59 115q0 43 -30.5 77t-73.5 57.5t-86 46.5t-73.5 57.5t-30.5 78.5q0 92 66.5 141.5t159.5 49.5zM205 -46q17 0 28 -11t11 -30q0 -33 -37 -78.5t-89 -70.5l-9 18
q57 45 69 90q-25 7 -25 31q0 20 15 35.5t37 15.5z" />
    <glyph glyph-name="scommaaccent" unicode="&#x219;" horiz-adv-x="363" 
d="M136 -11q-58 0 -94.5 23t-36.5 60q0 23 12 34.5t27 11.5q40 0 40 -44q0 -28 -16 -46q28 -13 71 -13q50 0 79.5 26.5t29.5 63.5q0 24 -19 45t-46 37t-54.5 33t-46.5 41.5t-19 53.5q0 61 45 97.5t112 36.5q50 0 86.5 -23t36.5 -62q0 -20 -12 -31.5t-27 -11.5
q-19 0 -30.5 13t-11.5 29q0 26 17 48q-23 10 -53 10q-38 0 -65.5 -21.5t-27.5 -60.5q0 -22 19 -42t45.5 -36t53.5 -33.5t46 -42.5t19 -55q0 -57 -51.5 -99t-128.5 -42zM149 -46q17 0 28 -11t11 -30q0 -33 -37 -78.5t-89 -70.5l-9 18q57 45 69 90q-25 7 -25 31q0 20 15 35.5
t37 15.5z" />
    <glyph glyph-name="uni021A" unicode="&#x21a;" horiz-adv-x="583" 
d="M102 677l12 6q88 -9 252 -9q159 0 258 9l9 -6l-14 -185l-8 -1q-15 -1 -19 16q-9 42 -14 60t-13.5 37.5t-21.5 25t-31.5 9.5t-49.5 4h-62l-98 -555q-4 -24 7 -36t26.5 -13.5t28 -7.5t10.5 -19l-2 -12h-240l2 12q2 12 15.5 18.5t28.5 8.5t29.5 14.5t18.5 36.5l98 553h-62
q-74 0 -101.5 -21.5t-76.5 -114.5q-11 -21 -26 -17l-8 2zM245 -46q17 0 28 -11t11 -30q0 -33 -37 -78.5t-89 -70.5l-9 18q57 45 69 90q-25 7 -25 31q0 20 15 35.5t37 15.5z" />
    <glyph glyph-name="uni021B" unicode="&#x21b;" horiz-adv-x="251" 
d="M40 67l65 338h-70l5 24q58 8 88 37t55 95h20l-25 -125h108l-6 -31h-108l-69 -356l101 66l13 -17q-39 -44 -83 -76.5t-62 -32.5q-26 0 -33 14t1 64zM78 -46q17 0 28 -11t11 -30q0 -33 -37 -78.5t-89 -70.5l-9 18q57 45 69 90q-25 7 -25 31q0 20 15 35.5t37 15.5z" />
    <glyph glyph-name="schwa" unicode="&#x259;" horiz-adv-x="414" 
d="M236 449q67 0 105 -40.5t38 -114.5q0 -53 -15 -104.5t-44 -97.5t-79 -74.5t-113 -28.5q-50 0 -79 24.5t-29 68.5q0 62 80.5 107t202.5 66q10 69 -17 108t-81 39q-65 0 -145 -71l-16 15q87 103 192 103zM299 221q-79 -8 -140.5 -48t-61.5 -94q0 -27 13.5 -41.5t35.5 -14.5
q47 0 92.5 55t60.5 143z" />
    <glyph glyph-name="primemod" unicode="&#x2b9;" horiz-adv-x="227" 
d="M60 411l154 252q13 22 35 22q13 0 22.5 -9t9.5 -22q0 -16 -12 -29l-187 -229z" />
    <glyph glyph-name="circumflex" unicode="&#x2c6;" horiz-adv-x="445" 
d="M394 498l-113 101l-149 -102l-14 21l124 117q36 35 52 35q14 0 38 -34l84 -119z" />
    <glyph glyph-name="caron" unicode="&#x2c7;" horiz-adv-x="445" 
d="M276 568l149 103l14 -21l-126 -117q-35 -34 -50 -34q-13 0 -38 35l-84 117l22 21z" />
    <glyph glyph-name="breve" unicode="&#x2d8;" horiz-adv-x="445" 
d="M405 652l22 -6q-64 -137 -167 -137q-57 0 -86 39.5t-20 111.5l24 7q8 -54 29 -78t59 -24q71 0 139 87z" />
    <glyph glyph-name="dotaccent" unicode="&#x2d9;" horiz-adv-x="445" 
d="M292 641q18 0 29 -12.5t11 -30.5q0 -25 -18.5 -43.5t-40.5 -18.5q-17 0 -28 12t-11 30q0 24 17.5 43.5t40.5 19.5z" />
    <glyph glyph-name="ring" unicode="&#x2da;" horiz-adv-x="445" 
d="M300 692q35 0 56.5 -22.5t21.5 -57.5q0 -47 -33 -81t-79 -34q-36 0 -58.5 22.5t-22.5 57.5q0 45 33.5 80t81.5 35zM295 666q-33 0 -56 -25.5t-23 -58.5q0 -25 14.5 -41.5t40.5 -16.5q31 0 54 23.5t23 56.5q0 27 -14 44.5t-39 17.5z" />
    <glyph glyph-name="ogonek" unicode="&#x2db;" horiz-adv-x="448" 
d="M334 40l7 -10q-40 -34 -64.5 -72.5t-24.5 -66.5q0 -46 72 -46q22 0 62 7l2 -24q-59 -27 -114 -27q-87 0 -87 63q0 37 35.5 86t111.5 90z" />
    <glyph glyph-name="tilde" unicode="&#x2dc;" horiz-adv-x="445" 
d="M417 632l13 -6q-14 -37 -39 -62t-57 -25q-21 0 -60.5 16.5t-58.5 16.5q-36 0 -66 -41l-16 8q14 34 39 62t58 28q19 0 60.5 -17.5t64.5 -17.5q32 0 62 38z" />
    <glyph glyph-name="hungarumlaut" unicode="&#x2dd;" horiz-adv-x="445" 
d="M138 509l-7 20q47 31 83.5 68t54.5 55.5t35 18.5q25 0 25 -26q0 -24 -51.5 -67t-139.5 -69zM267 509l-7 20q47 31 84 68t54.5 55.5t34.5 18.5q26 0 26 -27q0 -24 -52 -67t-140 -68z" />
    <glyph glyph-name="tonos" unicode="&#x384;" horiz-adv-x="445" 
d="M228 498l-11 18q38 32 69 74.5t49 64t37 21.5q24 0 24 -24q0 -27 -43 -71t-125 -83z" />
    <glyph glyph-name="dieresistonos" unicode="&#x385;" horiz-adv-x="494" 
d="M219 504l-11 18q37 32 68 74.5t49 64t37 21.5q25 0 25 -25q0 -27 -43.5 -70.5t-124.5 -82.5zM204 636q16 0 26 -11t10 -28q0 -21 -16.5 -37t-36.5 -16q-16 0 -26 10.5t-10 26.5q0 21 16.5 38t36.5 17zM432 636q16 0 26 -11t10 -28q0 -21 -16.5 -37t-36.5 -16
q-16 0 -26 10.5t-10 25.5q0 22 16 39t37 17z" />
    <glyph glyph-name="Alphatonos" unicode="&#x386;" horiz-adv-x="627" 
d="M164 215l-50 -97q-20 -37 -14.5 -55.5t20 -23t29 -10t12.5 -15.5l-2 -14h-199l2 13q2 11 13.5 16.5t26.5 9.5t36.5 23.5t39.5 52.5l300 564h26l111 -568q6 -33 20 -51.5t26.5 -21.5t21.5 -9.5t8 -19.5l-1 -9h-215l1 12q1 11 13.5 16t26.5 7.5t22.5 19t2.5 47.5l-21 113
h-256zM357 574h-4l-173 -329h233l-27 136q-24 127 -29 193zM52 498l-11 18q38 32 69 74.5t49 64t37 21.5q24 0 24 -24q0 -27 -43 -71t-125 -83z" />
    <glyph glyph-name="anoteleia" unicode="&#x387;" horiz-adv-x="189" 
d="M123 394q18 0 29.5 -12t11.5 -31q0 -25 -18.5 -43.5t-41.5 -18.5q-18 0 -28.5 12t-10.5 30q0 25 17.5 44t40.5 19z" />
    <glyph glyph-name="Epsilontonos" unicode="&#x388;" horiz-adv-x="586" 
d="M222 32h94q73 0 117 39t101 138q14 25 27 21l12 -3l-86 -224l-7 -7q-142 4 -485 4l2 15q2 11 14.5 16t27 7t29 17t19.5 45l84 474q5 29 -5 44t-25 17t-27 7t-11 16l2 16q329 0 473 8l3 -5l-13 -173l-9 -1q-17 -1 -21 16q-20 86 -41 104.5t-91 18.5h-149l-48 -272h104
q35 0 57 17.5t28.5 38t14.5 38t19 17.5h10l-46 -265h-7q-12 0 -16 19t-4 42t-14.5 42t-46.5 19h-105l-42 -241q-6 -33 7 -49t54 -16zM-105 498l-11 18q38 32 69 74.5t49 64t37 21.5q24 0 24 -24q0 -27 -43 -71t-125 -83z" />
    <glyph glyph-name="Etatonos" unicode="&#x389;" horiz-adv-x="696" 
d="M650 585l-88 -497q-4 -25 7 -37t27 -13t28.5 -6.5t10.5 -19.5l-2 -12h-235l2 12q2 12 14.5 18t26.5 8t28 15t18 37l45 248h-329l-45 -250q-4 -25 7 -37.5t27 -14t28.5 -6.5t10.5 -18l-2 -12h-239l2 12q2 12 15 17.5t28 7.5t30 15t19 38l87 492q4 24 -6 37t-25 15.5
t-26.5 8.5t-9.5 18l2 12h241l-2 -12q-2 -12 -16.5 -18t-31 -8t-32.5 -14.5t-20 -36.5l-37 -214h329l37 213q4 24 -6 37t-24.5 15t-26 8t-9.5 18l2 12h241l-2 -12q-2 -12 -16.5 -18t-31 -8t-32 -14t-19.5 -36zM-96 498l-11 18q38 32 69 74.5t49 64t37 21.5q24 0 24 -24
q0 -27 -43 -71t-125 -83z" />
    <glyph glyph-name="Iotatonos" unicode="&#x38a;" horiz-adv-x="330" 
d="M263 584l-87 -496q-4 -25 7 -37.5t27 -14t28.5 -6.5t10.5 -18l-2 -12h-242l2 12q2 12 15.5 17.5t29 7.5t30.5 15t19 38l87 492q4 24 -6.5 37t-25.5 15.5t-27 8.5t-10 18l2 12h244l-2 -12q-2 -12 -16.5 -18t-31 -8t-32.5 -14.5t-20 -36.5zM-83 498l-11 18q38 32 69 74.5
t49 64t37 21.5q24 0 24 -24q0 -27 -43 -71t-125 -83z" />
    <glyph glyph-name="Omicrontonos" unicode="&#x38c;" horiz-adv-x="687" 
d="M423 682q118 0 183.5 -75t65.5 -194q0 -170 -110 -297t-261 -127q-120 0 -183 72t-63 191q0 112 48.5 211t134 159t185.5 60zM417 650q-70 0 -126 -41.5t-88.5 -106.5t-49 -134.5t-16.5 -134.5q0 -95 41 -154t132 -59q70 0 125.5 40t88 102.5t49 132t16.5 137.5
q0 97 -40.5 157.5t-131.5 60.5zM-64 498l-11 18q38 32 69 74.5t49 64t37 21.5q24 0 24 -24q0 -27 -43 -71t-125 -83z" />
    <glyph glyph-name="Upsilontonos" unicode="&#x38e;" horiz-adv-x="540" 
d="M303 340h6l128 190q30 46 33 69q3 17 -5 27t-18.5 13t-19.5 8.5t-7 13.5l2 13h198l-2 -12q-2 -12 -13.5 -18t-27.5 -10.5t-43 -27t-53 -61.5l-163 -242l-38 -215q-4 -25 7 -37t27 -13.5t28.5 -7t10.5 -18.5l-2 -12h-242l2 12q2 12 15.5 18t29 7.5t30.5 14.5t19 38l37 208
l-90 265q-10 29 -26 47t-28.5 23t-20.5 12t-6 20l1 9h218l-2 -12q-2 -14 -30.5 -24t-31.5 -29q-2 -13 6 -37l45 -137q16 -48 26 -95zM-121 498l-11 18q38 32 69 74.5t49 64t37 21.5q24 0 24 -24q0 -27 -43 -71t-125 -83z" />
    <glyph glyph-name="Omegatonos" unicode="&#x38f;" horiz-adv-x="765" 
d="M504 75l-1 -5h50q59 0 82.5 15.5t70.5 88.5q12 19 23 17l11 -2l-70 -186l-9 -7q-103 4 -226 4l-5 5l14 60q95 56 149.5 157t54.5 208q0 94 -45 157t-144 63q-55 0 -103.5 -23t-81.5 -61t-57 -86t-35.5 -97.5t-11.5 -97.5q0 -148 99 -223l-8 -57l-5 -5q-130 0 -233 -4
l-6 7l-7 186l9 2q14 3 19 -17q23 -73 41.5 -88.5t77.5 -15.5h49l1 5q-62 28 -93.5 85t-31.5 131q0 95 45.5 183.5t135.5 148t202 59.5q91 0 152.5 -39t87 -97t25.5 -131q0 -108 -61.5 -201t-164.5 -139zM-49 498l-11 18q38 32 69 74.5t49 64t37 21.5q24 0 24 -24
q0 -27 -43 -71t-125 -83z" />
    <glyph glyph-name="iotadieresistonos" unicode="&#x390;" horiz-adv-x="266" 
d="M103 -11q17 0 53.5 27.5t75.5 68.5l-13 17l-85 -53l61 303q7 33 7 52q0 47 -44 47q-41 0 -128 -102l15 -17l89 62l-63 -327q-5 -28 -5 -42q0 -21 9 -28.5t28 -7.5zM88 504l-11 18q37 32 68 74.5t49 64t37 21.5q25 0 25 -25q0 -27 -43.5 -70.5t-124.5 -82.5zM73 636
q16 0 26 -11t10 -28q0 -21 -16.5 -37t-36.5 -16q-16 0 -26 10.5t-10 26.5q0 21 16.5 38t36.5 17zM301 636q16 0 26 -11t10 -28q0 -21 -16.5 -37t-36.5 -16q-16 0 -26 10.5t-10 25.5q0 22 16 39t37 17z" />
    <glyph glyph-name="Alpha" unicode="&#x391;" horiz-adv-x="627" 
d="M164 215l-50 -97q-20 -37 -14.5 -55.5t20 -23t29 -10t12.5 -15.5l-2 -14h-199l2 13q2 11 13.5 16.5t26.5 9.5t36.5 23.5t39.5 52.5l300 564h26l111 -568q6 -33 20 -51.5t26.5 -21.5t21.5 -9.5t8 -19.5l-1 -9h-215l1 12q1 11 13.5 16t26.5 7.5t22.5 19t2.5 47.5l-21 113
h-256zM357 574h-4l-173 -329h233l-27 136q-24 127 -29 193z" />
    <glyph glyph-name="Beta" unicode="&#x392;" horiz-adv-x="586" 
d="M255 642l-46 -258h89q18 0 38.5 2.5t48.5 12.5t49 26t36.5 45.5t15.5 68.5q0 54 -44 78.5t-100 24.5h-87zM284 0h-292l2 15q1 10 13.5 15t27.5 7t29.5 17.5t19.5 45.5l84 474q5 28 -5 43t-25.5 17.5t-27 8t-9.5 16.5l3 15h261q96 0 148.5 -41t52.5 -97q0 -74 -60 -117
t-127 -46v-4q80 -4 124 -51t44 -111q0 -74 -71 -140.5t-192 -66.5zM204 353l-40 -226q-5 -32 -5.5 -53t15 -31.5t52.5 -10.5h24q52 0 98.5 18t81 62.5t34.5 109.5q0 40 -17 68t-44 40.5t-51 17.5t-49 5h-99z" />
    <glyph glyph-name="Gamma" unicode="&#x393;" horiz-adv-x="541" 
d="M260 642l-98 -554q-4 -25 7.5 -37.5t28 -14t30 -6.5t11.5 -18l-2 -12h-242l2 12q2 12 15 17.5t27.5 7.5t29 15t18.5 38l87 484q5 29 -5 44t-25 17t-27 7t-11 16l2 16q341 0 485 8l3 -5l-13 -173l-9 -1q-17 -1 -21 16q-20 86 -41 104.5t-91 18.5h-161z" />
    <glyph glyph-name="Delta" unicode="&#x394;" horiz-adv-x="617" 
d="M-5 0l3 19l378 660h23l159 -658l-3 -21h-560zM349 571l-286 -506h404l-83 347q-21 88 -31 159h-4z" />
    <glyph glyph-name="Epsilon" unicode="&#x395;" horiz-adv-x="586" 
d="M222 32h94q73 0 117 39t101 138q14 25 27 21l12 -3l-86 -224l-7 -7q-142 4 -485 4l2 15q2 11 14.5 16t27 7t29 17t19.5 45l84 474q5 29 -5 44t-25 17t-27 7t-11 16l2 16q329 0 473 8l3 -5l-13 -173l-9 -1q-17 -1 -21 16q-20 86 -41 104.5t-91 18.5h-149l-48 -272h104
q35 0 57 17.5t28.5 38t14.5 38t19 17.5h10l-46 -265h-7q-12 0 -16 19t-4 42t-14.5 42t-46.5 19h-105l-42 -241q-6 -33 7 -49t54 -16z" />
    <glyph glyph-name="Zeta" unicode="&#x396;" horiz-adv-x="573" 
d="M503 642h-197q-71 0 -103 -23t-75 -112q-10 -21 -24 -17l-9 2l53 186l10 5q69 -9 189 -9h256l-5 -28l-501 -614h231q36 0 63.5 11t52.5 38.5t44 56.5t49 83q11 19 25 17l10 -2l-89 -233l-8 -7q-100 4 -260 4h-225l4 27z" />
    <glyph glyph-name="Eta" unicode="&#x397;" horiz-adv-x="696" 
d="M650 585l-88 -497q-4 -25 7 -37t27 -13t28.5 -6.5t10.5 -19.5l-2 -12h-235l2 12q2 12 14.5 18t26.5 8t28 15t18 37l45 248h-329l-45 -250q-4 -25 7 -37.5t27 -14t28.5 -6.5t10.5 -18l-2 -12h-239l2 12q2 12 15 17.5t28 7.5t30 15t19 38l87 492q4 24 -6 37t-25 15.5
t-26.5 8.5t-9.5 18l2 12h241l-2 -12q-2 -12 -16.5 -18t-31 -8t-32.5 -14.5t-20 -36.5l-37 -214h329l37 213q4 24 -6 37t-24.5 15t-26 8t-9.5 18l2 12h241l-2 -12q-2 -12 -16.5 -18t-31 -8t-32 -14t-19.5 -36z" />
    <glyph glyph-name="Theta" unicode="&#x398;" horiz-adv-x="726" 
d="M442 683q127 0 198 -79.5t71 -205.5q0 -163 -116.5 -285.5t-274.5 -122.5q-126 0 -195.5 77.5t-69.5 199.5q0 171 113.5 293.5t273.5 122.5zM436 651q-58 0 -108.5 -26.5t-84 -69t-58 -96.5t-35.5 -108t-11 -104q0 -100 45.5 -163t144.5 -63q72 0 130.5 38t94 98.5
t54 129t18.5 134.5q0 101 -45.5 165.5t-144.5 64.5zM423 333h-87q-36 0 -57 -16t-27 -34.5t-13 -34.5t-18 -16h-10l41 228h8q11 0 13 -15t1.5 -33.5t16.5 -33.5t54 -15h81q35 0 56.5 15t28 33.5t14.5 33.5t20 15h9l-41 -228h-8q-11 0 -14.5 16t-4 34.5t-15.5 34.5t-48 16z
" />
    <glyph glyph-name="Iota" unicode="&#x399;" horiz-adv-x="330" 
d="M263 584l-87 -496q-4 -25 7 -37.5t27 -14t28.5 -6.5t10.5 -18l-2 -12h-242l2 12q2 12 15.5 17.5t29 7.5t30.5 15t19 38l87 492q4 24 -6.5 37t-25.5 15.5t-27 8.5t-10 18l2 12h244l-2 -12q-2 -12 -16.5 -18t-31 -8t-32.5 -14.5t-20 -36.5z" />
    <glyph glyph-name="Kappa" unicode="&#x39a;" horiz-adv-x="628" 
d="M245 584l-38 -213h111l196 210q23 23 19.5 35t-18 14.5t-28.5 10t-12 20.5l2 13h221l-1 -9q-3 -15 -16.5 -22t-32.5 -10t-53 -23.5t-68 -56.5l-173 -182l136 -265q15 -30 36.5 -47t37.5 -20.5t27 -9t10 -16.5l-1 -13h-241l1 13q2 16 24 22.5t32 13t-6 46.5l-125 241h-84
l-43 -248q-4 -25 7 -37.5t27 -14t28.5 -6.5t10.5 -18l-2 -12h-234l2 12q2 14 14.5 19t26 6t27 13.5t18.5 39.5l87 492q4 24 -6 37t-24.5 15.5t-26 8.5t-9.5 18l2 12h236l-2 -12q-2 -14 -16 -20.5t-29.5 -7.5t-30.5 -13t-19 -36z" />
    <glyph glyph-name="Lambda" unicode="&#x39b;" horiz-adv-x="627" 
d="M441 102l-55 279q-24 127 -29 193h-4l-239 -456q-15 -29 -15.5 -47t10 -25t22.5 -10.5t21.5 -8t8.5 -13.5l-2 -14h-199l2 13q2 11 13.5 16.5t26.5 9.5t36.5 23.5t39.5 52.5l300 564h26l111 -568q7 -35 21 -54.5t26.5 -22.5t21 -8.5t7.5 -16.5l-1 -9h-215l1 12q1 11 14 16
t26.5 7.5t22 19t2.5 47.5z" />
    <glyph glyph-name="Mu" unicode="&#x39c;" horiz-adv-x="837" 
d="M708 674h169l-3 -18q-2 -10 -16.5 -15t-32 -8.5t-34 -23t-20.5 -55.5l-56 -462q-3 -27 8 -40.5t26.5 -14.5t27 -6.5t9.5 -18.5l-2 -12h-234l2 12q2 13 16 19t29 8.5t29 15t17 37.5l62 504h-4l-310 -604h-34l-95 477q-22 107 -25 133h-4l-113 -509q-5 -25 6 -38t28 -15
t30 -8t11 -19l-2 -13h-203l2 13q2 12 15.5 19t29 9.5t31.5 16t21 37.5l102 457q8 35 -1.5 54.5t-25 23.5t-28 10t-10.5 17l3 17h174l88 -462q14 -69 15 -116h6z" />
    <glyph glyph-name="Nu" unicode="&#x39d;" horiz-adv-x="696" 
d="M265 674l238 -459q17 -32 34 -84h4l79 449q4 24 -8.5 36.5t-29.5 15t-30.5 9t-11.5 19.5l2 13h209l-2 -13q-2 -14 -16 -20.5t-30.5 -8t-32 -15t-19.5 -38.5l-103 -585l-28 -7l-275 530q-18 35 -33 78h-5l-88 -500q-4 -26 8 -39t29.5 -15.5t31 -8t11.5 -18.5l-2 -13h-207
l2 13q2 12 16 19t30 10t31.5 16.5t19.5 37.5l82 463q6 32 -4 49.5t-25.5 21t-27.5 9.5t-10 18l3 17h158z" />
    <glyph glyph-name="Xi" unicode="&#x39e;" horiz-adv-x="603" 
d="M283 371h82q37 0 59.5 16t29.5 34.5t15 34.5t19 16h10l-42 -238h-10q-11 0 -13.5 16.5t-2.5 36t-16.5 36t-51.5 16.5h-88q-36 0 -58 -16.5t-28.5 -36t-14 -36t-18.5 -16.5h-11l42 238h9q9 0 12 -10.5t3.5 -25t4.5 -29.5t21 -25.5t47 -10.5zM184 64h184q55 0 81.5 8.5
t46.5 30t58 79.5q13 20 25 17l9 -2l-76 -194l-8 -7q-146 4 -233 4q-130 0 -247 -4l-6 7l-8 194l9 1q14 1 19 -16q16 -57 29.5 -79t37.5 -30.5t79 -8.5zM368 674q166 0 241 9l9 -5l-19 -172l-8 -1q-16 -2 -20 16q-10 64 -30.5 79t-97.5 15h-164q-77 0 -102 -15t-59 -79
q-11 -20 -26 -17l-7 2l41 172l10 5q73 -9 232 -9z" />
    <glyph glyph-name="Omicron" unicode="&#x39f;" horiz-adv-x="687" 
d="M423 682q118 0 183.5 -75t65.5 -194q0 -170 -110 -297t-261 -127q-120 0 -183 72t-63 191q0 112 48.5 211t134 159t185.5 60zM417 650q-70 0 -126 -41.5t-88.5 -106.5t-49 -134.5t-16.5 -134.5q0 -95 41 -154t132 -59q70 0 125.5 40t88 102.5t49 132t16.5 137.5
q0 97 -40.5 157.5t-131.5 60.5z" />
    <glyph glyph-name="Pi" unicode="&#x3a0;" horiz-adv-x="683" 
d="M494 90l97 551h-336l-97 -553q-4 -25 7 -37.5t27 -14t28.5 -6.5t10.5 -18l-2 -12h-239l2 12q2 12 15 17.5t28 7.5t30 15t19 38l87 492q4 25 -7.5 38t-28.5 15t-30 8t-11 18l2 12h659l-2 -12q-2 -12 -16 -18t-30 -8t-31 -14t-19 -36l-88 -497q-4 -25 7 -37t27 -13
t28.5 -6.5t10.5 -19.5l-2 -12h-235l2 12q2 12 14.5 18t26.5 8t28 15t18 37z" />
    <glyph glyph-name="Rho" unicode="&#x3a1;" horiz-adv-x="535" 
d="M260 643l-57 -324q33 -9 79 -9q81 0 140.5 53t59.5 143q0 73 -48.5 105t-115.5 32h-58zM107 674h236q103 0 162.5 -46t59.5 -123q0 -58 -27 -103.5t-70 -70t-89.5 -37t-93.5 -12.5q-43 0 -88 8l-36 -202q-4 -25 7.5 -37.5t28 -14t30 -6.5t11.5 -18l-2 -12h-246l2 12
q2 12 15.5 17.5t29 7t30.5 14.5t19 39l86 484q5 28 -5 43t-25.5 18t-27.5 8.5t-10 15.5z" />
    <glyph glyph-name="Sigma" unicode="&#x3a3;" horiz-adv-x="603" 
d="M220 642l141 -272l-276 -298h279q39 0 59 3t43.5 17t43.5 42t48 79q15 28 31 24l9 -2l-91 -232l-9 -7q-104 4 -272 4h-231l4 27l278 301l-164 314l5 32h265q126 0 201 9l9 -5l-12 -186l-8 -1q-17 -2 -21 16q-20 94 -39.5 114.5t-96.5 20.5h-196z" />
    <glyph glyph-name="Tau" unicode="&#x3a4;" horiz-adv-x="583" 
d="M102 677l12 6q88 -9 252 -9q159 0 258 9l9 -6l-14 -185l-8 -1q-15 -1 -19 16q-9 42 -14 60t-13.5 37.5t-21.5 25t-31.5 9.5t-49.5 4h-62l-98 -555q-4 -24 7 -36t26.5 -13.5t28 -7.5t10.5 -19l-2 -12h-240l2 12q2 12 15.5 18.5t28.5 8.5t29.5 14.5t18.5 36.5l98 553h-62
q-74 0 -101.5 -21.5t-76.5 -114.5q-11 -21 -26 -17l-8 2z" />
    <glyph glyph-name="Upsilon" unicode="&#x3a5;" horiz-adv-x="540" 
d="M303 340h6l128 190q30 46 33 69q3 17 -5 27t-18.5 13t-19.5 8.5t-7 13.5l2 13h198l-2 -12q-2 -12 -13.5 -18t-27.5 -10.5t-43 -27t-53 -61.5l-163 -242l-38 -215q-4 -25 7 -37t27 -13.5t28.5 -7t10.5 -18.5l-2 -12h-242l2 12q2 12 15.5 18t29 7.5t30.5 14.5t19 38l37 208
l-90 265q-10 29 -26 47t-28.5 23t-20.5 12t-6 20l1 9h218l-2 -12q-2 -14 -30.5 -24t-31.5 -29q-2 -13 6 -37l45 -137q16 -48 26 -95z" />
    <glyph glyph-name="Phi" unicode="&#x3a6;" horiz-adv-x="741" 
d="M380 99l-2 -11q-4 -25 7 -37.5t27 -14t28.5 -6.5t10.5 -18l-2 -12h-242l2 12q2 12 15.5 17.5t29 7.5t30.5 15t19 38l1 8q-123 11 -188.5 65t-65.5 140q0 111 100 189t240 90q5 24 -6 36.5t-26 15.5t-27 9t-10 18l2 12h244l-2 -12q-2 -12 -17 -18t-31.5 -8t-32 -15
t-19.5 -38q123 -6 194.5 -62t71.5 -149q0 -115 -100 -189.5t-251 -82.5zM460 553l-75 -424q113 7 187 80.5t74 172.5q0 73 -49.5 118.5t-136.5 52.5zM135 302q0 -73 46.5 -119.5t128.5 -53.5l74 422q-101 -7 -175 -81.5t-74 -167.5z" />
    <glyph glyph-name="Chi" unicode="&#x3a7;" horiz-adv-x="586" 
d="M360 132l-69 174l-128 -162q-32 -40 -42.5 -64.5t-3.5 -33.5t19 -12.5t22.5 -8.5t9.5 -16l-1 -9h-202l1 9q2 13 11.5 18t25.5 9t52 34.5t81 85.5l144 176l-87 206q-17 41 -38.5 65t-36 29.5t-23.5 12.5t-6 19l2 10h222l-2 -12q-2 -13 -16.5 -19t-25 -9t-13.5 -25t17 -67
l60 -147l105 135q30 38 39 61t1.5 31.5t-19 12.5t-21.5 10t-8 18l2 11h214l-2 -10q-3 -15 -15 -21.5t-29.5 -9.5t-52.5 -29.5t-74 -75.5l-129 -161l88 -212q17 -42 37.5 -68.5t36 -36t29 -14.5t19.5 -9.5t4 -15.5l-2 -11h-247l1 11q1 12 16 18.5t28.5 11.5t18.5 26.5
t-13 64.5z" />
    <glyph glyph-name="Psi" unicode="&#x3a8;" horiz-adv-x="773" 
d="M485 584l-62 -353q55 5 94.5 26t63.5 55.5t37.5 72t22.5 88.5l33 188l9 13h135l-2 -12q-2 -11 -13 -17.5t-24 -10t-25.5 -16t-16.5 -35.5l-19 -112q-22 -129 -95 -196t-205 -75l-20 -112q-4 -25 7 -37t27 -13.5t28.5 -7t10.5 -18.5l-2 -12h-242l2 12q2 12 15.5 17.5
t28.5 7.5t30 15t20 38l20 110q-120 9 -174.5 77t-34.5 185l23 127q4 22 -4 33t-20.5 12.5t-21.5 7t-7 16.5l2 12l137 10l6 -12l-33 -186q-42 -231 132 -251l62 351q4 24 -6.5 37t-25.5 15.5t-27 8.5t-10 18l2 12h244l-2 -12q-2 -12 -16.5 -18t-31 -8t-32.5 -14.5t-20 -36.5z
" />
    <glyph glyph-name="Omega" unicode="&#x3a9;" horiz-adv-x="765" 
d="M504 75l-1 -5h50q59 0 82.5 15.5t70.5 88.5q12 19 23 17l11 -2l-70 -186l-9 -7q-103 4 -226 4l-5 5l14 60q95 56 149.5 157t54.5 208q0 94 -45 157t-144 63q-55 0 -103.5 -23t-81.5 -61t-57 -86t-35.5 -97.5t-11.5 -97.5q0 -148 99 -223l-8 -57l-5 -5q-130 0 -233 -4
l-6 7l-7 186l9 2q14 3 19 -17q23 -73 41.5 -88.5t77.5 -15.5h49l1 5q-62 28 -93.5 85t-31.5 131q0 95 45.5 183.5t135.5 148t202 59.5q91 0 152.5 -39t87 -97t25.5 -131q0 -108 -61.5 -201t-164.5 -139z" />
    <glyph glyph-name="Iotadieresis" unicode="&#x3aa;" horiz-adv-x="330" 
d="M263 584l-87 -496q-4 -25 7 -37.5t27 -14t28.5 -6.5t10.5 -18l-2 -12h-242l2 12q2 12 15.5 17.5t29 7.5t30.5 15t19 38l87 492q4 24 -6.5 37t-25.5 15.5t-27 8.5t-10 18l2 12h244l-2 -12q-2 -12 -16.5 -18t-31 -8t-32.5 -14.5t-20 -36.5zM187 826q16 0 26 -11t10 -28
q0 -21 -16 -37t-36 -16q-16 0 -26.5 10.5t-10.5 26.5q0 22 16.5 38.5t36.5 16.5zM352 826q16 0 26 -11t10 -28q0 -21 -16 -37t-36 -16q-16 0 -26.5 10.5t-10.5 26.5q0 21 16 38t37 17z" />
    <glyph glyph-name="Upsilondieresis" unicode="&#x3ab;" horiz-adv-x="540" 
d="M303 340h6l128 190q30 46 33 69q3 17 -5 27t-18.5 13t-19.5 8.5t-7 13.5l2 13h198l-2 -12q-2 -12 -13.5 -18t-27.5 -10.5t-43 -27t-53 -61.5l-163 -242l-38 -215q-4 -25 7 -37t27 -13.5t28.5 -7t10.5 -18.5l-2 -12h-242l2 12q2 12 15.5 18t29 7.5t30.5 14.5t19 38l37 208
l-90 265q-10 29 -26 47t-28.5 23t-20.5 12t-6 20l1 9h218l-2 -12q-2 -14 -30.5 -24t-31.5 -29q-2 -13 6 -37l45 -137q16 -48 26 -95zM304 824q16 0 26 -11t10 -28q0 -21 -16 -37t-36 -16q-16 0 -26.5 10.5t-10.5 26.5q0 22 16.5 38.5t36.5 16.5zM469 824q16 0 26 -11t10 -28
q0 -21 -16 -37t-36 -16q-16 0 -26.5 10.5t-10.5 26.5q0 21 16 38t37 17z" />
    <glyph glyph-name="alphatonos" unicode="&#x3ac;" horiz-adv-x="515" 
d="M176 34q-66 0 -66 103q0 115 49.5 196t121.5 81q50 0 96 -43l-9 -47q-22 -114 -82 -202t-110 -88zM152 -11q104 0 181 164h4q-20 -70 -20 -121q0 -42 42 -42q37 0 126 94l-13 17l-86 -53q33 237 81 399h-20l-52 -47q-53 49 -125 49q-55 0 -101 -28.5t-74.5 -74t-44 -98.5
t-15.5 -105q0 -154 117 -154zM249 498l-11 18q38 32 69 74.5t49 64t37 21.5q24 0 24 -24q0 -27 -43 -71t-125 -83z" />
    <glyph glyph-name="epsilontonos" unicode="&#x3ad;" horiz-adv-x="389" 
d="M30 89q0 16 8 37t25.5 45t54 41.5t86.5 19.5v4q-68 3 -96 29t-28 60q0 44 44.5 83.5t133.5 39.5q50 0 88 -21.5t38 -60.5q0 -20 -10.5 -32.5t-28.5 -12.5q-20 0 -30.5 12.5t-10.5 30.5q0 24 15 42q-27 12 -57 12q-46 0 -77.5 -24.5t-31.5 -66.5q0 -77 129 -77l4 -4
l-7 -24q-74 -2 -125 -36.5t-51 -97.5q0 -65 76 -65q88 0 170 52l12 -18q-88 -70 -200 -70q-60 0 -95.5 24.5t-35.5 77.5zM213 498l-11 18q38 32 69 74.5t49 64t37 21.5q24 0 24 -24q0 -27 -43 -71t-125 -83z" />
    <glyph glyph-name="etatonos" unicode="&#x3ae;" horiz-adv-x="488" 
d="M202 404q0 47 -44 47q-41 0 -128 -102l15 -17l89 62l-75 -394h67l10 53q15 77 50.5 157t77 132t72.5 52q39 0 39 -49q0 -27 -11 -73l-81 -376q-4 -16 -4 -30q0 -35 40 -35q17 0 53.5 27.5t75.5 68.5l-13 17l-87 -53l91 426q7 31 7 59q0 73 -73 73q-18 0 -40.5 -10.5
t-51 -34.5t-59 -72t-55.5 -113h-4q39 126 39 185zM236 498l-11 18q38 32 69 74.5t49 64t37 21.5q24 0 24 -24q0 -27 -43 -71t-125 -83z" />
    <glyph glyph-name="iotatonos" unicode="&#x3af;" horiz-adv-x="266" 
d="M103 -11q17 0 53.5 27.5t75.5 68.5l-13 17l-85 -53l61 303q7 33 7 52q0 47 -44 47q-41 0 -128 -102l15 -17l89 62l-63 -327q-5 -28 -5 -42q0 -21 9 -28.5t28 -7.5zM101 498l-11 18q38 32 69 74.5t49 64t37 21.5q24 0 24 -24q0 -27 -43 -71t-125 -83z" />
    <glyph glyph-name="upsilondieresistonos" unicode="&#x3b0;" horiz-adv-x="494" 
d="M134 394l-44 -214q-8 -42 -8 -68q0 -123 124 -123q105 0 179 95.5t74 211.5q0 58 -27 102t-85 54l-12 -25q54 -48 54 -129q0 -59 -20.5 -122t-61.5 -110t-91 -47q-34 0 -52 19.5t-18.5 47t4.5 57.5l46 218q8 40 8 52q0 38 -43 38q-21 0 -57 -29t-74 -73l15 -17zM208 504
l-11 18q37 32 68 74.5t49 64t37 21.5q25 0 25 -25q0 -27 -43.5 -70.5t-124.5 -82.5zM193 636q16 0 26 -11t10 -28q0 -21 -16.5 -37t-36.5 -16q-16 0 -26 10.5t-10 26.5q0 21 16.5 38t36.5 17zM421 636q16 0 26 -11t10 -28q0 -21 -16.5 -37t-36.5 -16q-16 0 -26 10.5
t-10 25.5q0 22 16 39t37 17z" />
    <glyph glyph-name="alpha" unicode="&#x3b1;" horiz-adv-x="515" 
d="M176 34q50 0 110 88t82 202l9 47q-46 43 -96 43q-72 0 -121.5 -81t-49.5 -196q0 -103 66 -103zM152 -11q-117 0 -117 154q0 52 15.5 105t44 98.5t74.5 74t101 28.5q72 0 125 -49l52 47h20q-48 -162 -81 -399l86 53l13 -17q-89 -94 -126 -94q-42 0 -42 42q0 51 20 121h-4
q-77 -164 -181 -164z" />
    <glyph glyph-name="beta" unicode="&#x3b2;" horiz-adv-x="469" 
d="M78 22l-5 -4q-10 -63 -20.5 -120.5t-13.5 -77.5q-28 -18 -67 -25l-7 7l141 705q18 90 82 158t140 68q70 0 100.5 -36t30.5 -94q0 -76 -53 -131t-136 -62l-1 -4q81 -1 120.5 -45.5t39.5 -111.5q0 -111 -69.5 -185.5t-165.5 -74.5q-66 0 -116 33zM187 405l7 9q88 10 141 65
t53 131q0 88 -77 88q-49 0 -84 -37t-48 -107q-35 -180 -97 -500q50 -34 101 -34q75 0 124.5 68t49.5 165q0 64 -42.5 99t-125.5 36z" />
    <glyph glyph-name="gamma" unicode="&#x3b3;" horiz-adv-x="426" 
d="M192 59h4q44 57 68 90.5t55.5 90.5t51.5 114q-18 3 -34 19.5t-16 42.5q0 14 9.5 28.5t32.5 14.5q19 0 33.5 -16t14.5 -41q0 -75 -67.5 -185t-158.5 -207q-31 -168 -47 -216q-25 -16 -69 -24l-7 7q70 236 70 415q0 131 -26 202l-82 -78l-19 14q70 119 115 119
q27 0 40.5 -15t22.5 -43q17 -53 17 -167q0 -77 -8 -165z" />
    <glyph glyph-name="delta" unicode="&#x3b4;" horiz-adv-x="472" 
d="M201 19q65 0 115.5 79t50.5 174q0 111 -102 158q-64 -17 -113 -100t-49 -192q0 -119 98 -119zM329 734q54 0 93 -25.5t39 -63.5q0 -22 -12 -38.5t-30 -16.5q-20 0 -30.5 13t-10.5 32q0 34 27 51q-36 19 -77 19q-46 0 -81.5 -29t-35.5 -83q0 -29 23.5 -54t56.5 -46.5
t66.5 -48t57 -72t23.5 -105.5q0 -106 -72 -192t-174 -86q-79 0 -119.5 47t-40.5 120q0 103 56 183.5t144 106.5l3 4q-90 51 -90 126q0 68 52.5 113t131.5 45z" />
    <glyph glyph-name="epsilon" unicode="&#x3b5;" horiz-adv-x="389" 
d="M30 89q0 16 8 37t25.5 45t54 41.5t86.5 19.5v4q-68 3 -96 29t-28 60q0 44 44.5 83.5t133.5 39.5q50 0 88 -21.5t38 -60.5q0 -20 -10.5 -32.5t-28.5 -12.5q-20 0 -30.5 12.5t-10.5 30.5q0 24 15 42q-27 12 -57 12q-46 0 -77.5 -24.5t-31.5 -66.5q0 -77 129 -77l4 -4
l-7 -24q-74 -2 -125 -36.5t-51 -97.5q0 -65 76 -65q88 0 170 52l12 -18q-88 -70 -200 -70q-60 0 -95.5 24.5t-35.5 77.5z" />
    <glyph glyph-name="zeta" unicode="&#x3b6;" horiz-adv-x="344" 
d="M520 701l4 -4l-7 -24q-413 -335 -413 -491q0 -33 23 -58t56 -40.5t66.5 -29t56.5 -31t23 -39.5q0 -64 -149 -134l-12 21q85 62 85 94q0 15 -35 30.5t-76.5 30t-76.5 51.5t-35 91q0 51 43.5 120.5t111.5 137.5t136 125.5t130 100.5l-1 3q-23 -15 -83 -28t-107 -13
q-79 0 -79 49q0 30 26 65l16 1q8 -28 41 -46.5t90 -18.5q61 0 166 37z" />
    <glyph glyph-name="eta" unicode="&#x3b7;" horiz-adv-x="488" 
d="M202 404q0 -59 -39 -185h4q25 65 55.5 113t59 72t51 34.5t40.5 10.5q73 0 73 -73q0 -28 -7 -59l-91 -426l87 53l13 -17q-39 -41 -75.5 -68.5t-53.5 -27.5q-40 0 -40 35q0 14 4 30l81 376q11 46 11 73q0 49 -39 49q-31 0 -72.5 -52t-77 -132t-50.5 -157l-10 -53h-67
l75 394l-89 -62l-15 17q87 102 128 102q44 0 44 -47z" />
    <glyph glyph-name="theta" unicode="&#x3b8;" horiz-adv-x="474" 
d="M127 389h260q14 93 14 154q0 157 -89 157q-35 0 -66 -28t-53.5 -75.5t-38.5 -98.5t-27 -109zM321 731q75 0 111.5 -57.5t36.5 -159.5q0 -133 -38.5 -254.5t-105 -196t-142.5 -74.5q-74 0 -111 57.5t-37 160.5q0 133 40 255t106.5 195.5t139.5 73.5zM382 360h-260
q-21 -114 -21 -183q0 -157 89 -157q125 0 192 340z" />
    <glyph glyph-name="iota" unicode="&#x3b9;" horiz-adv-x="266" 
d="M103 -11q-19 0 -28 7.5t-9 28.5q0 14 5 42l63 327l-89 -62l-15 17q87 102 128 102q44 0 44 -47q0 -19 -7 -52l-61 -303l85 53l13 -17q-39 -41 -75.5 -68.5t-53.5 -27.5z" />
    <glyph glyph-name="kappa" unicode="&#x3ba;" horiz-adv-x="469" 
d="M325 -11q-22 0 -44.5 27.5t-39.5 69t-28 79t-18 69.5q-40 -89 -62 -200l-7 -34h-67l75 394l-89 -62l-15 17q87 102 128 102q44 0 44 -47q0 -46 -52 -214h4q16 50 39 94t54 82.5t72 61t86 22.5q27 0 47.5 -12t20.5 -37q0 -20 -13 -31.5t-30 -11.5q-26 0 -39.5 17t-13.5 42
q-79 -16 -140 -106q43 -175 107 -273l89 63l13 -16q-79 -96 -121 -96z" />
    <glyph glyph-name="lambda" unicode="&#x3bb;" horiz-adv-x="449" 
d="M353 58l69 58l17 -13q-75 -114 -112 -114q-19 0 -28 15t-12 55l-29 349h-4l-205 -411q-25 -5 -67 -9l-7 6l263 447h18l-22 236l-89 -63l-16 16q76 100 126 100q45 0 49 -59z" />
    <glyph glyph-name="nu" unicode="&#x3bd;" horiz-adv-x="427" 
d="M122 449q21 0 33 -12t14.5 -23t4.5 -31q18 -197 21 -316h4q50 55 100.5 136.5t72.5 150.5q-23 4 -36.5 22.5t-13.5 38.5q0 18 10.5 31t29.5 13q22 0 36 -16.5t14 -43.5q0 -77 -79 -200.5t-168 -207.5h-32q-3 213 -29 403l-75 -83l-19 13q69 125 112 125z" />
    <glyph glyph-name="xi" unicode="&#x3be;" horiz-adv-x="361" 
d="M328 733q54 0 91 -22.5t37 -59.5q0 -19 -11 -32.5t-32 -13.5q-18 0 -27.5 12.5t-9.5 31.5q0 23 14 42q-24 12 -54 12q-24 0 -48.5 -7.5t-48.5 -23.5t-39.5 -46.5t-15.5 -71.5q0 -59 50 -87.5t138 -28.5l4 -6l-10 -23q-105 -1 -182 -61.5t-77 -140.5q0 -38 24 -68
t58.5 -48.5t69 -34.5t58.5 -34t24 -38q0 -65 -148 -134l-11 19q86 62 86 93q0 13 -24 26.5t-58.5 28.5t-68.5 34.5t-58 54.5t-24 80q0 78 58 143.5t150 82.5l1 4q-66 4 -99.5 41t-33.5 89q0 83 66 135t151 52z" />
    <glyph glyph-name="omicron" unicode="&#x3bf;" horiz-adv-x="472" 
d="M274 449q77 0 120 -48t43 -125q0 -113 -76 -200t-177 -87q-149 0 -149 174q0 115 69.5 200.5t169.5 85.5zM268 418q-50 0 -88 -46.5t-55 -108t-17 -121.5q0 -123 84 -123q54 0 95.5 49t59 109.5t17.5 114.5q0 126 -96 126z" />
    <glyph glyph-name="pi" unicode="&#x3c0;" horiz-adv-x="489" 
d="M480 391l-57 1l-68 -343l85 53l13 -17q-39 -41 -75.5 -68.5t-53.5 -27.5q-26 0 -33 14t1 64l64 325l-181 6q-10 -57 -38 -206t-33 -178q-28 -18 -67 -25l-7 7l79 401l-75 3l-5 29l10 6l460 4l5 -9q-6 -16 -24 -39z" />
    <glyph glyph-name="rho" unicode="&#x3c1;" horiz-adv-x="472" 
d="M268 418q-54 0 -97 -43t-57 -115l-39 -202q38 -36 103 -36q77 0 131.5 72t54.5 195q0 129 -96 129zM69 23l-5 -1q-3 -19 -12 -86.5t-20 -125.5q-29 -16 -68 -23l-3 6l86 435q19 96 80.5 159t152.5 63q77 0 117 -44.5t40 -126.5q0 -51 -16 -100.5t-46 -93t-80.5 -70
t-112.5 -26.5q-70 0 -113 34z" />
    <glyph glyph-name="sigma1" unicode="&#x3c2;" horiz-adv-x="403" 
d="M35 197q0 114 77 182.5t168 68.5q56 0 94 -22t38 -60q0 -20 -11.5 -34.5t-32.5 -14.5q-20 0 -31 13.5t-11 33.5q0 22 12 42q-18 10 -52 10q-80 0 -130.5 -55t-50.5 -143q0 -40 20.5 -71t50.5 -50t59.5 -36t50 -36t20.5 -42q0 -65 -144 -133l-12 20q85 65 85 95
q0 15 -31.5 34.5t-68.5 39.5t-68.5 62t-31.5 96z" />
    <glyph glyph-name="sigma" unicode="&#x3c3;" horiz-adv-x="488" 
d="M389 392l-2 -3q53 -41 53 -126q0 -65 -29.5 -127t-88 -104.5t-131.5 -42.5q-77 0 -116.5 48t-39.5 123q0 127 68 201.5t167 74.5t227 4l6 -9q-7 -21 -22 -45zM266 406q-41 0 -73 -25.5t-50 -67t-27.5 -86.5t-9.5 -90q0 -119 93 -119q49 0 89.5 42.5t61 101.5t20.5 117
q0 127 -104 127z" />
    <glyph glyph-name="tau" unicode="&#x3c4;" horiz-adv-x="311" 
d="M74 67l62 331l-107 4l-4 27l9 6l296 4l6 -9q-8 -19 -25 -38l-108 4l-66 -347l101 66l13 -17q-39 -44 -83 -76.5t-62 -32.5q-26 0 -33 14t1 64z" />
    <glyph glyph-name="upsilon" unicode="&#x3c5;" horiz-adv-x="494" 
d="M90 180l44 214l-89 -62l-15 17q38 44 74 73t57 29q43 0 43 -38q0 -12 -8 -52l-46 -218q-5 -30 -4.5 -57.5t18.5 -47t52 -19.5q50 0 91 47t61.5 110t20.5 122q0 81 -54 129l12 25q58 -10 85 -54t27 -102q0 -116 -74 -211.5t-179 -95.5q-124 0 -124 123q0 26 8 68z" />
    <glyph glyph-name="phi" unicode="&#x3c6;" horiz-adv-x="576" 
d="M412 413q-31 0 -52.5 -27.5t-27.5 -60.5l-60 -306q67 9 113.5 59t65.5 111t19 126q0 98 -58 98zM266 -13q-16 -94 -32 -177q-21 -12 -67 -22q-2 1 -4 5l42 194q-84 2 -127 50.5t-43 124.5q0 87 52.5 171t152.5 115l7 -23q-140 -84 -140 -273q0 -128 102 -132l49 248
q15 77 42 110q22 27 60 49t71 22q55 0 82.5 -41.5t27.5 -105.5q0 -115 -77 -208.5t-198 -106.5z" />
    <glyph glyph-name="chi" unicode="&#x3c7;" horiz-adv-x="449" 
d="M159 446q23 0 34.5 -12.5t22.5 -47.5l34 -115q57 106 92 144t69 38q24 0 41 -12.5t17 -31.5t-12.5 -30.5t-31.5 -11.5q-20 0 -33.5 13t-16.5 32q-38 -30 -113 -179q50 -172 57 -189l79 70l18 -14q-22 -37 -56.5 -74t-61.5 -37q-22 0 -34 15t-22 45q-15 43 -41 133
q-63 -118 -99.5 -159.5t-72.5 -41.5q-25 0 -42 12.5t-17 32.5t13 31.5t32 11.5q20 0 34 -13.5t17 -32.5q41 32 123 199q-48 164 -49 168l-79 -72l-18 14q27 42 59.5 78t56.5 36z" />
    <glyph glyph-name="psi" unicode="&#x3c8;" horiz-adv-x="609" 
d="M297 -9l-20 -101q-4 -22 3.5 -35t22 -17t29 -6t24.5 -6.5t8 -14.5l-2 -13h-247l2 14q1 10 14.5 15t29.5 7.5t31.5 17t20.5 40.5l19 99q-92 9 -129.5 70.5t-16.5 164.5l33 168l-89 -62l-15 17q38 44 74 73t57 29q43 0 43 -38q0 -12 -8 -52l-34 -161q-31 -151 90 -180
l84 430q7 25 2.5 36t-27.5 17q-27 7 -33.5 11t-4.5 15l2 10l145 22l3 -4l-104 -537q63 11 103 60.5t54 119.5l33 169q16 80 80 80q22 0 55 -10l-5 -25q-35 0 -48.5 -15.5t-21.5 -56.5l-22 -111q-20 -102 -81 -166t-154 -74z" />
    <glyph glyph-name="omega" unicode="&#x3c9;" horiz-adv-x="648" 
d="M402 19q41 0 75 46.5t50.5 108t16.5 115.5q0 98 -54 136l12 23q55 -13 83 -62.5t28 -118.5q0 -104 -61 -191t-153 -87q-81 0 -91 96h-5q-59 -96 -150 -96q-57 0 -87.5 41t-30.5 109q0 110 59.5 200t147.5 109l6 -26q-42 -21 -72 -61t-43.5 -85.5t-19 -80.5t-5.5 -63
q0 -113 68 -113q43 0 71 45.5t39 103.5l24 124l-72 -52l-15 17q41 48 66 70t45 22q35 0 42 -28.5t-5 -70.5l-19 -96q-5 -27 -7 -47t1 -42t17 -34t39 -12z" />
    <glyph glyph-name="iotadieresis" unicode="&#x3ca;" horiz-adv-x="266" 
d="M103 -11q17 0 53.5 27.5t75.5 68.5l-13 17l-85 -53l61 303q7 33 7 52q0 47 -44 47q-41 0 -128 -102l15 -17l89 62l-63 -327q-5 -28 -5 -42q0 -21 9 -28.5t28 -7.5zM102 632q16 0 26 -11t10 -28q0 -21 -16 -37t-36 -16q-16 0 -26.5 10.5t-10.5 26.5q0 22 16.5 38.5
t36.5 16.5zM267 632q16 0 26 -11t10 -28q0 -21 -16 -37t-36 -16q-16 0 -26.5 10.5t-10.5 26.5q0 21 16 38t37 17z" />
    <glyph glyph-name="upsilondieresis" unicode="&#x3cb;" horiz-adv-x="494" 
d="M134 394l-44 -214q-8 -42 -8 -68q0 -123 124 -123q105 0 179 95.5t74 211.5q0 58 -27 102t-85 54l-12 -25q54 -48 54 -129q0 -59 -20.5 -122t-61.5 -110t-91 -47q-34 0 -52 19.5t-18.5 47t4.5 57.5l46 218q8 40 8 52q0 38 -43 38q-21 0 -57 -29t-74 -73l15 -17zM221 632
q16 0 26 -11t10 -28q0 -21 -16 -37t-36 -16q-16 0 -26.5 10.5t-10.5 26.5q0 22 16.5 38.5t36.5 16.5zM386 632q16 0 26 -11t10 -28q0 -21 -16 -37t-36 -16q-16 0 -26.5 10.5t-10.5 26.5q0 21 16 38t37 17z" />
    <glyph glyph-name="omicrontonos" unicode="&#x3cc;" horiz-adv-x="472" 
d="M274 449q77 0 120 -48t43 -125q0 -113 -76 -200t-177 -87q-149 0 -149 174q0 115 69.5 200.5t169.5 85.5zM268 418q-50 0 -88 -46.5t-55 -108t-17 -121.5q0 -123 84 -123q54 0 95.5 49t59 109.5t17.5 114.5q0 126 -96 126zM258 498l-11 18q38 32 69 74.5t49 64t37 21.5
q24 0 24 -24q0 -27 -43 -71t-125 -83z" />
    <glyph glyph-name="upsilontonos" unicode="&#x3cd;" horiz-adv-x="494" 
d="M134 394l-44 -214q-8 -42 -8 -68q0 -123 124 -123q105 0 179 95.5t74 211.5q0 58 -27 102t-85 54l-12 -25q54 -48 54 -129q0 -59 -20.5 -122t-61.5 -110t-91 -47q-34 0 -52 19.5t-18.5 47t4.5 57.5l46 218q8 40 8 52q0 38 -43 38q-21 0 -57 -29t-74 -73l15 -17zM242 498
l-11 18q38 32 69 74.5t49 64t37 21.5q24 0 24 -24q0 -27 -43 -71t-125 -83z" />
    <glyph glyph-name="omegatonos" unicode="&#x3ce;" horiz-adv-x="648" 
d="M402 19q-25 0 -39 12t-17 34t-1 42t7 47l19 96q12 42 5 70.5t-42 28.5q-20 0 -45 -22t-66 -70l15 -17l72 52l-24 -124q-11 -58 -39 -103.5t-71 -45.5q-68 0 -68 113q0 28 5.5 63t19 80.5t43.5 85.5t72 61l-6 26q-88 -19 -147.5 -109t-59.5 -200q0 -68 30.5 -109t87.5 -41
q91 0 150 96h5q10 -96 91 -96q92 0 153 87t61 191q0 69 -28 118.5t-83 62.5l-12 -23q54 -38 54 -136q0 -54 -16.5 -115.5t-50.5 -108t-75 -46.5zM327 498l-11 18q38 32 69 74.5t49 64t37 21.5q24 0 24 -24q0 -27 -43 -71t-125 -83z" />
    <glyph glyph-name="afii10023" unicode="&#x401;" horiz-adv-x="586" 
d="M222 32h94q73 0 117 39t101 138q14 25 27 21l12 -3l-86 -224l-7 -7q-142 4 -485 4l2 15q2 11 14.5 16t27 7t29 17t19.5 45l84 474q5 29 -5 44t-25 17t-27 7t-11 16l2 16q329 0 473 8l3 -5l-13 -173l-9 -1q-17 -1 -21 16q-20 86 -41 104.5t-91 18.5h-149l-48 -272h104
q35 0 57 17.5t28.5 38t14.5 38t19 17.5h10l-46 -265h-7q-12 0 -16 19t-4 42t-14.5 42t-46.5 19h-105l-42 -241q-6 -33 7 -49t54 -16zM308 834q15 0 25 -10.5t10 -26.5q0 -21 -16 -38t-36 -17q-16 0 -26.5 11t-10.5 27q0 21 17 37.5t37 16.5zM473 834q16 0 26 -10.5t10 -26.5
q0 -22 -16.5 -38.5t-36.5 -16.5q-16 0 -26.5 11t-10.5 27q0 21 17 37.5t37 16.5z" />
    <glyph glyph-name="afii10051" unicode="&#x402;" horiz-adv-x="722" 
d="M444 -2l2 -3q51 5 97.5 70t46.5 157q0 68 -41.5 103.5t-105.5 35.5q-51 0 -114 -21l-44 -252q-4 -23 0 -34.5t11.5 -13.5t12.5 -8.5t3 -19.5l-2 -12h-195l2 12q2 12 15.5 18.5t28.5 8.5t29.5 14.5t18.5 36.5l98 553h-45q-74 0 -101.5 -21.5t-76.5 -114.5q-11 -21 -26 -17
l-8 2l52 185l12 6q88 -9 252 -9q159 0 258 9l9 -6l-14 -185l-8 -1q-15 -1 -19 16q-9 42 -14 60t-13.5 37.5t-21.5 25t-31.5 9.5t-49.5 4h-79l-48 -273q67 29 140 29q83 0 142.5 -45t59.5 -129q0 -96 -72.5 -176.5t-175.5 -80.5q-31 0 -52 17t-21 47q0 21 12 35.5t32 14.5
q23 0 36 -16t13 -40q0 -13 -5 -28z" />
    <glyph glyph-name="afii10052" unicode="&#x403;" horiz-adv-x="541" 
d="M260 642l-98 -554q-4 -25 7.5 -37.5t28 -14t30 -6.5t11.5 -18l-2 -12h-242l2 12q2 12 15 17.5t27.5 7.5t29 15t18.5 38l87 484q5 29 -5 44t-25 17t-27 7t-11 16l2 16q341 0 485 8l3 -5l-13 -173l-9 -1q-17 -1 -21 16q-20 86 -41 104.5t-91 18.5h-161zM313 737l-5 22
q48 23 82 52t51.5 44.5t38.5 15.5q13 0 19.5 -9t6.5 -21q0 -10 -10 -23.5t-30.5 -29.5t-60.5 -30t-92 -21z" />
    <glyph glyph-name="afii10053" unicode="&#x404;" horiz-adv-x="617" 
d="M416 683q98 0 172 -54l32 54h17l-38 -214h-9q-9 0 -14.5 13.5t-8 33.5t-11 44t-22 44t-44 33.5t-74.5 13.5q-106 0 -173 -78.5t-89 -206.5l306 13l-9 -51l-303 2q-4 -36 -4 -82q0 -227 167 -227q53 0 94 16.5t63 41.5t38.5 54.5t25 54.5t19 41.5t23.5 16.5h9l-26 -157
q-78 -61 -135.5 -80t-123.5 -19q-117 0 -180 75.5t-63 197.5q0 178 102 299t259 121z" />
    <glyph glyph-name="afii10054" unicode="&#x405;" horiz-adv-x="497" 
d="M321 683q71 0 121.5 -29.5t50.5 -76.5q0 -23 -12 -40t-35 -17q-25 0 -38.5 17t-13.5 42q0 32 17 53q-41 18 -88 18q-58 0 -105.5 -31t-47.5 -94q0 -35 30.5 -64.5t73.5 -52t86 -47.5t73.5 -64.5t30.5 -88.5q0 -57 -25 -100.5t-66 -68t-87.5 -37t-94.5 -12.5
q-78 0 -132 30t-54 77q0 30 14.5 44t34.5 14q22 0 36 -16t14 -41q0 -32 -17 -55q39 -23 109 -23q75 0 134 40t59 115q0 43 -30.5 77t-73.5 57.5t-86 46.5t-73.5 57.5t-30.5 78.5q0 92 66.5 141.5t159.5 49.5z" />
    <glyph glyph-name="afii10055" unicode="&#x406;" horiz-adv-x="330" 
d="M263 584l-87 -496q-4 -25 7 -37.5t27 -14t28.5 -6.5t10.5 -18l-2 -12h-242l2 12q2 12 15.5 17.5t29 7.5t30.5 15t19 38l87 492q4 24 -6.5 37t-25.5 15.5t-27 8.5t-10 18l2 12h244l-2 -12q-2 -12 -16.5 -18t-31 -8t-32.5 -14.5t-20 -36.5z" />
    <glyph glyph-name="afii10056" unicode="&#x407;" horiz-adv-x="330" 
d="M263 584l-87 -496q-4 -25 7 -37.5t27 -14t28.5 -6.5t10.5 -18l-2 -12h-242l2 12q2 12 15.5 17.5t29 7.5t30.5 15t19 38l87 492q4 24 -6.5 37t-25.5 15.5t-27 8.5t-10 18l2 12h244l-2 -12q-2 -12 -16.5 -18t-31 -8t-32.5 -14.5t-20 -36.5zM186 811q16 0 26 -11t10 -28
q0 -21 -16 -37t-36 -16q-16 0 -26.5 10.5t-10.5 26.5q0 22 16.5 38.5t36.5 16.5zM351 811q16 0 26 -11t10 -28q0 -21 -16 -37t-36 -16q-16 0 -26.5 10.5t-10.5 26.5q0 21 16 38t37 17z" />
    <glyph glyph-name="afii10057" unicode="&#x408;" horiz-adv-x="320" 
d="M264 586l-87 -499q-15 -84 -68 -159q-100 -135 -187 -135q-32 0 -48 16.5t-16 36.5q0 21 13.5 36.5t40.5 15.5q25 0 44.5 -18.5t21.5 -44.5q56 40 82 100t49 192l80 457q4 24 -6.5 37.5t-25.5 16t-27.5 8.5t-10.5 17l2 12h246l-2 -12q-2 -12 -17 -18t-31.5 -8
t-32.5 -14.5t-20 -36.5z" />
    <glyph glyph-name="afii10058" unicode="&#x409;" horiz-adv-x="904" 
d="M336 0l2 12q2 12 14.5 18t26.5 8t28 15t18 37l99 552h-175q-63 -322 -137 -490q-74 -170 -181 -170q-28 0 -47 14.5t-19 38.5q0 27 17 39.5t36 12.5q24 0 43 -15.5t24 -42.5q125 88 215 554q5 24 -7 37t-29 15.5t-30.5 8.5t-11.5 18l2 12h462l-2 -12q-2 -12 -16 -18
t-30 -8t-31 -14t-19 -36l-36 -201q63 13 106 13q93 0 154.5 -41.5t61.5 -129.5q0 -37 -15 -75t-44.5 -73t-84 -57t-124.5 -22h-270zM547 353l-39 -226q-6 -38 -6 -49q0 -24 16.5 -35t63.5 -11q36 0 71.5 11.5t67.5 34t51.5 61.5t19.5 89q0 70 -47.5 101.5t-122.5 31.5
q-32 0 -75 -8z" />
    <glyph glyph-name="afii10059" unicode="&#x40a;" horiz-adv-x="880" 
d="M585 0h-263l2 12q2 12 14.5 17.5t27.5 7t29 15t19 40.5l45 253h-259l-46 -257q-4 -25 7 -37.5t27 -14t28.5 -6.5t10.5 -18l-2 -12h-235l2 12q2 12 14.5 17.5t27 7.5t28.5 15t18 38l87 492q4 24 -5.5 37t-23.5 15.5t-25 8.5t-9 18l2 12h237l-2 -12q-2 -12 -16.5 -18
t-31 -8t-32.5 -14.5t-20 -36.5l-36 -207h259l37 205q4 24 -6.5 37t-25.5 15.5t-27 8.5t-10 18l2 12h244l-2 -12q-2 -12 -16.5 -18t-31 -8t-32.5 -14.5t-20 -36.5l-35 -203q48 10 99 10q55 0 100.5 -13.5t80 -53t34.5 -101.5q0 -38 -14.5 -75t-44 -71t-84.5 -55.5t-127 -21.5
zM536 349l-39 -222q-6 -38 -6 -49q0 -24 16 -35t62 -11t90.5 18t79 63.5t34.5 110.5q0 69 -47.5 100.5t-118.5 31.5q-33 0 -71 -7z" />
    <glyph glyph-name="afii10060" unicode="&#x40b;" horiz-adv-x="742" 
d="M628 198l-19 -110q-4 -25 7 -37t27 -13t28.5 -6.5t10.5 -19.5l-2 -12h-235l2 12q2 12 14.5 18t26.5 8t28 15t18 37l19 107q16 86 -14.5 124.5t-93.5 38.5q-54 0 -118 -23l-44 -249q-4 -24 7 -36t26.5 -13.5t28 -7.5t10.5 -19l-2 -12h-240l2 12q2 12 15.5 18.5t28.5 8.5
t29.5 14.5t18.5 36.5l98 553h-42q-74 0 -101.5 -21.5t-76.5 -114.5q-11 -21 -26 -17l-8 2l52 185l12 6q88 -9 232 -9q179 0 278 9l9 -6l-14 -185l-8 -1q-15 -1 -19 16q-9 42 -14 60t-13.5 37.5t-21.5 25t-31.5 9.5t-49.5 4h-82l-49 -278q78 38 153 38q79 0 120.5 -49.5
t22.5 -155.5z" />
    <glyph glyph-name="afii10061" unicode="&#x40c;" horiz-adv-x="603" 
d="M203 338l-45 -250q-4 -25 7 -37.5t27 -14t28.5 -6.5t10.5 -18l-2 -12h-239l2 12q2 12 15 17.5t28 7.5t30 15t19 38l87 492q4 24 -6 37t-25 15.5t-26.5 8.5t-9.5 18l2 12h241l-2 -12q-2 -12 -16.5 -18t-31 -8t-32.5 -14.5t-20 -36.5l-37 -214h26q78 0 120.5 39t113.5 166
q14 25 24 40.5t26.5 34t37 28t43.5 9.5q22 0 38.5 -12.5t16.5 -33.5q0 -23 -17 -36.5t-39 -13.5q-42 0 -56 39q-17 -17 -51.5 -79.5t-76.5 -118.5t-89 -74l-1 -4q57 -10 81 -52t70 -191q14 -47 33 -63t55 -20l1 -30q-39 -9 -61 -9q-20 0 -35.5 5t-28.5 20t-21.5 29t-19 44.5
t-16.5 52.5t-18 67q-22 85 -46.5 108t-82.5 23h-32zM342 737l-5 22q48 23 82 52t51.5 44.5t38.5 15.5q13 0 19.5 -9t6.5 -21q0 -10 -10 -23.5t-30.5 -29.5t-60.5 -30t-92 -21z" />
    <glyph glyph-name="afii10062" unicode="&#x40e;" horiz-adv-x="585" 
d="M244 120l-85 437q-6 32 -21.5 51t-30 24t-25 12t-8.5 18l2 12h223l-2 -14q-1 -9 -11.5 -13.5t-21.5 -6.5t-20.5 -12.5t-9.5 -29.5q0 -4 2 -20l64 -362h5l193 337q19 34 19 51q0 14 -9 23t-19.5 12t-18.5 8t-7 13l2 14h200l-2 -13q-2 -11 -13.5 -16.5t-27.5 -9.5
t-39 -22.5t-42 -51.5l-252 -426q-53 -90 -94 -126.5t-86 -36.5q-29 0 -46.5 15.5t-17.5 37.5q0 25 16 38.5t39 13.5t40.5 -16t22.5 -37q22 15 39 35.5t42 60.5zM567 860l15 -16q-100 -111 -208 -111q-42 0 -64.5 19.5t-22.5 50.5q0 27 17 45.5t40 18.5t34.5 -17t11.5 -41
q0 -16 -7 -35q88 0 184 86z" />
    <glyph glyph-name="afii10145" unicode="&#x40f;" horiz-adv-x="687" 
d="M466 32l98 551q4 24 -6 37t-24.5 15t-26 8t-9.5 18l2 12h241l-2 -12q-2 -12 -16.5 -18t-31 -8t-32 -14t-19.5 -36l-88 -497q-4 -25 7 -37t27 -13t28.5 -6.5t10.5 -19.5l-2 -12h-232q-32 0 -44.5 -9.5t-22.5 -43.5l-38 -134h-27l4 132q1 36 -9 45.5t-46 9.5h-217l2 12
q2 12 15 17.5t28 7.5t30 15t19 38l87 492q4 24 -6 37t-25 15.5t-26.5 8.5t-9.5 18l2 12h241l-2 -12q-2 -12 -17 -18t-31.5 -8t-32 -14.5t-19.5 -36.5l-96 -552h316z" />
    <glyph glyph-name="afii10017" unicode="&#x410;" horiz-adv-x="627" 
d="M164 215l-50 -97q-20 -37 -14.5 -55.5t20 -23t29 -10t12.5 -15.5l-2 -14h-199l2 13q2 11 13.5 16.5t26.5 9.5t36.5 23.5t39.5 52.5l300 564h26l111 -568q6 -33 20 -51.5t26.5 -21.5t21.5 -9.5t8 -19.5l-1 -9h-215l1 12q1 11 13.5 16t26.5 7.5t22.5 19t2.5 47.5l-21 113
h-256zM357 574h-4l-173 -329h233l-27 136q-24 127 -29 193z" />
    <glyph glyph-name="afii10018" unicode="&#x411;" horiz-adv-x="566" 
d="M204 353l-39 -226q-6 -38 -6 -49q0 -24 16.5 -35t63.5 -11q51 0 99 19t84 65.5t36 111.5q0 70 -47.5 101.5t-122.5 31.5q-41 0 -84 -8zM253 641l-45 -255q70 12 116 12q93 0 154.5 -41.5t61.5 -129.5q0 -37 -15.5 -75t-47 -73t-86.5 -57t-125 -22h-276l2 12
q2 12 14.5 17.5t27.5 7t29 15t19 40.5l87 490q4 24 -6.5 37t-25.5 15.5t-27 8.5t-10 18l2 12q311 0 455 8l3 -5l-13 -173l-9 -1q-17 -1 -21 16q-20 86 -41 104.5t-91 18.5h-132z" />
    <glyph glyph-name="afii10019" unicode="&#x412;" horiz-adv-x="586" 
d="M255 642l-46 -258h89q18 0 38.5 2.5t48.5 12.5t49 26t36.5 45.5t15.5 68.5q0 54 -44 78.5t-100 24.5h-87zM284 0h-292l2 15q1 10 13.5 15t27.5 7t29.5 17.5t19.5 45.5l84 474q5 28 -5 43t-25.5 17.5t-27 8t-9.5 16.5l3 15h261q96 0 148.5 -41t52.5 -97q0 -74 -60 -117
t-127 -46v-4q80 -4 124 -51t44 -111q0 -74 -71 -140.5t-192 -66.5zM204 353l-40 -226q-5 -32 -5.5 -53t15 -31.5t52.5 -10.5h24q52 0 98.5 18t81 62.5t34.5 109.5q0 40 -17 68t-44 40.5t-51 17.5t-49 5h-99z" />
    <glyph glyph-name="afii10020" unicode="&#x413;" horiz-adv-x="541" 
d="M260 642l-98 -554q-4 -25 7.5 -37.5t28 -14t30 -6.5t11.5 -18l-2 -12h-242l2 12q2 12 15 17.5t27.5 7.5t29 15t18.5 38l87 484q5 29 -5 44t-25 17t-27 7t-11 16l2 16q341 0 485 8l3 -5l-13 -173l-9 -1q-17 -1 -21 16q-20 86 -41 104.5t-91 18.5h-161z" />
    <glyph glyph-name="afii10021" unicode="&#x414;" horiz-adv-x="670" 
d="M260 419q-64 -249 -169 -387h347l108 609h-237q-20 -110 -49 -222zM513 33h75l6 -7l-52 -209l-9 -1q-9 -1 -12.5 3.5t-3.5 13.5v112q0 35 -12 45t-47 10h-350q-37 0 -52 -10t-27 -45l-38 -112q-6 -18 -22 -17l-9 1l20 208l8 7h61q57 62 114 199t99 351q5 24 -7 37
t-29 15.5t-30.5 8.5t-11.5 18l2 12h523l-2 -12q-2 -12 -16 -18t-30 -8t-31 -14t-19 -36z" />
    </font>
</defs>
</svg>
