<svg xmlns="http://www.w3.org/2000/svg" width="14" height="13" viewBox="0 0 14 13"><defs><clipPath id="a"><path fill="#fff" d="M1155 58.5c0-1.93 3.13-3.5 7-3.5s7 1.57 7 3.5-3.13 3.5-7 3.5-7-1.57-7-3.5z"/></clipPath><clipPath id="b"><path fill="#fff" d="M1155 55.5c0-1.93 3.13-3.5 7-3.5s7 1.57 7 3.5-3.13 3.5-7 3.5-7-1.57-7-3.5z"/></clipPath><clipPath id="c"><path fill="#fff" d="M1155 52.5c0-1.93 3.13-3.5 7-3.5s7 1.57 7 3.5-3.13 3.5-7 3.5-7-1.57-7-3.5z"/></clipPath></defs><path fill="#f7f7f7" d="M0 9.5C0 7.57 3.13 6 7 6s7 1.57 7 3.5S10.87 13 7 13s-7-1.57-7-3.5z"/><path fill="none" stroke="#d2a36f" stroke-miterlimit="50" stroke-width="2" d="M1155 58.5c0-1.93 3.13-3.5 7-3.5s7 1.57 7 3.5-3.13 3.5-7 3.5-7-1.57-7-3.5z" clip-path="url(&quot;#a&quot;)" transform="translate(-1155 -49)"/><path fill="#f7f7f7" d="M0 6.5C0 4.57 3.13 3 7 3s7 1.57 7 3.5S10.87 10 7 10 0 8.43 0 6.5z"/><path fill="none" stroke="#d2a36f" stroke-miterlimit="50" stroke-width="2" d="M1155 55.5c0-1.93 3.13-3.5 7-3.5s7 1.57 7 3.5-3.13 3.5-7 3.5-7-1.57-7-3.5z" clip-path="url(&quot;#b&quot;)" transform="translate(-1155 -49)"/><path fill="#f7f7f7" d="M0 3.5C0 1.57 3.13 0 7 0s7 1.57 7 3.5S10.87 7 7 7 0 5.43 0 3.5z"/><path fill="none" stroke="#d2a36f" stroke-miterlimit="50" stroke-width="2" d="M1155 52.5c0-1.93 3.13-3.5 7-3.5s7 1.57 7 3.5-3.13 3.5-7 3.5-7-1.57-7-3.5z" clip-path="url(&quot;#c&quot;)" transform="translate(-1155 -49)"/></svg>