<svg xmlns="http://www.w3.org/2000/svg" width="34" height="60" viewBox="0 0 34 60"><path d="M21.46 2l.14.21 1.14 1.76 3.46 5.4.18.29c2.62 4.13 4.37 6.99 4.71 7.75a4.98 4.98 0 0 1-.61 4.74c-.43.58-.88 1.04-1.87 1.93l-.16.15a144.75 144.75 0 0 0-6.82 6.64l-.2.2-.15.15-1.66 1.67a115.85 115.85 0 0 0-4.15 4.29 43.8 43.8 0 0 0-5.3 7.18c-1.93 3.3-3.06 6-3.46 8.79-.23 1.64-.16 3.25.23 4.75-.22.06-.52.1-.94.1-1.08 0-2.38-3.92-2.02-5.81.52-2.68.62-5.48-.03-7.49-.42-1.32-.51-1.77-.43-2.06.07-.24.47-.48 1.63-.65 3.48-.52 7.32-5.35 9.78-11.62l.94-2.4c.32-.81.58-1.43.83-1.97 1.23-2.74 2.36-4 4.72-5.09 1.87-.86 1.96-2.51.84-4.18-.63-.93-1.54-1.8-2.65-2.7-.55-.44-1.01-.78-2.03-1.49-.88-.61-1.27-.88-1.72-1.23-1.28-1-2.27-1.88-4.45-3.92C8.42 4.6 6.81 3.21 4.95 2zM2 0a1 1 0 0 0-.66 1.75l.24.21.52.45c.52.45.76.65.91.73 2.14 1.29 3.68 2.58 7.02 5.7a63 63 0 0 0 4.61 4.05c.48.38.89.67 1.77 1.28 1.01.7 1.44 1.01 1.95 1.42.96.77 1.75 1.54 2.24 2.27.52.76.51.99-.02 1.23-2.83 1.31-4.29 2.93-5.71 6.09-.26.57-.52 1.21-.86 2.05l-.94 2.4c-2.22 5.67-5.67 10-8.21 10.38-1.85.28-2.93.91-3.26 2.08-.24.85-.12 1.43.45 3.21.52 1.62.43 4.13-.03 6.51C1.45 54.76 3.19 60 6 60c1.26 0 2.12-.27 2.62-.85.34-.4.44-.87.38-1.28a10.24 10.24 0 0 1-.31-4.43c.36-2.49 1.4-4.97 3.21-8.07a41.67 41.67 0 0 1 5.06-6.85c1.08-1.2 1.99-2.13 4.06-4.2l1.69-1.69.14-.15.21-.21c3.24-3.29 4.78-4.81 6.72-6.56l.17-.15c1.08-.97 1.61-1.5 2.14-2.22a6.95 6.95 0 0 0 .82-6.75c-.4-.9-2.12-3.72-4.84-8l-.19-.29c-1.1-1.74-2.28-3.58-3.46-5.41l-1.15-1.77-.43-.67A1 1 0 0 0 22 0z"/></svg>