<svg xmlns="http://www.w3.org/2000/svg" viewBox="0 0 14 13"><title>currency</title><path d="M12.56,5.63A4.28,4.28,0,0,0,13.33,5,2.18,2.18,0,0,1,14,6.5C14,8.43,10.87,10,7,10S0,8.43,0,6.5A2.18,2.18,0,0,1,.67,5a4.28,4.28,0,0,0,.77.63A1.28,1.28,0,0,0,1,6.5C1,7.69,3.62,9,7,9s6-1.31,6-2.5A1.28,1.28,0,0,0,12.56,5.63Z"/><path d="M12.56,8.63A4.28,4.28,0,0,0,13.33,8,2.18,2.18,0,0,1,14,9.5c0,1.93-3.13,3.5-7,3.5S0,11.43,0,9.5A2.18,2.18,0,0,1,.67,8a4.28,4.28,0,0,0,.77.63A1.28,1.28,0,0,0,1,9.5C1,10.69,3.62,12,7,12s6-1.31,6-2.5A1.28,1.28,0,0,0,12.56,8.63Z"/><path d="M7,6c3.38,0,6-1.31,6-2.5S10.38,1,7,1,1,2.31,1,3.5,3.62,6,7,6ZM7,7C3.13,7,0,5.43,0,3.5S3.13,0,7,0s7,1.57,7,3.5S10.87,7,7,7Z"/></svg>
