<svg xmlns="http://www.w3.org/2000/svg" width="23" height="16" viewBox="0 0 23 16"><defs><clipPath id="a"><path fill="#fff" d="M1194 52v-6h6v6zm3-2a1 1 0 1 0 0-2 1 1 0 0 0 0 2z"/></clipPath><clipPath id="b"><path fill="#fff" d="M1199 50v-2h17v2z"/></clipPath><clipPath id="c"><path fill="#fff" d="M1193 62v-6h6v6zm3-2a1 1 0 1 0 0-2 1 1 0 0 0 0 2z"/></clipPath><clipPath id="d"><path fill="#fff" d="M1198 60v-2h17v2z"/></clipPath></defs><path fill="none" stroke="#1a1b1c" stroke-miterlimit="50" stroke-width="4" d="M1196 49a1 1 0 1 1 2 0 1 1 0 0 1-2 0z" clip-path="url(&quot;#a&quot;)" transform="translate(-1193 -46)"/><path fill="none" stroke="#1a1b1c" stroke-miterlimit="50" stroke-width="2" d="M1199 50v-2h17v2z" clip-path="url(&quot;#b&quot;)" transform="translate(-1193 -46)"/><path fill="none" stroke="#1a1b1c" stroke-miterlimit="50" stroke-width="4" d="M1195 59a1 1 0 1 1 2 0 1 1 0 0 1-2 0z" clip-path="url(&quot;#c&quot;)" transform="translate(-1193 -46)"/><path fill="none" stroke="#1a1b1c" stroke-miterlimit="50" stroke-width="2" d="M1198 60v-2h17v2z" clip-path="url(&quot;#d&quot;)" transform="translate(-1193 -46)"/></svg>