<svg xmlns="http://www.w3.org/2000/svg" viewBox="0 0 31.97 60"><title>leg</title><path d="M23.85,8,21.26,4,20.12,2.21,20,2H3.48A47.23,47.23,0,0,1,9.94,7.39l.65.61Zm1.27,2H12.8c.55.48,1,.88,1.59,1.31s.83.62,1.71,1.24,1.48,1,2,1.49a13,13,0,0,1,2.65,2.7c1.12,1.66,1,3.31-.84,4.17C17.59,22,16.46,23.26,15.22,26c-.24.54-.5,1.16-.82,2l-.94,2.4C11,36.64,7.16,41.47,3.68,42c-1.16.17-1.56.41-1.63.65s0,.73.43,2.05a16.24,16.24,0,0,1,0,7.49c-.37,1.89.94,5.81,2,5.81a3.54,3.54,0,0,0,.93-.1,12.08,12.08,0,0,1-.23-4.75A24.13,24.13,0,0,1,8.7,44.36,43.67,43.67,0,0,1,14,37.18c1.11-1.23,2-2.18,4.15-4.29l1.66-1.67.15-.15.21-.21C23.43,27.55,25,26,27,24.23l.17-.15A12.54,12.54,0,0,0,29,22.15a5,5,0,0,0,.61-4.74C29.28,16.67,27.63,13.95,25.12,10ZM21.9,1.28l1,1.61c1.18,1.83,2.36,3.67,3.47,5.41l.19.29c2.72,4.28,4.44,7.1,4.85,8a7,7,0,0,1-.82,6.75,14.1,14.1,0,0,1-2.14,2.22l-.16.15c-1.94,1.75-3.48,3.27-6.72,6.56l-.21.21-.15.15-1.69,1.69c-2.07,2.07-3,3-4.06,4.2a41.68,41.68,0,0,0-5.06,6.85,22.33,22.33,0,0,0-3.21,8.06,10.31,10.31,0,0,0,.3,4.44,1.56,1.56,0,0,1-.38,1.28A3.29,3.29,0,0,1,4.53,60C1.72,60,0,54.76.55,51.81a14.59,14.59,0,0,0,0-6.51C0,43.52-.11,42.94.13,42.09.46,40.92,1.53,40.29,3.38,40c2.55-.38,6-4.71,8.22-10.38l.94-2.41c.33-.83.6-1.47.86-2,1.42-3.16,2.88-4.78,5.71-6.09.53-.24.54-.47,0-1.24a11.36,11.36,0,0,0-2.25-2.27c-.5-.41-.94-.72-2-1.42s-1.28-.9-1.77-1.28c-1.35-1-2.37-2-4.6-4a39.69,39.69,0,0,0-7-5.7,9.6,9.6,0,0,1-.91-.74L.11,2,0,1.87a39.25,39.25,0,0,1,21.9-.58Z"/></svg>
