<?xml version="1.0" encoding="UTF-8"?>
<svg width="17px" height="16px" viewBox="0 0 17 16" version="1.1" xmlns="http://www.w3.org/2000/svg" xmlns:xlink="http://www.w3.org/1999/xlink">
    <!-- Generator: Sketch 45.2 (43514) - http://www.bohemiancoding.com/sketch -->
    <title>Path</title>
    <desc>Created with Sketch.</desc>
    <defs></defs>
    <g id="02-Model-card" stroke="none" stroke-width="1" fill="none" fill-rule="evenodd">
        <g id="02_Card/photo-popup" transform="translate(-248.000000, -639.000000)" fill="#FFFFFF">
            <g id="Group-3" transform="translate(225.000000, 102.000000)">
                <g id="action-panel" transform="translate(0.000000, 515.000000)">
                    <g id="Group-2" transform="translate(23.000000, 21.000000)">
                        <path d="M11.6346154,1.86666667 C14.5474453,1.86666667 16.8461538,4.09922991 16.8461538,6.99791667 C16.8461538,7.91270359 16.6131296,8.78519839 16.1705595,9.63537246 C15.6312254,10.6714292 14.8288043,11.627162 13.5231233,12.9069554 C13.0955607,13.3260407 10.6107559,15.6551371 9.82406484,16.4273167 C9.04613715,17.1908944 7.80001669,17.1908944 7.022089,16.4273167 C6.2353979,15.6551371 3.75059312,13.3260407 3.32303051,12.9069554 C2.01734956,11.627162 1.2149284,10.6714292 0.675594382,9.63537246 C0.233024226,8.78519839 0,7.91270359 0,6.99791667 C0,4.09922991 2.29870852,1.86666667 5.21153846,1.86666667 C6.36975664,1.86666667 7.49893458,2.24684061 8.42282761,2.89823819 C9.34658943,2.24679892 10.4757738,1.86666667 11.6346154,1.86666667 Z" id="Path"></path>
                    </g>
                </g>
            </g>
        </g>
    </g>
</svg>