<?xml version="1.0" encoding="UTF-8"?>
<svg width="17px" height="16px" viewBox="0 0 17 16" version="1.1" xmlns="http://www.w3.org/2000/svg" xmlns:xlink="http://www.w3.org/1999/xlink">
    <!-- Generator: Sketch 45.2 (43514) - http://www.bohemiancoding.com/sketch -->
    <title>Shape</title>
    <desc>Created with Sketch.</desc>
    <defs></defs>
    <g id="02-Model-card" stroke="none" stroke-width="1" fill="none" fill-rule="evenodd">
        <g id="02_Card/photo-popup" transform="translate(-248.000000, -639.000000)" fill-rule="nonzero" fill="#FFFFFF">
            <g id="Group-3" transform="translate(225.000000, 102.000000)">
                <g id="action-panel" transform="translate(0.000000, 515.000000)">
                    <g id="Group-2" transform="translate(24.000000, 21.000000)">
                        <path d="M7.42307692,5.95416667 C6.94491453,4.74898333 5.60534615,3.86666667 4.21153846,3.86666667 C2.39666239,3.86666667 1,5.21101667 1,6.99791667 C1,9.4535125 3.70697009,11.3524417 7.42307692,15 C11.1391838,11.3524417 13.8461538,9.4535125 13.8461538,6.99791667 C13.8461538,5.21101667 12.4494915,3.86666667 10.6346154,3.86666667 C9.23938034,3.86666667 7.90123932,4.74898333 7.42307692,5.95416667 Z M10.6346154,1.86666667 C13.5474453,1.86666667 15.8461538,4.09922991 15.8461538,6.99791667 C15.8461538,7.91270359 15.6131296,8.78519839 15.1705595,9.63537246 C14.6312254,10.6714292 13.8288043,11.627162 12.5231233,12.9069554 C12.0955607,13.3260407 9.61075595,15.6551371 8.82406484,16.4273167 C8.04613715,17.1908944 6.80001669,17.1908944 6.022089,16.4273167 C5.2353979,15.6551371 2.75059312,13.3260407 2.32303051,12.9069554 C1.01734956,11.627162 0.214928397,10.6714292 -0.324405618,9.63537246 C-0.766975774,8.78519839 -1,7.91270359 -1,6.99791667 C-1,4.09922991 1.29870852,1.86666667 4.21153846,1.86666667 C5.36975664,1.86666667 6.49893458,2.24684061 7.42282761,2.89823819 C8.34658943,2.24679892 9.47577383,1.86666667 10.6346154,1.86666667 Z" id="Shape"></path>
                    </g>
                </g>
            </g>
        </g>
    </g>
</svg>