<svg xmlns="http://www.w3.org/2000/svg" width="17" height="16" viewBox="0 0 17 16"><defs><clipPath id="a"><path fill="#fff" d="M248 656v-16h17v16zm8.42-11.91a3.5 3.5 0 0 0-3.21-2.09 3.11 3.11 0 0 0-3.21 3.13c0 2.46 2.71 4.36 6.42 8 3.72-3.64 6.43-5.54 6.43-8 0-1.79-1.4-3.13-3.22-3.13-1.39 0-2.73.88-3.21 2.09z"/></clipPath></defs><path fill="none" stroke="#fff" stroke-linecap="round" stroke-linejoin="round" stroke-miterlimit="50" stroke-width="4" d="M256.42 644.09a3.5 3.5 0 0 0-3.21-2.09 3.11 3.11 0 0 0-3.21 3.13c0 2.46 2.71 4.36 6.42 8 3.72-3.64 6.43-5.54 6.43-8 0-1.79-1.4-3.13-3.22-3.13-1.39 0-2.73.88-3.21 2.09z" clip-path="url(&quot;#a&quot;)" transform="translate(-248 -640)"/></svg>