<svg xmlns="http://www.w3.org/2000/svg" width="18" height="21" viewBox="0 0 18 21"><defs><clipPath id="a"><path fill="#fff" d="M225 42c1.8-1.45 5.23-4.15 6.89-6.12a9.03 9.03 0 0 0 2.11-5.83c0-5-4.03-9.05-9-9.05s-9 4.05-9 9.05c0 2.21.79 4.24 2.1 5.81 1.65 1.98 5.1 4.69 6.9 6.14z"/></clipPath><clipPath id="b"><path fill="#fff" d="M222 33v-6h6v6zm3-2a1 1 0 1 0 0-2 1 1 0 0 0 0 2z"/></clipPath></defs><path fill="none" stroke="#000" stroke-miterlimit="50" stroke-width="4" d="M225 42c1.8-1.45 5.23-4.15 6.89-6.12a9.03 9.03 0 0 0 2.11-5.83c0-5-4.03-9.05-9-9.05s-9 4.05-9 9.05c0 2.21.79 4.24 2.1 5.81 1.65 1.98 5.1 4.69 6.9 6.14z" clip-path="url(&quot;#a&quot;)" transform="translate(-216 -21)"/><path fill="none" stroke="#1a1b1c" stroke-miterlimit="50" stroke-width="4" d="M224 30a1 1 0 1 1 2 0 1 1 0 0 1-2 0z" clip-path="url(&quot;#b&quot;)" transform="translate(-216 -21)"/></svg>