<svg xmlns="http://www.w3.org/2000/svg" width="22" height="20" viewBox="0 0 22 20"><path d="M11.2 6.21h-.08c-2.4 0-3.73 1.88-3.73 4.01 0 2.38 1.61 3.89 3.72 3.89a3.9 3.9 0 0 0 4.02-3.74V9.9a3.77 3.77 0 0 0-3.93-3.69zm4.16-.25c0-.53.36-.93.85-.93h.13c.78 0 .94.74.94.97v8.23c-.05.54.56.81.91.47 1.33-1.36 2.92-6.98-.83-10.24a9.04 9.04 0 0 0-10.69-.83 7.97 7.97 0 0 0-2.7 9.61c1.8 4.12 6.94 5.34 10 4.12 1.55-.62 2.26 1.46.66 2.13-2.43 1.03-9.19.93-12.35-4.5C.14 11.32.26 4.87 5.92 1.53a11.09 11.09 0 0 1 13.47 1.72c3.6 3.73 3.39 10.71-.12 13.43-1.59 1.23-3.95.03-3.93-1.77l-.02-.59a5.93 5.93 0 0 1-4.18 1.73 6.1 6.1 0 0 1-5.97-5.92 6.14 6.14 0 0 1 5.97-5.98c1.6 0 3.11.71 4.22 1.81z"/></svg>
