<svg xmlns="http://www.w3.org/2000/svg" width="28" height="17" viewBox="0 0 28 17"><path d="M1.02 7.91C1.09 3.62 4.98-.14 9.21.01c2.03-.1 3.94.8 5.49 2.05-.66.77-1.35 1.5-2.08 2.19-1.87-1.31-4.52-1.68-6.39-.17-2.67 1.87-2.79 6.29-.22 8.3 2.5 2.3 7.22 1.16 7.91-2.36-1.57-.02-3.14 0-4.7-.05l-.01-2.84c2.62 0 5.24-.01 7.86.01.15 2.23-.14 4.6-1.49 6.44-2.04 2.91-6.14 3.76-9.34 2.51a8.34 8.34 0 0 1-5.22-8.18M22.36 5h2.34l.01 2.38 2.35.01v2.37l-2.35.02-.01 2.37h-2.34l-.01-2.37L20 9.76V7.39l2.35-.01.01-2.38"/></svg>
