<svg width="15.215" height="15.264" version="1.1" viewBox="0 0 15.215098 15.263808" xmlns="http://www.w3.org/2000/svg">
 <title>Combined Shape</title>
 <desc>Created with Sketch.</desc>
 <g id="02-Model-card" transform="translate(-.511 -.57868)">
  <g transform="translate(-629,-2520)" >
   <g id="content" transform="translate(131,40)">
    <g id="contact" transform="translate(59,2184)">
     <g transform="translate(0,78)">
      <g id="info" transform="translate(335)">
       <g transform="translate(40,197)">
        <path id="Combined-Shape" transform="rotate(-45 72.154 29.154)" d="m69.466 29.17c-0.67585-0.53853-1.1265-1.2296-1.1265-1.8927 0-0.55228 0.44772-1 1-1 0.55228 0 1 0.44772 1 1 0-0.08433 0.0049-0.0721 0.04206-0.01871 0.08613 0.1238 0.22332 0.26476 0.39253 0.39509 0.40482 0.3118 0.90045 0.50007 1.3801 0.50007 0.99981 0 1.8147-0.8161 1.8147-1.8211v-2.4891c0-1.0125-0.80882-1.8211-1.8147-1.8211-1.0248 0-1.8147 0.70156-1.8147 1.5019 0 0.55228-0.44772 1-1 1-0.55228 0-1-0.44772-1-1 0-1.9612 1.7346-3.5019 3.8147-3.5019 2.1103 0 3.8147 1.7039 3.8147 3.8211v2.4891c0 1.1154-0.47826 2.1199-1.2403 2.8187 0.76268 0.69769 1.2403 1.7027 1.2403 2.8235v2.4891c0 2.1089-1.7096 3.8211-3.8147 3.8211-1.869 0-3.8147-1.4986-3.8147-2.8765v-3.7529c0-0.98023 0.43331-1.8554 1.1265-2.4857zm0.87351 2.4857v3.7529c0-0.08433 0.0049-0.0721 0.04206-0.01871 0.08613 0.1238 0.22332 0.26476 0.39253 0.39509 0.40482 0.3118 0.90045 0.50007 1.3801 0.50007 0.99981 0 1.8147-0.8161 1.8147-1.8211v-2.4891c0-1.0125-0.80882-1.8211-1.8147-1.8211-1.0248 0-1.8147 0.70155-1.8147 1.5019z"/>
       </g>
      </g>
     </g>
    </g>
   </g>
  </g>
 </g>
</svg>
