<svg xmlns="http://www.w3.org/2000/svg" viewBox="0 0 15.22 15.26"><title>link</title><path d="M5.75,9.49a2.61,2.61,0,0,1-2.13-.54A1,1,0,1,1,5,7.53c-.06-.06,0-.05,0,0a1.9,1.9,0,0,0,.56,0,2.31,2.31,0,0,0,1.33-.62,1.82,1.82,0,0,0,0-2.57L5.17,2.54a1.81,1.81,0,0,0-2.57,0,1.69,1.69,0,0,0-.22,2.35A1,1,0,0,1,1,6.29a3.67,3.67,0,0,1,.22-5.17,3.81,3.81,0,0,1,5.4,0L8.35,2.88A3.81,3.81,0,0,1,9.46,5.75a3.81,3.81,0,0,1,2.87,1.12L14.1,8.63a3.82,3.82,0,0,1,0,5.4c-1.32,1.32-3.76,1.64-4.73.66L6.71,12A3.35,3.35,0,0,1,5.75,9.49Zm2.38,1.14,2.65,2.65c-.06-.06,0-.05,0,0a1.9,1.9,0,0,0,.56,0,2.31,2.31,0,0,0,1.33-.62,1.82,1.82,0,0,0,0-2.57L10.92,8.29a1.81,1.81,0,0,0-2.57,0A1.69,1.69,0,0,0,8.13,10.63Z"/></svg>
