<svg xmlns="http://www.w3.org/2000/svg" width="13" height="20" viewBox="0 0 13 20"><path d="M9.39 5.1c0 1.16-.97 2.1-2.17 2.1a2.13 2.13 0 0 1-2.16-2.1c0-1.17.97-2.11 2.16-2.11 1.2 0 2.17.94 2.17 2.11zm3.06 0c0-2.81-2.35-5.1-5.23-5.1A5.17 5.17 0 0 0 2 5.1a5.16 5.16 0 0 0 5.22 5.09 5.17 5.17 0 0 0 5.23-5.09z"/><path fill="#1a1b1c" d="M8.97 13.98a9.75 9.75 0 0 0 3.04-1.22c.71-.44.93-1.36.48-2.06-.45-.7-1.4-.91-2.11-.47a6.78 6.78 0 0 1-7.03 0 1.55 1.55 0 0 0-2.11.47c-.46.7-.24 1.62.47 2.06.95.58 1.97.99 3.04 1.22l-2.92 2.85c-.6.58-.6 1.53 0 2.11a1.55 1.55 0 0 0 2.16 0l2.87-2.8 2.87 2.8c.6.59 1.57.59 2.16 0 .6-.58.6-1.53 0-2.11l-2.92-2.85"/></svg>
