<svg xmlns="http://www.w3.org/2000/svg" width="22" height="14" viewBox="0 0 22 14"><path fill="#1a1b1c" d="M21.81 11.7a10.96 10.96 0 0 0-2.19-2.42l-.03-.03c-.51-.46-.82-.76-.95-.91-.24-.29-.29-.59-.16-.89.09-.23.43-.7 1.03-1.43l.74-.93c1.32-1.68 1.89-2.76 1.72-3.22l-.07-.11c-.05-.07-.16-.13-.35-.18-.2-.06-.44-.07-.74-.03l-3.3.02c-.05-.02-.13-.02-.23.01l-.14.03-.06.03-.05.03a.4.4 0 0 0-.12.11.67.67 0 0 0-.12.2 18.78 18.78 0 0 1-2 3.64 6.32 6.32 0 0 1-1.03 1.11c-.13.09-.23.13-.3.12a1.42 1.42 0 0 0-.2-.04.8.8 0 0 1-.25-.27 1.28 1.28 0 0 1-.14-.43l-.04-.44.01-.53.01-.46.02-.9.03-.77.01-.61c0-.21-.01-.37-.04-.49a2.17 2.17 0 0 0-.12-.36.55.55 0 0 0-.24-.26 1.5 1.5 0 0 0-.38-.15c-.4-.08-.92-.13-1.55-.14-1.42-.01-2.33.07-2.73.26-.16.08-.31.19-.44.33-.14.16-.16.25-.06.27.46.06.79.22.98.47l.07.13c.05.09.1.26.16.5a7.78 7.78 0 0 1 .1 2.17c-.04.38-.07.68-.11.89a1.83 1.83 0 0 1-.29.75.17.17 0 0 1-.06.06c-.1.03-.2.05-.31.05a.8.8 0 0 1-.39-.15 2.5 2.5 0 0 1-.47-.42 5.59 5.59 0 0 1-.56-.75c-.2-.32-.42-.7-.64-1.14l-.18-.32c-.12-.2-.27-.5-.47-.89-.2-.39-.38-.77-.53-1.14a.74.74 0 0 0-.27-.35l-.06-.03a1.34 1.34 0 0 0-.45-.16l-3.14.02c-.32 0-.54.07-.65.21l-.05.06A.42.42 0 0 0 0 2c0 .08.02.18.07.29a37.62 37.62 0 0 0 2.9 5.29 24.51 24.51 0 0 0 2.34 2.98l.29.26a12.68 12.68 0 0 0 1.99 1.36c.43.23.93.43 1.5.58.58.15 1.14.21 1.68.18h1.31c.27-.02.47-.1.61-.24l.05-.06a.55.55 0 0 0 .08-.2.95.95 0 0 0 .04-.3 3.67 3.67 0 0 1 .27-1.42 1.42 1.42 0 0 1 .44-.48l.09-.04c.19-.06.4 0 .65.17s.48.38.7.64c.22.25.48.53.79.84.3.32.57.55.8.7l.23.14c.15.08.35.16.59.24.25.07.46.09.64.05l2.94-.04c.29 0 .51-.05.67-.14.16-.09.26-.19.29-.3a.77.77 0 0 0 0-.37.87.87 0 0 0-.08-.29l-.07-.14z"/></svg>