<svg width="21px" height="19px" viewBox="0 0 21 19" version="1.1" xmlns="http://www.w3.org/2000/svg" xmlns:xlink="http://www.w3.org/1999/xlink">
    <g stroke="none" stroke-width="1" fill-rule="evenodd">
        <g transform="translate(-600.000000, -1057.000000)">
            <g transform="translate(460.000000, 972.000000)">
                <g>
                    <g transform="translate(0.000000, 64.000000)">
                        <path d="M151.211048,35.3694513 L155.936782,38.9924973 C157.214146,39.549966 157.678663,38.3887116 157.678663,38.3887116 L161,21.6429184 C161,20.5281395 159.4671,21.2016385 159.4671,21.2016385 L140.81684,28.5177317 C140.81684,28.5177317 139.93428,28.8197436 140.003914,29.377133 C140.073627,29.9344431 140.793602,30.1899794 140.793602,30.1899794 L145.485254,31.7693552 L156.749707,24.6157678 C156.749707,24.6157678 157.400048,24.2210428 157.37681,24.6157678 C157.37681,24.6157678 157.49292,24.6854811 157.144591,25.0106514 C156.796183,25.3358217 148.295518,32.9770852 148.295518,32.9770852 L148.283255,33.0817491 L148.263667,33.0664435 L147.683199,38.2006442 C147.942383,38.3133435 148.179361,38.1336274 148.179361,38.1336274 L151.211048,35.3694513 Z"></path>
                    </g>
                </g>
            </g>
        </g>
    </g>
</svg>
