<svg width="22px" height="24px" viewBox="0 0 22 24" version="1.1" xmlns="http://www.w3.org/2000/svg" xmlns:xlink="http://www.w3.org/1999/xlink">
    <g stroke="none" stroke-width="1" fill-rule="evenodd">
        <g transform="translate(-785.000000, -1113.000000)">
            <g transform="translate(460.000000, 972.000000)">
                <g>
                    <g transform="translate(182.000000, 123.000000)">
                        <path d="M160.946665,33.2299996 C160.57063,34.2658833 159.26933,35.3093806 158.15855,35.2979602 C158.00213,35.2564069 157.692865,35.2094918 157.41495,35.0929817 C152.535735,33.0445914 148.991205,29.6893899 146.97694,24.8686168 C146.301705,23.2530779 147.00686,21.8884137 148.708615,21.3306879 C149.014525,21.2304238 149.31334,21.2236681 149.614135,21.3310633 C150.33986,21.5914282 152.177905,24.0578179 152.2191,24.7955366 C152.250505,25.361573 151.85621,25.6680487 151.464555,25.9272341 C150.72486,26.4167589 150.72101,27.0380746 151.036875,27.7303795 C151.75138,29.2959472 152.97117,30.3711858 154.550715,31.0696567 C155.12398,31.323105 155.672,31.2981731 156.063215,30.7200191 C156.76023,29.6909985 157.61482,29.7408624 158.54938,30.3803008 C159.01787,30.7011459 159.493235,31.014431 159.938845,31.3640149 C160.543845,31.8384733 161.308345,32.234168 160.946665,33.2299996 M157.125815,27.1545847 C156.889425,27.1817686 156.734215,26.988854 156.709795,26.7497215 C156.61976,25.8712042 156.1439,25.3521364 155.239975,25.2106407 C154.96954,25.1678542 154.70367,25.083139 154.829785,24.7263704 C154.91443,24.4879349 155.13872,24.4637535 155.367685,24.4581237 C156.344595,24.4346394 157.48865,25.5753446 157.472755,26.5620614 C157.48282,26.8321847 157.45334,27.1166774 157.125815,27.1545847 M158.85716,27.6660925 C158.315355,27.7462502 158.4209,27.2627842 158.367715,26.9525016 C158.005265,24.8220771 157.23796,24.0403924 155.0351,23.5603042 C154.710655,23.4895296 154.205755,23.5390719 154.289575,23.0517454 C154.36949,22.5875816 154.8228,22.7453233 155.16556,22.7854826 C157.366825,23.0434884 159.164885,24.904862 159.147065,26.9502497 C159.113295,27.1923848 159.258055,27.6070064 158.85716,27.6660925 M154.57134,21.0715562 C157.99751,21.1843131 160.94782,24.2423682 160.90591,27.5412181 C160.901675,27.8650122 161.02119,28.3448322 160.5263,28.3349667 C160.05286,28.3259054 160.17628,27.8393296 160.134315,27.5162325 C159.67996,24.0134766 158.035075,22.3601912 154.46805,21.8251991 C154.17237,21.7809649 153.722195,21.843697 153.744305,21.4626934 C153.777635,20.8978365 154.312455,21.107855 154.57134,21.0715562 M163.24,20.8214321 C161.7,18.9448312 158.235,18.0869565 153.835,18.0869565 C149.435,18.0869565 146.575,19.1056827 145.2,20.4461119 C143.825,21.7865411 143,24.2529308 143,28.1669841 C143,32.0289214 143.385,35.5661532 148.06,37.0138168 L148.06,41.1423387 C148.06,41.7321275 148.115,42.3755336 148.72,41.7321275 C149.325,41.0887215 152.295,37.6572228 152.295,37.6572228 C152.295,37.6572228 156.75,37.9253086 160.655,36.7457309 C164.56,35.5661532 165,31.330397 165,27.8988982 C165,24.4673995 164.78,22.698033 163.24,20.8214321"></path>
                    </g>
                </g>
            </g>
        </g>
    </g>
</svg>
