<svg width="23px" height="23px" viewBox="0 0 23 23" version="1.1" xmlns="http://www.w3.org/2000/svg" xmlns:xlink="http://www.w3.org/1999/xlink">
    <g stroke="none" stroke-width="1" fill-rule="evenodd">
        <g transform="translate(-600.000000, -1173.000000)" fill-rule="nonzero">
            <g transform="translate(460.000000, 972.000000)">
                <g>
                    <g transform="translate(0.000000, 182.000000)">
                        <path d="M151.493417,19 L151.493417,19.0001908 L151.500095,19.0001908 C157.841633,19.0001908 163,24.1585575 163,30.5000954 C163,36.8414425 157.841633,42 151.500095,42 C149.160847,42 146.990651,41.3037588 145.172105,40.1003625 L140.75062,41.51307 L142.183934,37.2404121 C140.804808,35.347262 139.993513,33.0148827 139.993513,30.4999046 C139.993513,24.1583667 145.151879,19 151.493417,19 Z M148.282007,24.8414425 C148.058958,24.3073841 147.889907,24.2871589 147.551994,24.2734211 C147.42368,24.2651557 147.295149,24.2607017 147.166571,24.2600649 C146.726961,24.2600649 146.267315,24.3884755 145.990078,24.6723908 C145.652166,25.0171723 144.813776,25.8215989 144.813776,27.4712841 C144.813776,29.1209693 146.017172,30.7164663 146.179355,30.9397062 C146.348407,31.1625644 148.525472,34.5970235 151.905743,35.9967563 C154.549132,37.0919672 155.333524,36.9904598 155.935127,36.8620492 C156.813967,36.6727724 157.916047,36.0234688 158.193284,35.2394581 C158.470521,34.4550658 158.470521,33.7857279 158.389239,33.6437703 C158.308147,33.5018126 158.084907,33.420912 157.746995,33.2516695 C157.409082,33.0826178 155.766075,32.2713223 155.455066,32.1631368 C155.150735,32.0482732 154.860141,32.0889143 154.630414,32.4134707 C154.305858,32.8664377 153.98817,33.3262736 153.731158,33.60332 C153.528334,33.8196909 153.196909,33.846785 152.919863,33.7317306 C152.547987,33.5764167 151.506964,33.2110284 150.222286,32.0684984 C149.228392,31.1829803 148.552376,30.0810914 148.356421,29.7498569 C148.160275,29.4119443 148.336195,29.2156077 148.491509,29.0331998 C148.660561,28.823507 148.822744,28.6748712 148.991795,28.4787254 C149.160847,28.2827705 149.255486,28.1812631 149.363671,27.9513452 C149.478725,27.7282961 149.397443,27.4983782 149.316352,27.3293265 C149.23526,27.1602748 148.559244,25.5105896 148.282007,24.8414425 L148.282007,24.8414425 Z"></path>
                    </g>
                </g>
            </g>
        </g>
    </g>
</svg>
